M48
; DRILL file {KiCad 9.0.7} date 2026-02-27T07:50:58+0900
; FORMAT={-:-/ absolute / metric / decimal}
; #@! TF.CreationDate,2026-02-27T07:50:58+09:00
; #@! TF.GenerationSoftware,Kicad,Pcbnew,9.0.7
; #@! TF.FileFunction,MixedPlating,1,2
FMAT,2
METRIC
; #@! TA.AperFunction,Plated,PTH,ViaDrill
T1C0.300
; #@! TA.AperFunction,Plated,PTH,ComponentDrill
T2C0.800
; #@! TA.AperFunction,Plated,PTH,ComponentDrill
T3C0.900
; #@! TA.AperFunction,Plated,PTH,ComponentDrill
T4C1.000
; #@! TA.AperFunction,NonPlated,NPTH,ComponentDrill
T5C3.200
%
G90
G05
T1
X3.62Y36.21
X4.04Y65.29
X9.1Y15.2
X10.16Y14.66
X11.42Y15.731
X11.45Y9.41
X12.33Y50.8
X12.34Y26.77
X12.4Y23.13
X13.2Y60.57
X13.2Y18.94
X14.09Y49.56
X14.09Y29.26
X14.97Y34.36
X15.05Y60.06
X15.05Y40.64
X15.13Y39.52
X15.68Y48.24
X15.68Y33.75
X15.76Y19.86
X16.33Y61.97
X16.33Y38.1
X16.86Y63.1
X16.92Y38.83
X17.56Y53.34
X19.41Y62.53
X19.41Y35.56
X20.04Y61.22
X20.04Y36.64
X20.71Y30.48
X22.06Y43.18
X22.06Y38.84
X22.18Y70.73
X22.18Y58.35
X23.25Y27.94
X25.79Y24.02
X27.97Y37.01
X28.29Y48.24
X28.33Y23.13
X32.45Y50.81
X33.19Y40.27
X36.59Y52.34
X36.59Y34.99
X37.34Y24.24
X37.39Y51.93
X37.39Y32.85
X38.27Y31.78
X38.37Y49.7
X39.73Y25.4
X39.74Y39.54
X40.07Y71.49
X40.36Y18.35
X41.97Y17.11
X44.99Y16.28
X45.54Y60.65
X48.0Y38.1
X48.0Y17.11
X48.59Y65.77
X48.59Y48.26
X48.83Y40.64
X49.25Y16.28
X49.56Y21.44
X50.76Y24.22
X50.77Y43.18
X50.77Y13.08
X51.9Y74.89
X52.17Y35.57
X52.17Y21.99
X53.16Y29.94
X53.17Y34.36
X53.18Y46.8
X54.2Y48.69
X54.2Y33.2
X54.75Y46.31
X54.75Y34.52
X55.03Y3.4
X55.54Y31.57
X55.58Y33.59
X55.7Y45.72
X56.35Y19.31
X57.0Y55.2
X57.37Y30.37
X57.37Y27.93
X58.18Y29.26
X58.18Y24.53
X58.24Y49.37
X58.96Y36.99
X58.96Y28.47
X58.99Y47.39
X58.99Y39.53
X59.02Y52.55
X59.26Y55.01
X60.11Y16.89
X60.11Y11.05
X60.38Y58.35
X60.39Y34.68
X61.09Y14.66
X61.09Y11.83
X61.89Y18.57
X61.89Y10.47
X62.61Y63.1
X62.65Y59.329
X65.04Y62.53
X65.04Y57.55
X70.69Y15.73
X70.72Y11.83
X75.21Y54.34
X75.67Y41.27
X76.03Y47.37
X76.34Y21.9
X76.69Y15.2
X76.83Y19.37
X77.1Y10.7
X77.46Y60.54
X80.74Y35.91
X80.75Y58.44
X80.75Y52.48
X80.77Y55.01
X81.04Y4.01
X81.65Y42.31
X81.66Y33.59
X82.29Y21.99
X82.31Y39.76
X82.31Y30.78
X82.31Y28.35
X83.29Y20.56
X83.3Y34.69
X83.3Y25.77
X83.62Y47.31
X83.64Y69.61
X83.86Y50.15
X84.21Y8.28
X84.22Y44.84
X84.22Y31.34
X85.14Y27.57
X85.16Y9.62
X95.93Y42.63
T2
X7.6Y60.86
X10.1Y60.86
X25.81Y71.26
X28.31Y71.26
X30.88Y21.21
X32.43Y65.04
X38.5Y21.21
X40.05Y65.04
X41.95Y11.89
X41.95Y9.35
X44.49Y11.89
X44.49Y9.35
X47.03Y11.89
X47.03Y9.35
X49.57Y11.9
X49.57Y9.36
X62.79Y34.68
X62.79Y32.18
T3
X13.52Y73.23
X13.52Y70.73
X13.52Y68.23
X16.82Y73.23
X16.82Y70.73
X16.82Y68.23
X34.43Y71.49
X35.95Y6.46
X36.97Y71.49
X38.49Y6.46
T4
X7.62Y55.88
X7.62Y53.34
X7.62Y50.8
X7.62Y48.26
X7.62Y45.72
X7.62Y43.18
X7.62Y40.64
X7.62Y38.1
X7.62Y35.56
X7.62Y33.02
X7.62Y30.48
X7.62Y27.94
X7.62Y25.4
X7.62Y22.86
X7.62Y20.32
X10.16Y55.88
X10.16Y53.34
X10.16Y50.8
X10.16Y48.26
X10.16Y45.72
X10.16Y43.18
X10.16Y40.64
X10.16Y38.1
X10.16Y35.56
X10.16Y33.02
X10.16Y30.48
X10.16Y27.94
X10.16Y25.4
X10.16Y22.86
X10.16Y20.32
X18.17Y12.13
X20.71Y12.13
X23.25Y12.13
X25.79Y12.13
X28.33Y12.13
X30.87Y12.13
X43.18Y55.88
X43.18Y53.34
X43.18Y50.8
X43.18Y48.26
X43.18Y45.72
X43.18Y43.18
X43.18Y40.64
X43.18Y38.1
X43.18Y35.56
X43.18Y33.02
X43.18Y30.48
X43.18Y27.94
X43.18Y25.4
X43.18Y22.86
X43.18Y20.32
X45.54Y71.04
X45.72Y55.88
X45.72Y53.34
X45.72Y50.8
X45.72Y48.26
X45.72Y45.72
X45.72Y43.18
X45.72Y40.64
X45.72Y38.1
X45.72Y35.56
X45.72Y33.02
X45.72Y30.48
X45.72Y27.94
X45.72Y25.4
X45.72Y22.86
X45.72Y20.32
X48.08Y71.04
X50.62Y71.04
X53.16Y71.04
X55.7Y71.04
X58.24Y71.04
X63.65Y71.14
X63.65Y66.64
X67.63Y60.09
X67.63Y57.55
X67.63Y55.01
X67.63Y52.47
X67.63Y49.93
X67.63Y47.39
X67.63Y44.85
X67.63Y42.31
X67.63Y39.77
X67.63Y37.23
X67.63Y34.69
X67.63Y32.15
X67.63Y29.61
X67.63Y27.07
X67.63Y24.53
X67.63Y21.99
X67.63Y19.45
X67.63Y16.91
X67.63Y14.37
X67.63Y11.83
X70.15Y71.14
X70.15Y66.64
X87.95Y60.09
X87.95Y57.55
X87.95Y55.01
X87.95Y52.47
X87.95Y49.93
X87.95Y47.39
X87.95Y44.85
X87.95Y42.31
X87.95Y39.77
X87.95Y37.23
X87.95Y34.69
X87.95Y32.15
X87.95Y29.61
X87.95Y27.07
X87.95Y24.53
X87.95Y21.99
X87.95Y19.45
X87.95Y16.91
X87.95Y14.37
X87.95Y11.83
T5
X5.0Y72.0
X5.0Y5.0
X94.0Y72.0
X94.0Y5.0
M30
