%TF.GenerationSoftware,KiCad,Pcbnew,9.0.7*%
%TF.CreationDate,2026-02-27T07:51:05+09:00*%
%TF.ProjectId,rp2350b,72703233-3530-4622-9e6b-696361645f70,Rev 0.2*%
%TF.SameCoordinates,PX3683140PY676d0d0*%
%TF.FileFunction,Legend,Top*%
%TF.FilePolarity,Positive*%
%FSLAX46Y46*%
G04 Gerber Fmt 4.6, Leading zero omitted, Abs format (unit mm)*
G04 Created by KiCad (PCBNEW 9.0.7) date 2026-02-27 07:51:05*
%MOMM*%
%LPD*%
G01*
G04 APERTURE LIST*
%ADD10C,0.200000*%
%ADD11C,0.100000*%
%ADD12C,0.140000*%
%ADD13C,0.160000*%
%ADD14C,0.150000*%
%ADD15C,0.125000*%
%ADD16C,0.187500*%
%ADD17C,0.254000*%
%ADD18C,0.120000*%
G04 APERTURE END LIST*
D10*
X6106000Y59140000D02*
X47254000Y59140000D01*
X47254000Y17738000D01*
X6106000Y17738000D01*
X6106000Y59140000D01*
D11*
X77720000Y62700000D02*
G75*
G02*
X76420000Y64000000I0J1300000D01*
G01*
X64080000Y64000000D02*
X91360000Y64000000D01*
X91360000Y9020000D01*
X64080000Y9020000D01*
X64080000Y64000000D01*
X79020000Y64000000D02*
G75*
G02*
X77720000Y62700000I-1300000J0D01*
G01*
X23885000Y59150000D02*
X29575000Y59150000D01*
X29575000Y56460000D01*
X23885000Y56460000D01*
X23885000Y59150000D01*
X92555312Y25105010D02*
X92479122Y25143105D01*
X92479122Y25143105D02*
X92364836Y25143105D01*
X92364836Y25143105D02*
X92250550Y25105010D01*
X92250550Y25105010D02*
X92174360Y25028820D01*
X92174360Y25028820D02*
X92136265Y24952629D01*
X92136265Y24952629D02*
X92098169Y24800248D01*
X92098169Y24800248D02*
X92098169Y24685962D01*
X92098169Y24685962D02*
X92136265Y24533581D01*
X92136265Y24533581D02*
X92174360Y24457391D01*
X92174360Y24457391D02*
X92250550Y24381200D01*
X92250550Y24381200D02*
X92364836Y24343105D01*
X92364836Y24343105D02*
X92441027Y24343105D01*
X92441027Y24343105D02*
X92555312Y24381200D01*
X92555312Y24381200D02*
X92593408Y24419296D01*
X92593408Y24419296D02*
X92593408Y24685962D01*
X92593408Y24685962D02*
X92441027Y24685962D01*
X92898169Y25066915D02*
X92936265Y25105010D01*
X92936265Y25105010D02*
X93012455Y25143105D01*
X93012455Y25143105D02*
X93202931Y25143105D01*
X93202931Y25143105D02*
X93279122Y25105010D01*
X93279122Y25105010D02*
X93317217Y25066915D01*
X93317217Y25066915D02*
X93355312Y24990724D01*
X93355312Y24990724D02*
X93355312Y24914534D01*
X93355312Y24914534D02*
X93317217Y24800248D01*
X93317217Y24800248D02*
X92860074Y24343105D01*
X92860074Y24343105D02*
X93355312Y24343105D01*
X93812455Y24800248D02*
X93736265Y24838343D01*
X93736265Y24838343D02*
X93698170Y24876439D01*
X93698170Y24876439D02*
X93660074Y24952629D01*
X93660074Y24952629D02*
X93660074Y24990724D01*
X93660074Y24990724D02*
X93698170Y25066915D01*
X93698170Y25066915D02*
X93736265Y25105010D01*
X93736265Y25105010D02*
X93812455Y25143105D01*
X93812455Y25143105D02*
X93964836Y25143105D01*
X93964836Y25143105D02*
X94041027Y25105010D01*
X94041027Y25105010D02*
X94079122Y25066915D01*
X94079122Y25066915D02*
X94117217Y24990724D01*
X94117217Y24990724D02*
X94117217Y24952629D01*
X94117217Y24952629D02*
X94079122Y24876439D01*
X94079122Y24876439D02*
X94041027Y24838343D01*
X94041027Y24838343D02*
X93964836Y24800248D01*
X93964836Y24800248D02*
X93812455Y24800248D01*
X93812455Y24800248D02*
X93736265Y24762153D01*
X93736265Y24762153D02*
X93698170Y24724058D01*
X93698170Y24724058D02*
X93660074Y24647867D01*
X93660074Y24647867D02*
X93660074Y24495486D01*
X93660074Y24495486D02*
X93698170Y24419296D01*
X93698170Y24419296D02*
X93736265Y24381200D01*
X93736265Y24381200D02*
X93812455Y24343105D01*
X93812455Y24343105D02*
X93964836Y24343105D01*
X93964836Y24343105D02*
X94041027Y24381200D01*
X94041027Y24381200D02*
X94079122Y24419296D01*
X94079122Y24419296D02*
X94117217Y24495486D01*
X94117217Y24495486D02*
X94117217Y24647867D01*
X94117217Y24647867D02*
X94079122Y24724058D01*
X94079122Y24724058D02*
X94041027Y24762153D01*
X94041027Y24762153D02*
X93964836Y24800248D01*
D12*
X58509613Y68614562D02*
X58542946Y68681229D01*
X58542946Y68681229D02*
X58542946Y68781229D01*
X58542946Y68781229D02*
X58509613Y68881229D01*
X58509613Y68881229D02*
X58442946Y68947895D01*
X58442946Y68947895D02*
X58376280Y68981229D01*
X58376280Y68981229D02*
X58242946Y69014562D01*
X58242946Y69014562D02*
X58142946Y69014562D01*
X58142946Y69014562D02*
X58009613Y68981229D01*
X58009613Y68981229D02*
X57942946Y68947895D01*
X57942946Y68947895D02*
X57876280Y68881229D01*
X57876280Y68881229D02*
X57842946Y68781229D01*
X57842946Y68781229D02*
X57842946Y68714562D01*
X57842946Y68714562D02*
X57876280Y68614562D01*
X57876280Y68614562D02*
X57909613Y68581229D01*
X57909613Y68581229D02*
X58142946Y68581229D01*
X58142946Y68581229D02*
X58142946Y68714562D01*
X57842946Y68281229D02*
X58542946Y68281229D01*
X58542946Y68281229D02*
X58542946Y68014562D01*
X58542946Y68014562D02*
X58509613Y67947895D01*
X58509613Y67947895D02*
X58476280Y67914562D01*
X58476280Y67914562D02*
X58409613Y67881229D01*
X58409613Y67881229D02*
X58309613Y67881229D01*
X58309613Y67881229D02*
X58242946Y67914562D01*
X58242946Y67914562D02*
X58209613Y67947895D01*
X58209613Y67947895D02*
X58176280Y68014562D01*
X58176280Y68014562D02*
X58176280Y68281229D01*
X58309613Y67281229D02*
X57842946Y67281229D01*
X58576280Y67447895D02*
X58076280Y67614562D01*
X58076280Y67614562D02*
X58076280Y67181229D01*
X58542946Y66981228D02*
X58542946Y66514562D01*
X58542946Y66514562D02*
X57842946Y66814562D01*
D11*
X92455312Y60545010D02*
X92379122Y60583105D01*
X92379122Y60583105D02*
X92264836Y60583105D01*
X92264836Y60583105D02*
X92150550Y60545010D01*
X92150550Y60545010D02*
X92074360Y60468820D01*
X92074360Y60468820D02*
X92036265Y60392629D01*
X92036265Y60392629D02*
X91998169Y60240248D01*
X91998169Y60240248D02*
X91998169Y60125962D01*
X91998169Y60125962D02*
X92036265Y59973581D01*
X92036265Y59973581D02*
X92074360Y59897391D01*
X92074360Y59897391D02*
X92150550Y59821200D01*
X92150550Y59821200D02*
X92264836Y59783105D01*
X92264836Y59783105D02*
X92341027Y59783105D01*
X92341027Y59783105D02*
X92455312Y59821200D01*
X92455312Y59821200D02*
X92493408Y59859296D01*
X92493408Y59859296D02*
X92493408Y60125962D01*
X92493408Y60125962D02*
X92341027Y60125962D01*
X93255312Y59783105D02*
X92798169Y59783105D01*
X93026741Y59783105D02*
X93026741Y60583105D01*
X93026741Y60583105D02*
X92950550Y60468820D01*
X92950550Y60468820D02*
X92874360Y60392629D01*
X92874360Y60392629D02*
X92798169Y60354534D01*
X93750551Y60583105D02*
X93826741Y60583105D01*
X93826741Y60583105D02*
X93902932Y60545010D01*
X93902932Y60545010D02*
X93941027Y60506915D01*
X93941027Y60506915D02*
X93979122Y60430724D01*
X93979122Y60430724D02*
X94017217Y60278343D01*
X94017217Y60278343D02*
X94017217Y60087867D01*
X94017217Y60087867D02*
X93979122Y59935486D01*
X93979122Y59935486D02*
X93941027Y59859296D01*
X93941027Y59859296D02*
X93902932Y59821200D01*
X93902932Y59821200D02*
X93826741Y59783105D01*
X93826741Y59783105D02*
X93750551Y59783105D01*
X93750551Y59783105D02*
X93674360Y59821200D01*
X93674360Y59821200D02*
X93636265Y59859296D01*
X93636265Y59859296D02*
X93598170Y59935486D01*
X93598170Y59935486D02*
X93560074Y60087867D01*
X93560074Y60087867D02*
X93560074Y60278343D01*
X93560074Y60278343D02*
X93598170Y60430724D01*
X93598170Y60430724D02*
X93636265Y60506915D01*
X93636265Y60506915D02*
X93674360Y60545010D01*
X93674360Y60545010D02*
X93750551Y60583105D01*
X92545312Y42875010D02*
X92469122Y42913105D01*
X92469122Y42913105D02*
X92354836Y42913105D01*
X92354836Y42913105D02*
X92240550Y42875010D01*
X92240550Y42875010D02*
X92164360Y42798820D01*
X92164360Y42798820D02*
X92126265Y42722629D01*
X92126265Y42722629D02*
X92088169Y42570248D01*
X92088169Y42570248D02*
X92088169Y42455962D01*
X92088169Y42455962D02*
X92126265Y42303581D01*
X92126265Y42303581D02*
X92164360Y42227391D01*
X92164360Y42227391D02*
X92240550Y42151200D01*
X92240550Y42151200D02*
X92354836Y42113105D01*
X92354836Y42113105D02*
X92431027Y42113105D01*
X92431027Y42113105D02*
X92545312Y42151200D01*
X92545312Y42151200D02*
X92583408Y42189296D01*
X92583408Y42189296D02*
X92583408Y42455962D01*
X92583408Y42455962D02*
X92431027Y42455962D01*
X92850074Y42913105D02*
X93345312Y42913105D01*
X93345312Y42913105D02*
X93078646Y42608343D01*
X93078646Y42608343D02*
X93192931Y42608343D01*
X93192931Y42608343D02*
X93269122Y42570248D01*
X93269122Y42570248D02*
X93307217Y42532153D01*
X93307217Y42532153D02*
X93345312Y42455962D01*
X93345312Y42455962D02*
X93345312Y42265486D01*
X93345312Y42265486D02*
X93307217Y42189296D01*
X93307217Y42189296D02*
X93269122Y42151200D01*
X93269122Y42151200D02*
X93192931Y42113105D01*
X93192931Y42113105D02*
X92964360Y42113105D01*
X92964360Y42113105D02*
X92888169Y42151200D01*
X92888169Y42151200D02*
X92850074Y42189296D01*
X93611979Y42913105D02*
X94107217Y42913105D01*
X94107217Y42913105D02*
X93840551Y42608343D01*
X93840551Y42608343D02*
X93954836Y42608343D01*
X93954836Y42608343D02*
X94031027Y42570248D01*
X94031027Y42570248D02*
X94069122Y42532153D01*
X94069122Y42532153D02*
X94107217Y42455962D01*
X94107217Y42455962D02*
X94107217Y42265486D01*
X94107217Y42265486D02*
X94069122Y42189296D01*
X94069122Y42189296D02*
X94031027Y42151200D01*
X94031027Y42151200D02*
X93954836Y42113105D01*
X93954836Y42113105D02*
X93726265Y42113105D01*
X93726265Y42113105D02*
X93650074Y42151200D01*
X93650074Y42151200D02*
X93611979Y42189296D01*
D13*
X26123775Y14475740D02*
X25323775Y14475740D01*
X25323775Y14475740D02*
X25895203Y14742406D01*
X25895203Y14742406D02*
X25323775Y15009073D01*
X25323775Y15009073D02*
X26123775Y15009073D01*
X25323775Y15542407D02*
X25323775Y15694788D01*
X25323775Y15694788D02*
X25361870Y15770978D01*
X25361870Y15770978D02*
X25438060Y15847169D01*
X25438060Y15847169D02*
X25590441Y15885264D01*
X25590441Y15885264D02*
X25857108Y15885264D01*
X25857108Y15885264D02*
X26009489Y15847169D01*
X26009489Y15847169D02*
X26085680Y15770978D01*
X26085680Y15770978D02*
X26123775Y15694788D01*
X26123775Y15694788D02*
X26123775Y15542407D01*
X26123775Y15542407D02*
X26085680Y15466216D01*
X26085680Y15466216D02*
X26009489Y15390026D01*
X26009489Y15390026D02*
X25857108Y15351930D01*
X25857108Y15351930D02*
X25590441Y15351930D01*
X25590441Y15351930D02*
X25438060Y15390026D01*
X25438060Y15390026D02*
X25361870Y15466216D01*
X25361870Y15466216D02*
X25323775Y15542407D01*
X26085680Y16190025D02*
X26123775Y16304311D01*
X26123775Y16304311D02*
X26123775Y16494787D01*
X26123775Y16494787D02*
X26085680Y16570978D01*
X26085680Y16570978D02*
X26047584Y16609073D01*
X26047584Y16609073D02*
X25971394Y16647168D01*
X25971394Y16647168D02*
X25895203Y16647168D01*
X25895203Y16647168D02*
X25819013Y16609073D01*
X25819013Y16609073D02*
X25780918Y16570978D01*
X25780918Y16570978D02*
X25742822Y16494787D01*
X25742822Y16494787D02*
X25704727Y16342406D01*
X25704727Y16342406D02*
X25666632Y16266216D01*
X25666632Y16266216D02*
X25628537Y16228121D01*
X25628537Y16228121D02*
X25552346Y16190025D01*
X25552346Y16190025D02*
X25476156Y16190025D01*
X25476156Y16190025D02*
X25399965Y16228121D01*
X25399965Y16228121D02*
X25361870Y16266216D01*
X25361870Y16266216D02*
X25323775Y16342406D01*
X25323775Y16342406D02*
X25323775Y16532883D01*
X25323775Y16532883D02*
X25361870Y16647168D01*
X26123775Y16990026D02*
X25323775Y16990026D01*
D11*
X38380074Y71280058D02*
X38665789Y71280058D01*
X38322931Y71108629D02*
X38522931Y71708629D01*
X38522931Y71708629D02*
X38722931Y71108629D01*
X61885312Y55375010D02*
X61809122Y55413105D01*
X61809122Y55413105D02*
X61694836Y55413105D01*
X61694836Y55413105D02*
X61580550Y55375010D01*
X61580550Y55375010D02*
X61504360Y55298820D01*
X61504360Y55298820D02*
X61466265Y55222629D01*
X61466265Y55222629D02*
X61428169Y55070248D01*
X61428169Y55070248D02*
X61428169Y54955962D01*
X61428169Y54955962D02*
X61466265Y54803581D01*
X61466265Y54803581D02*
X61504360Y54727391D01*
X61504360Y54727391D02*
X61580550Y54651200D01*
X61580550Y54651200D02*
X61694836Y54613105D01*
X61694836Y54613105D02*
X61771027Y54613105D01*
X61771027Y54613105D02*
X61885312Y54651200D01*
X61885312Y54651200D02*
X61923408Y54689296D01*
X61923408Y54689296D02*
X61923408Y54955962D01*
X61923408Y54955962D02*
X61771027Y54955962D01*
X62685312Y54613105D02*
X62228169Y54613105D01*
X62456741Y54613105D02*
X62456741Y55413105D01*
X62456741Y55413105D02*
X62380550Y55298820D01*
X62380550Y55298820D02*
X62304360Y55222629D01*
X62304360Y55222629D02*
X62228169Y55184534D01*
X62951979Y55413105D02*
X63447217Y55413105D01*
X63447217Y55413105D02*
X63180551Y55108343D01*
X63180551Y55108343D02*
X63294836Y55108343D01*
X63294836Y55108343D02*
X63371027Y55070248D01*
X63371027Y55070248D02*
X63409122Y55032153D01*
X63409122Y55032153D02*
X63447217Y54955962D01*
X63447217Y54955962D02*
X63447217Y54765486D01*
X63447217Y54765486D02*
X63409122Y54689296D01*
X63409122Y54689296D02*
X63371027Y54651200D01*
X63371027Y54651200D02*
X63294836Y54613105D01*
X63294836Y54613105D02*
X63066265Y54613105D01*
X63066265Y54613105D02*
X62990074Y54651200D01*
X62990074Y54651200D02*
X62951979Y54689296D01*
X62185312Y14945010D02*
X62109122Y14983105D01*
X62109122Y14983105D02*
X61994836Y14983105D01*
X61994836Y14983105D02*
X61880550Y14945010D01*
X61880550Y14945010D02*
X61804360Y14868820D01*
X61804360Y14868820D02*
X61766265Y14792629D01*
X61766265Y14792629D02*
X61728169Y14640248D01*
X61728169Y14640248D02*
X61728169Y14525962D01*
X61728169Y14525962D02*
X61766265Y14373581D01*
X61766265Y14373581D02*
X61804360Y14297391D01*
X61804360Y14297391D02*
X61880550Y14221200D01*
X61880550Y14221200D02*
X61994836Y14183105D01*
X61994836Y14183105D02*
X62071027Y14183105D01*
X62071027Y14183105D02*
X62185312Y14221200D01*
X62185312Y14221200D02*
X62223408Y14259296D01*
X62223408Y14259296D02*
X62223408Y14525962D01*
X62223408Y14525962D02*
X62071027Y14525962D01*
X62528169Y14906915D02*
X62566265Y14945010D01*
X62566265Y14945010D02*
X62642455Y14983105D01*
X62642455Y14983105D02*
X62832931Y14983105D01*
X62832931Y14983105D02*
X62909122Y14945010D01*
X62909122Y14945010D02*
X62947217Y14906915D01*
X62947217Y14906915D02*
X62985312Y14830724D01*
X62985312Y14830724D02*
X62985312Y14754534D01*
X62985312Y14754534D02*
X62947217Y14640248D01*
X62947217Y14640248D02*
X62490074Y14183105D01*
X62490074Y14183105D02*
X62985312Y14183105D01*
X63747217Y14183105D02*
X63290074Y14183105D01*
X63518646Y14183105D02*
X63518646Y14983105D01*
X63518646Y14983105D02*
X63442455Y14868820D01*
X63442455Y14868820D02*
X63366265Y14792629D01*
X63366265Y14792629D02*
X63290074Y14754534D01*
X62105312Y22535010D02*
X62029122Y22573105D01*
X62029122Y22573105D02*
X61914836Y22573105D01*
X61914836Y22573105D02*
X61800550Y22535010D01*
X61800550Y22535010D02*
X61724360Y22458820D01*
X61724360Y22458820D02*
X61686265Y22382629D01*
X61686265Y22382629D02*
X61648169Y22230248D01*
X61648169Y22230248D02*
X61648169Y22115962D01*
X61648169Y22115962D02*
X61686265Y21963581D01*
X61686265Y21963581D02*
X61724360Y21887391D01*
X61724360Y21887391D02*
X61800550Y21811200D01*
X61800550Y21811200D02*
X61914836Y21773105D01*
X61914836Y21773105D02*
X61991027Y21773105D01*
X61991027Y21773105D02*
X62105312Y21811200D01*
X62105312Y21811200D02*
X62143408Y21849296D01*
X62143408Y21849296D02*
X62143408Y22115962D01*
X62143408Y22115962D02*
X61991027Y22115962D01*
X62410074Y22573105D02*
X62905312Y22573105D01*
X62905312Y22573105D02*
X62638646Y22268343D01*
X62638646Y22268343D02*
X62752931Y22268343D01*
X62752931Y22268343D02*
X62829122Y22230248D01*
X62829122Y22230248D02*
X62867217Y22192153D01*
X62867217Y22192153D02*
X62905312Y22115962D01*
X62905312Y22115962D02*
X62905312Y21925486D01*
X62905312Y21925486D02*
X62867217Y21849296D01*
X62867217Y21849296D02*
X62829122Y21811200D01*
X62829122Y21811200D02*
X62752931Y21773105D01*
X62752931Y21773105D02*
X62524360Y21773105D01*
X62524360Y21773105D02*
X62448169Y21811200D01*
X62448169Y21811200D02*
X62410074Y21849296D01*
X63362455Y22230248D02*
X63286265Y22268343D01*
X63286265Y22268343D02*
X63248170Y22306439D01*
X63248170Y22306439D02*
X63210074Y22382629D01*
X63210074Y22382629D02*
X63210074Y22420724D01*
X63210074Y22420724D02*
X63248170Y22496915D01*
X63248170Y22496915D02*
X63286265Y22535010D01*
X63286265Y22535010D02*
X63362455Y22573105D01*
X63362455Y22573105D02*
X63514836Y22573105D01*
X63514836Y22573105D02*
X63591027Y22535010D01*
X63591027Y22535010D02*
X63629122Y22496915D01*
X63629122Y22496915D02*
X63667217Y22420724D01*
X63667217Y22420724D02*
X63667217Y22382629D01*
X63667217Y22382629D02*
X63629122Y22306439D01*
X63629122Y22306439D02*
X63591027Y22268343D01*
X63591027Y22268343D02*
X63514836Y22230248D01*
X63514836Y22230248D02*
X63362455Y22230248D01*
X63362455Y22230248D02*
X63286265Y22192153D01*
X63286265Y22192153D02*
X63248170Y22154058D01*
X63248170Y22154058D02*
X63210074Y22077867D01*
X63210074Y22077867D02*
X63210074Y21925486D01*
X63210074Y21925486D02*
X63248170Y21849296D01*
X63248170Y21849296D02*
X63286265Y21811200D01*
X63286265Y21811200D02*
X63362455Y21773105D01*
X63362455Y21773105D02*
X63514836Y21773105D01*
X63514836Y21773105D02*
X63591027Y21811200D01*
X63591027Y21811200D02*
X63629122Y21849296D01*
X63629122Y21849296D02*
X63667217Y21925486D01*
X63667217Y21925486D02*
X63667217Y22077867D01*
X63667217Y22077867D02*
X63629122Y22154058D01*
X63629122Y22154058D02*
X63591027Y22192153D01*
X63591027Y22192153D02*
X63514836Y22230248D01*
X44054990Y6185313D02*
X44016895Y6109123D01*
X44016895Y6109123D02*
X44016895Y5994837D01*
X44016895Y5994837D02*
X44054990Y5880551D01*
X44054990Y5880551D02*
X44131180Y5804361D01*
X44131180Y5804361D02*
X44207371Y5766266D01*
X44207371Y5766266D02*
X44359752Y5728170D01*
X44359752Y5728170D02*
X44474038Y5728170D01*
X44474038Y5728170D02*
X44626419Y5766266D01*
X44626419Y5766266D02*
X44702609Y5804361D01*
X44702609Y5804361D02*
X44778800Y5880551D01*
X44778800Y5880551D02*
X44816895Y5994837D01*
X44816895Y5994837D02*
X44816895Y6071028D01*
X44816895Y6071028D02*
X44778800Y6185313D01*
X44778800Y6185313D02*
X44740704Y6223409D01*
X44740704Y6223409D02*
X44474038Y6223409D01*
X44474038Y6223409D02*
X44474038Y6071028D01*
X44283561Y6909123D02*
X44816895Y6909123D01*
X43978800Y6718647D02*
X44550228Y6528170D01*
X44550228Y6528170D02*
X44550228Y7023409D01*
X44816895Y7747218D02*
X44816895Y7290075D01*
X44816895Y7518647D02*
X44016895Y7518647D01*
X44016895Y7518647D02*
X44131180Y7442456D01*
X44131180Y7442456D02*
X44207371Y7366266D01*
X44207371Y7366266D02*
X44245466Y7290075D01*
X64905312Y32555010D02*
X64829122Y32593105D01*
X64829122Y32593105D02*
X64714836Y32593105D01*
X64714836Y32593105D02*
X64600550Y32555010D01*
X64600550Y32555010D02*
X64524360Y32478820D01*
X64524360Y32478820D02*
X64486265Y32402629D01*
X64486265Y32402629D02*
X64448169Y32250248D01*
X64448169Y32250248D02*
X64448169Y32135962D01*
X64448169Y32135962D02*
X64486265Y31983581D01*
X64486265Y31983581D02*
X64524360Y31907391D01*
X64524360Y31907391D02*
X64600550Y31831200D01*
X64600550Y31831200D02*
X64714836Y31793105D01*
X64714836Y31793105D02*
X64791027Y31793105D01*
X64791027Y31793105D02*
X64905312Y31831200D01*
X64905312Y31831200D02*
X64943408Y31869296D01*
X64943408Y31869296D02*
X64943408Y32135962D01*
X64943408Y32135962D02*
X64791027Y32135962D01*
X65248169Y32516915D02*
X65286265Y32555010D01*
X65286265Y32555010D02*
X65362455Y32593105D01*
X65362455Y32593105D02*
X65552931Y32593105D01*
X65552931Y32593105D02*
X65629122Y32555010D01*
X65629122Y32555010D02*
X65667217Y32516915D01*
X65667217Y32516915D02*
X65705312Y32440724D01*
X65705312Y32440724D02*
X65705312Y32364534D01*
X65705312Y32364534D02*
X65667217Y32250248D01*
X65667217Y32250248D02*
X65210074Y31793105D01*
X65210074Y31793105D02*
X65705312Y31793105D01*
X92555312Y14965010D02*
X92479122Y15003105D01*
X92479122Y15003105D02*
X92364836Y15003105D01*
X92364836Y15003105D02*
X92250550Y14965010D01*
X92250550Y14965010D02*
X92174360Y14888820D01*
X92174360Y14888820D02*
X92136265Y14812629D01*
X92136265Y14812629D02*
X92098169Y14660248D01*
X92098169Y14660248D02*
X92098169Y14545962D01*
X92098169Y14545962D02*
X92136265Y14393581D01*
X92136265Y14393581D02*
X92174360Y14317391D01*
X92174360Y14317391D02*
X92250550Y14241200D01*
X92250550Y14241200D02*
X92364836Y14203105D01*
X92364836Y14203105D02*
X92441027Y14203105D01*
X92441027Y14203105D02*
X92555312Y14241200D01*
X92555312Y14241200D02*
X92593408Y14279296D01*
X92593408Y14279296D02*
X92593408Y14545962D01*
X92593408Y14545962D02*
X92441027Y14545962D01*
X92898169Y14926915D02*
X92936265Y14965010D01*
X92936265Y14965010D02*
X93012455Y15003105D01*
X93012455Y15003105D02*
X93202931Y15003105D01*
X93202931Y15003105D02*
X93279122Y14965010D01*
X93279122Y14965010D02*
X93317217Y14926915D01*
X93317217Y14926915D02*
X93355312Y14850724D01*
X93355312Y14850724D02*
X93355312Y14774534D01*
X93355312Y14774534D02*
X93317217Y14660248D01*
X93317217Y14660248D02*
X92860074Y14203105D01*
X92860074Y14203105D02*
X93355312Y14203105D01*
X93736265Y14203105D02*
X93888646Y14203105D01*
X93888646Y14203105D02*
X93964836Y14241200D01*
X93964836Y14241200D02*
X94002932Y14279296D01*
X94002932Y14279296D02*
X94079122Y14393581D01*
X94079122Y14393581D02*
X94117217Y14545962D01*
X94117217Y14545962D02*
X94117217Y14850724D01*
X94117217Y14850724D02*
X94079122Y14926915D01*
X94079122Y14926915D02*
X94041027Y14965010D01*
X94041027Y14965010D02*
X93964836Y15003105D01*
X93964836Y15003105D02*
X93812455Y15003105D01*
X93812455Y15003105D02*
X93736265Y14965010D01*
X93736265Y14965010D02*
X93698170Y14926915D01*
X93698170Y14926915D02*
X93660074Y14850724D01*
X93660074Y14850724D02*
X93660074Y14660248D01*
X93660074Y14660248D02*
X93698170Y14584058D01*
X93698170Y14584058D02*
X93736265Y14545962D01*
X93736265Y14545962D02*
X93812455Y14507867D01*
X93812455Y14507867D02*
X93964836Y14507867D01*
X93964836Y14507867D02*
X94041027Y14545962D01*
X94041027Y14545962D02*
X94079122Y14584058D01*
X94079122Y14584058D02*
X94117217Y14660248D01*
X92555312Y45415010D02*
X92479122Y45453105D01*
X92479122Y45453105D02*
X92364836Y45453105D01*
X92364836Y45453105D02*
X92250550Y45415010D01*
X92250550Y45415010D02*
X92174360Y45338820D01*
X92174360Y45338820D02*
X92136265Y45262629D01*
X92136265Y45262629D02*
X92098169Y45110248D01*
X92098169Y45110248D02*
X92098169Y44995962D01*
X92098169Y44995962D02*
X92136265Y44843581D01*
X92136265Y44843581D02*
X92174360Y44767391D01*
X92174360Y44767391D02*
X92250550Y44691200D01*
X92250550Y44691200D02*
X92364836Y44653105D01*
X92364836Y44653105D02*
X92441027Y44653105D01*
X92441027Y44653105D02*
X92555312Y44691200D01*
X92555312Y44691200D02*
X92593408Y44729296D01*
X92593408Y44729296D02*
X92593408Y44995962D01*
X92593408Y44995962D02*
X92441027Y44995962D01*
X92860074Y45453105D02*
X93355312Y45453105D01*
X93355312Y45453105D02*
X93088646Y45148343D01*
X93088646Y45148343D02*
X93202931Y45148343D01*
X93202931Y45148343D02*
X93279122Y45110248D01*
X93279122Y45110248D02*
X93317217Y45072153D01*
X93317217Y45072153D02*
X93355312Y44995962D01*
X93355312Y44995962D02*
X93355312Y44805486D01*
X93355312Y44805486D02*
X93317217Y44729296D01*
X93317217Y44729296D02*
X93279122Y44691200D01*
X93279122Y44691200D02*
X93202931Y44653105D01*
X93202931Y44653105D02*
X92974360Y44653105D01*
X92974360Y44653105D02*
X92898169Y44691200D01*
X92898169Y44691200D02*
X92860074Y44729296D01*
X94041027Y45186439D02*
X94041027Y44653105D01*
X93850551Y45491200D02*
X93660074Y44919772D01*
X93660074Y44919772D02*
X94155313Y44919772D01*
D10*
X19010149Y73812781D02*
X19200625Y73812781D01*
X19200625Y73812781D02*
X19295863Y73765162D01*
X19295863Y73765162D02*
X19391101Y73669924D01*
X19391101Y73669924D02*
X19438720Y73479448D01*
X19438720Y73479448D02*
X19438720Y73146115D01*
X19438720Y73146115D02*
X19391101Y72955639D01*
X19391101Y72955639D02*
X19295863Y72860400D01*
X19295863Y72860400D02*
X19200625Y72812781D01*
X19200625Y72812781D02*
X19010149Y72812781D01*
X19010149Y72812781D02*
X18914911Y72860400D01*
X18914911Y72860400D02*
X18819673Y72955639D01*
X18819673Y72955639D02*
X18772054Y73146115D01*
X18772054Y73146115D02*
X18772054Y73479448D01*
X18772054Y73479448D02*
X18819673Y73669924D01*
X18819673Y73669924D02*
X18914911Y73765162D01*
X18914911Y73765162D02*
X19010149Y73812781D01*
X20200625Y73336591D02*
X19867292Y73336591D01*
X19867292Y72812781D02*
X19867292Y73812781D01*
X19867292Y73812781D02*
X20343482Y73812781D01*
X21057768Y73336591D02*
X20724435Y73336591D01*
X20724435Y72812781D02*
X20724435Y73812781D01*
X20724435Y73812781D02*
X21200625Y73812781D01*
D11*
X62185312Y12275010D02*
X62109122Y12313105D01*
X62109122Y12313105D02*
X61994836Y12313105D01*
X61994836Y12313105D02*
X61880550Y12275010D01*
X61880550Y12275010D02*
X61804360Y12198820D01*
X61804360Y12198820D02*
X61766265Y12122629D01*
X61766265Y12122629D02*
X61728169Y11970248D01*
X61728169Y11970248D02*
X61728169Y11855962D01*
X61728169Y11855962D02*
X61766265Y11703581D01*
X61766265Y11703581D02*
X61804360Y11627391D01*
X61804360Y11627391D02*
X61880550Y11551200D01*
X61880550Y11551200D02*
X61994836Y11513105D01*
X61994836Y11513105D02*
X62071027Y11513105D01*
X62071027Y11513105D02*
X62185312Y11551200D01*
X62185312Y11551200D02*
X62223408Y11589296D01*
X62223408Y11589296D02*
X62223408Y11855962D01*
X62223408Y11855962D02*
X62071027Y11855962D01*
X62528169Y12236915D02*
X62566265Y12275010D01*
X62566265Y12275010D02*
X62642455Y12313105D01*
X62642455Y12313105D02*
X62832931Y12313105D01*
X62832931Y12313105D02*
X62909122Y12275010D01*
X62909122Y12275010D02*
X62947217Y12236915D01*
X62947217Y12236915D02*
X62985312Y12160724D01*
X62985312Y12160724D02*
X62985312Y12084534D01*
X62985312Y12084534D02*
X62947217Y11970248D01*
X62947217Y11970248D02*
X62490074Y11513105D01*
X62490074Y11513105D02*
X62985312Y11513105D01*
X63671027Y12046439D02*
X63671027Y11513105D01*
X63480551Y12351200D02*
X63290074Y11779772D01*
X63290074Y11779772D02*
X63785313Y11779772D01*
X92535312Y20045010D02*
X92459122Y20083105D01*
X92459122Y20083105D02*
X92344836Y20083105D01*
X92344836Y20083105D02*
X92230550Y20045010D01*
X92230550Y20045010D02*
X92154360Y19968820D01*
X92154360Y19968820D02*
X92116265Y19892629D01*
X92116265Y19892629D02*
X92078169Y19740248D01*
X92078169Y19740248D02*
X92078169Y19625962D01*
X92078169Y19625962D02*
X92116265Y19473581D01*
X92116265Y19473581D02*
X92154360Y19397391D01*
X92154360Y19397391D02*
X92230550Y19321200D01*
X92230550Y19321200D02*
X92344836Y19283105D01*
X92344836Y19283105D02*
X92421027Y19283105D01*
X92421027Y19283105D02*
X92535312Y19321200D01*
X92535312Y19321200D02*
X92573408Y19359296D01*
X92573408Y19359296D02*
X92573408Y19625962D01*
X92573408Y19625962D02*
X92421027Y19625962D01*
X92878169Y20006915D02*
X92916265Y20045010D01*
X92916265Y20045010D02*
X92992455Y20083105D01*
X92992455Y20083105D02*
X93182931Y20083105D01*
X93182931Y20083105D02*
X93259122Y20045010D01*
X93259122Y20045010D02*
X93297217Y20006915D01*
X93297217Y20006915D02*
X93335312Y19930724D01*
X93335312Y19930724D02*
X93335312Y19854534D01*
X93335312Y19854534D02*
X93297217Y19740248D01*
X93297217Y19740248D02*
X92840074Y19283105D01*
X92840074Y19283105D02*
X93335312Y19283105D01*
X93601979Y20083105D02*
X94135313Y20083105D01*
X94135313Y20083105D02*
X93792455Y19283105D01*
D10*
X18900149Y68692781D02*
X19090625Y68692781D01*
X19090625Y68692781D02*
X19185863Y68645162D01*
X19185863Y68645162D02*
X19281101Y68549924D01*
X19281101Y68549924D02*
X19328720Y68359448D01*
X19328720Y68359448D02*
X19328720Y68026115D01*
X19328720Y68026115D02*
X19281101Y67835639D01*
X19281101Y67835639D02*
X19185863Y67740400D01*
X19185863Y67740400D02*
X19090625Y67692781D01*
X19090625Y67692781D02*
X18900149Y67692781D01*
X18900149Y67692781D02*
X18804911Y67740400D01*
X18804911Y67740400D02*
X18709673Y67835639D01*
X18709673Y67835639D02*
X18662054Y68026115D01*
X18662054Y68026115D02*
X18662054Y68359448D01*
X18662054Y68359448D02*
X18709673Y68549924D01*
X18709673Y68549924D02*
X18804911Y68645162D01*
X18804911Y68645162D02*
X18900149Y68692781D01*
X19757292Y67692781D02*
X19757292Y68692781D01*
X19757292Y68692781D02*
X20328720Y67692781D01*
X20328720Y67692781D02*
X20328720Y68692781D01*
D11*
X34288646Y6168629D02*
X34288646Y6768629D01*
X34631503Y6168629D02*
X34374360Y6511486D01*
X34631503Y6768629D02*
X34288646Y6425772D01*
D12*
X50899613Y68634562D02*
X50932946Y68701229D01*
X50932946Y68701229D02*
X50932946Y68801229D01*
X50932946Y68801229D02*
X50899613Y68901229D01*
X50899613Y68901229D02*
X50832946Y68967895D01*
X50832946Y68967895D02*
X50766280Y69001229D01*
X50766280Y69001229D02*
X50632946Y69034562D01*
X50632946Y69034562D02*
X50532946Y69034562D01*
X50532946Y69034562D02*
X50399613Y69001229D01*
X50399613Y69001229D02*
X50332946Y68967895D01*
X50332946Y68967895D02*
X50266280Y68901229D01*
X50266280Y68901229D02*
X50232946Y68801229D01*
X50232946Y68801229D02*
X50232946Y68734562D01*
X50232946Y68734562D02*
X50266280Y68634562D01*
X50266280Y68634562D02*
X50299613Y68601229D01*
X50299613Y68601229D02*
X50532946Y68601229D01*
X50532946Y68601229D02*
X50532946Y68734562D01*
X50232946Y68301229D02*
X50932946Y68301229D01*
X50932946Y68301229D02*
X50932946Y68034562D01*
X50932946Y68034562D02*
X50899613Y67967895D01*
X50899613Y67967895D02*
X50866280Y67934562D01*
X50866280Y67934562D02*
X50799613Y67901229D01*
X50799613Y67901229D02*
X50699613Y67901229D01*
X50699613Y67901229D02*
X50632946Y67934562D01*
X50632946Y67934562D02*
X50599613Y67967895D01*
X50599613Y67967895D02*
X50566280Y68034562D01*
X50566280Y68034562D02*
X50566280Y68301229D01*
X50699613Y67301229D02*
X50232946Y67301229D01*
X50966280Y67467895D02*
X50466280Y67634562D01*
X50466280Y67634562D02*
X50466280Y67201229D01*
X50699613Y66634562D02*
X50232946Y66634562D01*
X50966280Y66801228D02*
X50466280Y66967895D01*
X50466280Y66967895D02*
X50466280Y66534562D01*
D11*
X62485312Y45295010D02*
X62409122Y45333105D01*
X62409122Y45333105D02*
X62294836Y45333105D01*
X62294836Y45333105D02*
X62180550Y45295010D01*
X62180550Y45295010D02*
X62104360Y45218820D01*
X62104360Y45218820D02*
X62066265Y45142629D01*
X62066265Y45142629D02*
X62028169Y44990248D01*
X62028169Y44990248D02*
X62028169Y44875962D01*
X62028169Y44875962D02*
X62066265Y44723581D01*
X62066265Y44723581D02*
X62104360Y44647391D01*
X62104360Y44647391D02*
X62180550Y44571200D01*
X62180550Y44571200D02*
X62294836Y44533105D01*
X62294836Y44533105D02*
X62371027Y44533105D01*
X62371027Y44533105D02*
X62485312Y44571200D01*
X62485312Y44571200D02*
X62523408Y44609296D01*
X62523408Y44609296D02*
X62523408Y44875962D01*
X62523408Y44875962D02*
X62371027Y44875962D01*
X63209122Y45066439D02*
X63209122Y44533105D01*
X63018646Y45371200D02*
X62828169Y44799772D01*
X62828169Y44799772D02*
X63323408Y44799772D01*
D12*
X55949613Y68634562D02*
X55982946Y68701229D01*
X55982946Y68701229D02*
X55982946Y68801229D01*
X55982946Y68801229D02*
X55949613Y68901229D01*
X55949613Y68901229D02*
X55882946Y68967895D01*
X55882946Y68967895D02*
X55816280Y69001229D01*
X55816280Y69001229D02*
X55682946Y69034562D01*
X55682946Y69034562D02*
X55582946Y69034562D01*
X55582946Y69034562D02*
X55449613Y69001229D01*
X55449613Y69001229D02*
X55382946Y68967895D01*
X55382946Y68967895D02*
X55316280Y68901229D01*
X55316280Y68901229D02*
X55282946Y68801229D01*
X55282946Y68801229D02*
X55282946Y68734562D01*
X55282946Y68734562D02*
X55316280Y68634562D01*
X55316280Y68634562D02*
X55349613Y68601229D01*
X55349613Y68601229D02*
X55582946Y68601229D01*
X55582946Y68601229D02*
X55582946Y68734562D01*
X55282946Y68301229D02*
X55982946Y68301229D01*
X55982946Y68301229D02*
X55982946Y68034562D01*
X55982946Y68034562D02*
X55949613Y67967895D01*
X55949613Y67967895D02*
X55916280Y67934562D01*
X55916280Y67934562D02*
X55849613Y67901229D01*
X55849613Y67901229D02*
X55749613Y67901229D01*
X55749613Y67901229D02*
X55682946Y67934562D01*
X55682946Y67934562D02*
X55649613Y67967895D01*
X55649613Y67967895D02*
X55616280Y68034562D01*
X55616280Y68034562D02*
X55616280Y68301229D01*
X55749613Y67301229D02*
X55282946Y67301229D01*
X56016280Y67467895D02*
X55516280Y67634562D01*
X55516280Y67634562D02*
X55516280Y67201229D01*
X55982946Y66634562D02*
X55982946Y66767895D01*
X55982946Y66767895D02*
X55949613Y66834562D01*
X55949613Y66834562D02*
X55916280Y66867895D01*
X55916280Y66867895D02*
X55816280Y66934562D01*
X55816280Y66934562D02*
X55682946Y66967895D01*
X55682946Y66967895D02*
X55416280Y66967895D01*
X55416280Y66967895D02*
X55349613Y66934562D01*
X55349613Y66934562D02*
X55316280Y66901228D01*
X55316280Y66901228D02*
X55282946Y66834562D01*
X55282946Y66834562D02*
X55282946Y66701228D01*
X55282946Y66701228D02*
X55316280Y66634562D01*
X55316280Y66634562D02*
X55349613Y66601228D01*
X55349613Y66601228D02*
X55416280Y66567895D01*
X55416280Y66567895D02*
X55582946Y66567895D01*
X55582946Y66567895D02*
X55649613Y66601228D01*
X55649613Y66601228D02*
X55682946Y66634562D01*
X55682946Y66634562D02*
X55716280Y66701228D01*
X55716280Y66701228D02*
X55716280Y66834562D01*
X55716280Y66834562D02*
X55682946Y66901228D01*
X55682946Y66901228D02*
X55649613Y66934562D01*
X55649613Y66934562D02*
X55582946Y66967895D01*
D11*
X62485312Y40325010D02*
X62409122Y40363105D01*
X62409122Y40363105D02*
X62294836Y40363105D01*
X62294836Y40363105D02*
X62180550Y40325010D01*
X62180550Y40325010D02*
X62104360Y40248820D01*
X62104360Y40248820D02*
X62066265Y40172629D01*
X62066265Y40172629D02*
X62028169Y40020248D01*
X62028169Y40020248D02*
X62028169Y39905962D01*
X62028169Y39905962D02*
X62066265Y39753581D01*
X62066265Y39753581D02*
X62104360Y39677391D01*
X62104360Y39677391D02*
X62180550Y39601200D01*
X62180550Y39601200D02*
X62294836Y39563105D01*
X62294836Y39563105D02*
X62371027Y39563105D01*
X62371027Y39563105D02*
X62485312Y39601200D01*
X62485312Y39601200D02*
X62523408Y39639296D01*
X62523408Y39639296D02*
X62523408Y39905962D01*
X62523408Y39905962D02*
X62371027Y39905962D01*
X63247217Y40363105D02*
X62866265Y40363105D01*
X62866265Y40363105D02*
X62828169Y39982153D01*
X62828169Y39982153D02*
X62866265Y40020248D01*
X62866265Y40020248D02*
X62942455Y40058343D01*
X62942455Y40058343D02*
X63132931Y40058343D01*
X63132931Y40058343D02*
X63209122Y40020248D01*
X63209122Y40020248D02*
X63247217Y39982153D01*
X63247217Y39982153D02*
X63285312Y39905962D01*
X63285312Y39905962D02*
X63285312Y39715486D01*
X63285312Y39715486D02*
X63247217Y39639296D01*
X63247217Y39639296D02*
X63209122Y39601200D01*
X63209122Y39601200D02*
X63132931Y39563105D01*
X63132931Y39563105D02*
X62942455Y39563105D01*
X62942455Y39563105D02*
X62866265Y39601200D01*
X62866265Y39601200D02*
X62828169Y39639296D01*
D13*
X28597584Y14892883D02*
X28635680Y14854787D01*
X28635680Y14854787D02*
X28673775Y14740502D01*
X28673775Y14740502D02*
X28673775Y14664311D01*
X28673775Y14664311D02*
X28635680Y14550025D01*
X28635680Y14550025D02*
X28559489Y14473835D01*
X28559489Y14473835D02*
X28483299Y14435740D01*
X28483299Y14435740D02*
X28330918Y14397644D01*
X28330918Y14397644D02*
X28216632Y14397644D01*
X28216632Y14397644D02*
X28064251Y14435740D01*
X28064251Y14435740D02*
X27988060Y14473835D01*
X27988060Y14473835D02*
X27911870Y14550025D01*
X27911870Y14550025D02*
X27873775Y14664311D01*
X27873775Y14664311D02*
X27873775Y14740502D01*
X27873775Y14740502D02*
X27911870Y14854787D01*
X27911870Y14854787D02*
X27949965Y14892883D01*
X28635680Y15197644D02*
X28673775Y15311930D01*
X28673775Y15311930D02*
X28673775Y15502406D01*
X28673775Y15502406D02*
X28635680Y15578597D01*
X28635680Y15578597D02*
X28597584Y15616692D01*
X28597584Y15616692D02*
X28521394Y15654787D01*
X28521394Y15654787D02*
X28445203Y15654787D01*
X28445203Y15654787D02*
X28369013Y15616692D01*
X28369013Y15616692D02*
X28330918Y15578597D01*
X28330918Y15578597D02*
X28292822Y15502406D01*
X28292822Y15502406D02*
X28254727Y15350025D01*
X28254727Y15350025D02*
X28216632Y15273835D01*
X28216632Y15273835D02*
X28178537Y15235740D01*
X28178537Y15235740D02*
X28102346Y15197644D01*
X28102346Y15197644D02*
X28026156Y15197644D01*
X28026156Y15197644D02*
X27949965Y15235740D01*
X27949965Y15235740D02*
X27911870Y15273835D01*
X27911870Y15273835D02*
X27873775Y15350025D01*
X27873775Y15350025D02*
X27873775Y15540502D01*
X27873775Y15540502D02*
X27911870Y15654787D01*
X30433775Y14409549D02*
X30433775Y14904787D01*
X30433775Y14904787D02*
X30738537Y14638121D01*
X30738537Y14638121D02*
X30738537Y14752406D01*
X30738537Y14752406D02*
X30776632Y14828597D01*
X30776632Y14828597D02*
X30814727Y14866692D01*
X30814727Y14866692D02*
X30890918Y14904787D01*
X30890918Y14904787D02*
X31081394Y14904787D01*
X31081394Y14904787D02*
X31157584Y14866692D01*
X31157584Y14866692D02*
X31195680Y14828597D01*
X31195680Y14828597D02*
X31233775Y14752406D01*
X31233775Y14752406D02*
X31233775Y14523835D01*
X31233775Y14523835D02*
X31195680Y14447644D01*
X31195680Y14447644D02*
X31157584Y14409549D01*
X31157584Y15247645D02*
X31195680Y15285740D01*
X31195680Y15285740D02*
X31233775Y15247645D01*
X31233775Y15247645D02*
X31195680Y15209549D01*
X31195680Y15209549D02*
X31157584Y15247645D01*
X31157584Y15247645D02*
X31233775Y15247645D01*
X30433775Y15552406D02*
X30433775Y16047644D01*
X30433775Y16047644D02*
X30738537Y15780978D01*
X30738537Y15780978D02*
X30738537Y15895263D01*
X30738537Y15895263D02*
X30776632Y15971454D01*
X30776632Y15971454D02*
X30814727Y16009549D01*
X30814727Y16009549D02*
X30890918Y16047644D01*
X30890918Y16047644D02*
X31081394Y16047644D01*
X31081394Y16047644D02*
X31157584Y16009549D01*
X31157584Y16009549D02*
X31195680Y15971454D01*
X31195680Y15971454D02*
X31233775Y15895263D01*
X31233775Y15895263D02*
X31233775Y15666692D01*
X31233775Y15666692D02*
X31195680Y15590501D01*
X31195680Y15590501D02*
X31157584Y15552406D01*
X30433775Y16276216D02*
X31233775Y16542883D01*
X31233775Y16542883D02*
X30433775Y16809549D01*
D11*
X92475312Y57995010D02*
X92399122Y58033105D01*
X92399122Y58033105D02*
X92284836Y58033105D01*
X92284836Y58033105D02*
X92170550Y57995010D01*
X92170550Y57995010D02*
X92094360Y57918820D01*
X92094360Y57918820D02*
X92056265Y57842629D01*
X92056265Y57842629D02*
X92018169Y57690248D01*
X92018169Y57690248D02*
X92018169Y57575962D01*
X92018169Y57575962D02*
X92056265Y57423581D01*
X92056265Y57423581D02*
X92094360Y57347391D01*
X92094360Y57347391D02*
X92170550Y57271200D01*
X92170550Y57271200D02*
X92284836Y57233105D01*
X92284836Y57233105D02*
X92361027Y57233105D01*
X92361027Y57233105D02*
X92475312Y57271200D01*
X92475312Y57271200D02*
X92513408Y57309296D01*
X92513408Y57309296D02*
X92513408Y57575962D01*
X92513408Y57575962D02*
X92361027Y57575962D01*
X92894360Y57233105D02*
X93046741Y57233105D01*
X93046741Y57233105D02*
X93122931Y57271200D01*
X93122931Y57271200D02*
X93161027Y57309296D01*
X93161027Y57309296D02*
X93237217Y57423581D01*
X93237217Y57423581D02*
X93275312Y57575962D01*
X93275312Y57575962D02*
X93275312Y57880724D01*
X93275312Y57880724D02*
X93237217Y57956915D01*
X93237217Y57956915D02*
X93199122Y57995010D01*
X93199122Y57995010D02*
X93122931Y58033105D01*
X93122931Y58033105D02*
X92970550Y58033105D01*
X92970550Y58033105D02*
X92894360Y57995010D01*
X92894360Y57995010D02*
X92856265Y57956915D01*
X92856265Y57956915D02*
X92818169Y57880724D01*
X92818169Y57880724D02*
X92818169Y57690248D01*
X92818169Y57690248D02*
X92856265Y57614058D01*
X92856265Y57614058D02*
X92894360Y57575962D01*
X92894360Y57575962D02*
X92970550Y57537867D01*
X92970550Y57537867D02*
X93122931Y57537867D01*
X93122931Y57537867D02*
X93199122Y57575962D01*
X93199122Y57575962D02*
X93237217Y57614058D01*
X93237217Y57614058D02*
X93275312Y57690248D01*
D14*
X9476779Y12360125D02*
X9476779Y13360125D01*
X9476779Y13360125D02*
X9810112Y12645840D01*
X9810112Y12645840D02*
X10143445Y13360125D01*
X10143445Y13360125D02*
X10143445Y12360125D01*
X10619636Y12360125D02*
X10619636Y13026792D01*
X10619636Y13360125D02*
X10572017Y13312506D01*
X10572017Y13312506D02*
X10619636Y13264887D01*
X10619636Y13264887D02*
X10667255Y13312506D01*
X10667255Y13312506D02*
X10619636Y13360125D01*
X10619636Y13360125D02*
X10619636Y13264887D01*
X11524397Y12407744D02*
X11429159Y12360125D01*
X11429159Y12360125D02*
X11238683Y12360125D01*
X11238683Y12360125D02*
X11143445Y12407744D01*
X11143445Y12407744D02*
X11095826Y12455364D01*
X11095826Y12455364D02*
X11048207Y12550602D01*
X11048207Y12550602D02*
X11048207Y12836316D01*
X11048207Y12836316D02*
X11095826Y12931554D01*
X11095826Y12931554D02*
X11143445Y12979173D01*
X11143445Y12979173D02*
X11238683Y13026792D01*
X11238683Y13026792D02*
X11429159Y13026792D01*
X11429159Y13026792D02*
X11524397Y12979173D01*
X11952969Y12360125D02*
X11952969Y13026792D01*
X11952969Y12836316D02*
X12000588Y12931554D01*
X12000588Y12931554D02*
X12048207Y12979173D01*
X12048207Y12979173D02*
X12143445Y13026792D01*
X12143445Y13026792D02*
X12238683Y13026792D01*
X12714874Y12360125D02*
X12619636Y12407744D01*
X12619636Y12407744D02*
X12572017Y12455364D01*
X12572017Y12455364D02*
X12524398Y12550602D01*
X12524398Y12550602D02*
X12524398Y12836316D01*
X12524398Y12836316D02*
X12572017Y12931554D01*
X12572017Y12931554D02*
X12619636Y12979173D01*
X12619636Y12979173D02*
X12714874Y13026792D01*
X12714874Y13026792D02*
X12857731Y13026792D01*
X12857731Y13026792D02*
X12952969Y12979173D01*
X12952969Y12979173D02*
X13000588Y12931554D01*
X13000588Y12931554D02*
X13048207Y12836316D01*
X13048207Y12836316D02*
X13048207Y12550602D01*
X13048207Y12550602D02*
X13000588Y12455364D01*
X13000588Y12455364D02*
X12952969Y12407744D01*
X12952969Y12407744D02*
X12857731Y12360125D01*
X12857731Y12360125D02*
X12714874Y12360125D01*
X14191065Y12407744D02*
X14333922Y12360125D01*
X14333922Y12360125D02*
X14572017Y12360125D01*
X14572017Y12360125D02*
X14667255Y12407744D01*
X14667255Y12407744D02*
X14714874Y12455364D01*
X14714874Y12455364D02*
X14762493Y12550602D01*
X14762493Y12550602D02*
X14762493Y12645840D01*
X14762493Y12645840D02*
X14714874Y12741078D01*
X14714874Y12741078D02*
X14667255Y12788697D01*
X14667255Y12788697D02*
X14572017Y12836316D01*
X14572017Y12836316D02*
X14381541Y12883935D01*
X14381541Y12883935D02*
X14286303Y12931554D01*
X14286303Y12931554D02*
X14238684Y12979173D01*
X14238684Y12979173D02*
X14191065Y13074411D01*
X14191065Y13074411D02*
X14191065Y13169649D01*
X14191065Y13169649D02*
X14238684Y13264887D01*
X14238684Y13264887D02*
X14286303Y13312506D01*
X14286303Y13312506D02*
X14381541Y13360125D01*
X14381541Y13360125D02*
X14619636Y13360125D01*
X14619636Y13360125D02*
X14762493Y13312506D01*
X15191065Y12360125D02*
X15191065Y13360125D01*
X15191065Y13360125D02*
X15429160Y13360125D01*
X15429160Y13360125D02*
X15572017Y13312506D01*
X15572017Y13312506D02*
X15667255Y13217268D01*
X15667255Y13217268D02*
X15714874Y13122030D01*
X15714874Y13122030D02*
X15762493Y12931554D01*
X15762493Y12931554D02*
X15762493Y12788697D01*
X15762493Y12788697D02*
X15714874Y12598221D01*
X15714874Y12598221D02*
X15667255Y12502983D01*
X15667255Y12502983D02*
X15572017Y12407744D01*
X15572017Y12407744D02*
X15429160Y12360125D01*
X15429160Y12360125D02*
X15191065Y12360125D01*
X10524398Y10369229D02*
X10476779Y10416848D01*
X10476779Y10416848D02*
X10381541Y10559705D01*
X10381541Y10559705D02*
X10333922Y10654943D01*
X10333922Y10654943D02*
X10286303Y10797800D01*
X10286303Y10797800D02*
X10238684Y11035896D01*
X10238684Y11035896D02*
X10238684Y11226372D01*
X10238684Y11226372D02*
X10286303Y11464467D01*
X10286303Y11464467D02*
X10333922Y11607324D01*
X10333922Y11607324D02*
X10381541Y11702562D01*
X10381541Y11702562D02*
X10476779Y11845420D01*
X10476779Y11845420D02*
X10524398Y11893039D01*
X10857732Y10797800D02*
X11000589Y10750181D01*
X11000589Y10750181D02*
X11238684Y10750181D01*
X11238684Y10750181D02*
X11333922Y10797800D01*
X11333922Y10797800D02*
X11381541Y10845420D01*
X11381541Y10845420D02*
X11429160Y10940658D01*
X11429160Y10940658D02*
X11429160Y11035896D01*
X11429160Y11035896D02*
X11381541Y11131134D01*
X11381541Y11131134D02*
X11333922Y11178753D01*
X11333922Y11178753D02*
X11238684Y11226372D01*
X11238684Y11226372D02*
X11048208Y11273991D01*
X11048208Y11273991D02*
X10952970Y11321610D01*
X10952970Y11321610D02*
X10905351Y11369229D01*
X10905351Y11369229D02*
X10857732Y11464467D01*
X10857732Y11464467D02*
X10857732Y11559705D01*
X10857732Y11559705D02*
X10905351Y11654943D01*
X10905351Y11654943D02*
X10952970Y11702562D01*
X10952970Y11702562D02*
X11048208Y11750181D01*
X11048208Y11750181D02*
X11286303Y11750181D01*
X11286303Y11750181D02*
X11429160Y11702562D01*
X11857732Y10750181D02*
X11857732Y11750181D01*
X11857732Y11750181D02*
X12238684Y11750181D01*
X12238684Y11750181D02*
X12333922Y11702562D01*
X12333922Y11702562D02*
X12381541Y11654943D01*
X12381541Y11654943D02*
X12429160Y11559705D01*
X12429160Y11559705D02*
X12429160Y11416848D01*
X12429160Y11416848D02*
X12381541Y11321610D01*
X12381541Y11321610D02*
X12333922Y11273991D01*
X12333922Y11273991D02*
X12238684Y11226372D01*
X12238684Y11226372D02*
X11857732Y11226372D01*
X12857732Y10750181D02*
X12857732Y11750181D01*
X13238684Y10369229D02*
X13286303Y10416848D01*
X13286303Y10416848D02*
X13381541Y10559705D01*
X13381541Y10559705D02*
X13429160Y10654943D01*
X13429160Y10654943D02*
X13476779Y10797800D01*
X13476779Y10797800D02*
X13524398Y11035896D01*
X13524398Y11035896D02*
X13524398Y11226372D01*
X13524398Y11226372D02*
X13476779Y11464467D01*
X13476779Y11464467D02*
X13429160Y11607324D01*
X13429160Y11607324D02*
X13381541Y11702562D01*
X13381541Y11702562D02*
X13286303Y11845420D01*
X13286303Y11845420D02*
X13238684Y11893039D01*
D11*
X25233884Y55527581D02*
X25233884Y54718058D01*
X25233884Y54718058D02*
X25281503Y54622820D01*
X25281503Y54622820D02*
X25329122Y54575200D01*
X25329122Y54575200D02*
X25424360Y54527581D01*
X25424360Y54527581D02*
X25614836Y54527581D01*
X25614836Y54527581D02*
X25710074Y54575200D01*
X25710074Y54575200D02*
X25757693Y54622820D01*
X25757693Y54622820D02*
X25805312Y54718058D01*
X25805312Y54718058D02*
X25805312Y55527581D01*
X26233884Y54575200D02*
X26376741Y54527581D01*
X26376741Y54527581D02*
X26614836Y54527581D01*
X26614836Y54527581D02*
X26710074Y54575200D01*
X26710074Y54575200D02*
X26757693Y54622820D01*
X26757693Y54622820D02*
X26805312Y54718058D01*
X26805312Y54718058D02*
X26805312Y54813296D01*
X26805312Y54813296D02*
X26757693Y54908534D01*
X26757693Y54908534D02*
X26710074Y54956153D01*
X26710074Y54956153D02*
X26614836Y55003772D01*
X26614836Y55003772D02*
X26424360Y55051391D01*
X26424360Y55051391D02*
X26329122Y55099010D01*
X26329122Y55099010D02*
X26281503Y55146629D01*
X26281503Y55146629D02*
X26233884Y55241867D01*
X26233884Y55241867D02*
X26233884Y55337105D01*
X26233884Y55337105D02*
X26281503Y55432343D01*
X26281503Y55432343D02*
X26329122Y55479962D01*
X26329122Y55479962D02*
X26424360Y55527581D01*
X26424360Y55527581D02*
X26662455Y55527581D01*
X26662455Y55527581D02*
X26805312Y55479962D01*
X27567217Y55051391D02*
X27710074Y55003772D01*
X27710074Y55003772D02*
X27757693Y54956153D01*
X27757693Y54956153D02*
X27805312Y54860915D01*
X27805312Y54860915D02*
X27805312Y54718058D01*
X27805312Y54718058D02*
X27757693Y54622820D01*
X27757693Y54622820D02*
X27710074Y54575200D01*
X27710074Y54575200D02*
X27614836Y54527581D01*
X27614836Y54527581D02*
X27233884Y54527581D01*
X27233884Y54527581D02*
X27233884Y55527581D01*
X27233884Y55527581D02*
X27567217Y55527581D01*
X27567217Y55527581D02*
X27662455Y55479962D01*
X27662455Y55479962D02*
X27710074Y55432343D01*
X27710074Y55432343D02*
X27757693Y55337105D01*
X27757693Y55337105D02*
X27757693Y55241867D01*
X27757693Y55241867D02*
X27710074Y55146629D01*
X27710074Y55146629D02*
X27662455Y55099010D01*
X27662455Y55099010D02*
X27567217Y55051391D01*
X27567217Y55051391D02*
X27233884Y55051391D01*
X92525312Y27675010D02*
X92449122Y27713105D01*
X92449122Y27713105D02*
X92334836Y27713105D01*
X92334836Y27713105D02*
X92220550Y27675010D01*
X92220550Y27675010D02*
X92144360Y27598820D01*
X92144360Y27598820D02*
X92106265Y27522629D01*
X92106265Y27522629D02*
X92068169Y27370248D01*
X92068169Y27370248D02*
X92068169Y27255962D01*
X92068169Y27255962D02*
X92106265Y27103581D01*
X92106265Y27103581D02*
X92144360Y27027391D01*
X92144360Y27027391D02*
X92220550Y26951200D01*
X92220550Y26951200D02*
X92334836Y26913105D01*
X92334836Y26913105D02*
X92411027Y26913105D01*
X92411027Y26913105D02*
X92525312Y26951200D01*
X92525312Y26951200D02*
X92563408Y26989296D01*
X92563408Y26989296D02*
X92563408Y27255962D01*
X92563408Y27255962D02*
X92411027Y27255962D01*
X93249122Y27446439D02*
X93249122Y26913105D01*
X93058646Y27751200D02*
X92868169Y27179772D01*
X92868169Y27179772D02*
X93363408Y27179772D01*
X93820551Y27713105D02*
X93896741Y27713105D01*
X93896741Y27713105D02*
X93972932Y27675010D01*
X93972932Y27675010D02*
X94011027Y27636915D01*
X94011027Y27636915D02*
X94049122Y27560724D01*
X94049122Y27560724D02*
X94087217Y27408343D01*
X94087217Y27408343D02*
X94087217Y27217867D01*
X94087217Y27217867D02*
X94049122Y27065486D01*
X94049122Y27065486D02*
X94011027Y26989296D01*
X94011027Y26989296D02*
X93972932Y26951200D01*
X93972932Y26951200D02*
X93896741Y26913105D01*
X93896741Y26913105D02*
X93820551Y26913105D01*
X93820551Y26913105D02*
X93744360Y26951200D01*
X93744360Y26951200D02*
X93706265Y26989296D01*
X93706265Y26989296D02*
X93668170Y27065486D01*
X93668170Y27065486D02*
X93630074Y27217867D01*
X93630074Y27217867D02*
X93630074Y27408343D01*
X93630074Y27408343D02*
X93668170Y27560724D01*
X93668170Y27560724D02*
X93706265Y27636915D01*
X93706265Y27636915D02*
X93744360Y27675010D01*
X93744360Y27675010D02*
X93820551Y27713105D01*
X39870074Y6370058D02*
X40155789Y6370058D01*
X39812931Y6198629D02*
X40012931Y6798629D01*
X40012931Y6798629D02*
X40212931Y6198629D01*
X92495312Y22575010D02*
X92419122Y22613105D01*
X92419122Y22613105D02*
X92304836Y22613105D01*
X92304836Y22613105D02*
X92190550Y22575010D01*
X92190550Y22575010D02*
X92114360Y22498820D01*
X92114360Y22498820D02*
X92076265Y22422629D01*
X92076265Y22422629D02*
X92038169Y22270248D01*
X92038169Y22270248D02*
X92038169Y22155962D01*
X92038169Y22155962D02*
X92076265Y22003581D01*
X92076265Y22003581D02*
X92114360Y21927391D01*
X92114360Y21927391D02*
X92190550Y21851200D01*
X92190550Y21851200D02*
X92304836Y21813105D01*
X92304836Y21813105D02*
X92381027Y21813105D01*
X92381027Y21813105D02*
X92495312Y21851200D01*
X92495312Y21851200D02*
X92533408Y21889296D01*
X92533408Y21889296D02*
X92533408Y22155962D01*
X92533408Y22155962D02*
X92381027Y22155962D01*
X92800074Y22613105D02*
X93295312Y22613105D01*
X93295312Y22613105D02*
X93028646Y22308343D01*
X93028646Y22308343D02*
X93142931Y22308343D01*
X93142931Y22308343D02*
X93219122Y22270248D01*
X93219122Y22270248D02*
X93257217Y22232153D01*
X93257217Y22232153D02*
X93295312Y22155962D01*
X93295312Y22155962D02*
X93295312Y21965486D01*
X93295312Y21965486D02*
X93257217Y21889296D01*
X93257217Y21889296D02*
X93219122Y21851200D01*
X93219122Y21851200D02*
X93142931Y21813105D01*
X93142931Y21813105D02*
X92914360Y21813105D01*
X92914360Y21813105D02*
X92838169Y21851200D01*
X92838169Y21851200D02*
X92800074Y21889296D01*
X93676265Y21813105D02*
X93828646Y21813105D01*
X93828646Y21813105D02*
X93904836Y21851200D01*
X93904836Y21851200D02*
X93942932Y21889296D01*
X93942932Y21889296D02*
X94019122Y22003581D01*
X94019122Y22003581D02*
X94057217Y22155962D01*
X94057217Y22155962D02*
X94057217Y22460724D01*
X94057217Y22460724D02*
X94019122Y22536915D01*
X94019122Y22536915D02*
X93981027Y22575010D01*
X93981027Y22575010D02*
X93904836Y22613105D01*
X93904836Y22613105D02*
X93752455Y22613105D01*
X93752455Y22613105D02*
X93676265Y22575010D01*
X93676265Y22575010D02*
X93638170Y22536915D01*
X93638170Y22536915D02*
X93600074Y22460724D01*
X93600074Y22460724D02*
X93600074Y22270248D01*
X93600074Y22270248D02*
X93638170Y22194058D01*
X93638170Y22194058D02*
X93676265Y22155962D01*
X93676265Y22155962D02*
X93752455Y22117867D01*
X93752455Y22117867D02*
X93904836Y22117867D01*
X93904836Y22117867D02*
X93981027Y22155962D01*
X93981027Y22155962D02*
X94019122Y22194058D01*
X94019122Y22194058D02*
X94057217Y22270248D01*
X92555312Y35255010D02*
X92479122Y35293105D01*
X92479122Y35293105D02*
X92364836Y35293105D01*
X92364836Y35293105D02*
X92250550Y35255010D01*
X92250550Y35255010D02*
X92174360Y35178820D01*
X92174360Y35178820D02*
X92136265Y35102629D01*
X92136265Y35102629D02*
X92098169Y34950248D01*
X92098169Y34950248D02*
X92098169Y34835962D01*
X92098169Y34835962D02*
X92136265Y34683581D01*
X92136265Y34683581D02*
X92174360Y34607391D01*
X92174360Y34607391D02*
X92250550Y34531200D01*
X92250550Y34531200D02*
X92364836Y34493105D01*
X92364836Y34493105D02*
X92441027Y34493105D01*
X92441027Y34493105D02*
X92555312Y34531200D01*
X92555312Y34531200D02*
X92593408Y34569296D01*
X92593408Y34569296D02*
X92593408Y34835962D01*
X92593408Y34835962D02*
X92441027Y34835962D01*
X92860074Y35293105D02*
X93355312Y35293105D01*
X93355312Y35293105D02*
X93088646Y34988343D01*
X93088646Y34988343D02*
X93202931Y34988343D01*
X93202931Y34988343D02*
X93279122Y34950248D01*
X93279122Y34950248D02*
X93317217Y34912153D01*
X93317217Y34912153D02*
X93355312Y34835962D01*
X93355312Y34835962D02*
X93355312Y34645486D01*
X93355312Y34645486D02*
X93317217Y34569296D01*
X93317217Y34569296D02*
X93279122Y34531200D01*
X93279122Y34531200D02*
X93202931Y34493105D01*
X93202931Y34493105D02*
X92974360Y34493105D01*
X92974360Y34493105D02*
X92898169Y34531200D01*
X92898169Y34531200D02*
X92860074Y34569296D01*
X93850551Y35293105D02*
X93926741Y35293105D01*
X93926741Y35293105D02*
X94002932Y35255010D01*
X94002932Y35255010D02*
X94041027Y35216915D01*
X94041027Y35216915D02*
X94079122Y35140724D01*
X94079122Y35140724D02*
X94117217Y34988343D01*
X94117217Y34988343D02*
X94117217Y34797867D01*
X94117217Y34797867D02*
X94079122Y34645486D01*
X94079122Y34645486D02*
X94041027Y34569296D01*
X94041027Y34569296D02*
X94002932Y34531200D01*
X94002932Y34531200D02*
X93926741Y34493105D01*
X93926741Y34493105D02*
X93850551Y34493105D01*
X93850551Y34493105D02*
X93774360Y34531200D01*
X93774360Y34531200D02*
X93736265Y34569296D01*
X93736265Y34569296D02*
X93698170Y34645486D01*
X93698170Y34645486D02*
X93660074Y34797867D01*
X93660074Y34797867D02*
X93660074Y34988343D01*
X93660074Y34988343D02*
X93698170Y35140724D01*
X93698170Y35140724D02*
X93736265Y35216915D01*
X93736265Y35216915D02*
X93774360Y35255010D01*
X93774360Y35255010D02*
X93850551Y35293105D01*
X62675312Y27605010D02*
X62599122Y27643105D01*
X62599122Y27643105D02*
X62484836Y27643105D01*
X62484836Y27643105D02*
X62370550Y27605010D01*
X62370550Y27605010D02*
X62294360Y27528820D01*
X62294360Y27528820D02*
X62256265Y27452629D01*
X62256265Y27452629D02*
X62218169Y27300248D01*
X62218169Y27300248D02*
X62218169Y27185962D01*
X62218169Y27185962D02*
X62256265Y27033581D01*
X62256265Y27033581D02*
X62294360Y26957391D01*
X62294360Y26957391D02*
X62370550Y26881200D01*
X62370550Y26881200D02*
X62484836Y26843105D01*
X62484836Y26843105D02*
X62561027Y26843105D01*
X62561027Y26843105D02*
X62675312Y26881200D01*
X62675312Y26881200D02*
X62713408Y26919296D01*
X62713408Y26919296D02*
X62713408Y27185962D01*
X62713408Y27185962D02*
X62561027Y27185962D01*
X63208646Y27643105D02*
X63284836Y27643105D01*
X63284836Y27643105D02*
X63361027Y27605010D01*
X63361027Y27605010D02*
X63399122Y27566915D01*
X63399122Y27566915D02*
X63437217Y27490724D01*
X63437217Y27490724D02*
X63475312Y27338343D01*
X63475312Y27338343D02*
X63475312Y27147867D01*
X63475312Y27147867D02*
X63437217Y26995486D01*
X63437217Y26995486D02*
X63399122Y26919296D01*
X63399122Y26919296D02*
X63361027Y26881200D01*
X63361027Y26881200D02*
X63284836Y26843105D01*
X63284836Y26843105D02*
X63208646Y26843105D01*
X63208646Y26843105D02*
X63132455Y26881200D01*
X63132455Y26881200D02*
X63094360Y26919296D01*
X63094360Y26919296D02*
X63056265Y26995486D01*
X63056265Y26995486D02*
X63018169Y27147867D01*
X63018169Y27147867D02*
X63018169Y27338343D01*
X63018169Y27338343D02*
X63056265Y27490724D01*
X63056265Y27490724D02*
X63094360Y27566915D01*
X63094360Y27566915D02*
X63132455Y27605010D01*
X63132455Y27605010D02*
X63208646Y27643105D01*
D12*
X45819613Y68634562D02*
X45852946Y68701229D01*
X45852946Y68701229D02*
X45852946Y68801229D01*
X45852946Y68801229D02*
X45819613Y68901229D01*
X45819613Y68901229D02*
X45752946Y68967895D01*
X45752946Y68967895D02*
X45686280Y69001229D01*
X45686280Y69001229D02*
X45552946Y69034562D01*
X45552946Y69034562D02*
X45452946Y69034562D01*
X45452946Y69034562D02*
X45319613Y69001229D01*
X45319613Y69001229D02*
X45252946Y68967895D01*
X45252946Y68967895D02*
X45186280Y68901229D01*
X45186280Y68901229D02*
X45152946Y68801229D01*
X45152946Y68801229D02*
X45152946Y68734562D01*
X45152946Y68734562D02*
X45186280Y68634562D01*
X45186280Y68634562D02*
X45219613Y68601229D01*
X45219613Y68601229D02*
X45452946Y68601229D01*
X45452946Y68601229D02*
X45452946Y68734562D01*
X45152946Y68301229D02*
X45852946Y68301229D01*
X45852946Y68301229D02*
X45852946Y68034562D01*
X45852946Y68034562D02*
X45819613Y67967895D01*
X45819613Y67967895D02*
X45786280Y67934562D01*
X45786280Y67934562D02*
X45719613Y67901229D01*
X45719613Y67901229D02*
X45619613Y67901229D01*
X45619613Y67901229D02*
X45552946Y67934562D01*
X45552946Y67934562D02*
X45519613Y67967895D01*
X45519613Y67967895D02*
X45486280Y68034562D01*
X45486280Y68034562D02*
X45486280Y68301229D01*
X45786280Y67634562D02*
X45819613Y67601229D01*
X45819613Y67601229D02*
X45852946Y67534562D01*
X45852946Y67534562D02*
X45852946Y67367895D01*
X45852946Y67367895D02*
X45819613Y67301229D01*
X45819613Y67301229D02*
X45786280Y67267895D01*
X45786280Y67267895D02*
X45719613Y67234562D01*
X45719613Y67234562D02*
X45652946Y67234562D01*
X45652946Y67234562D02*
X45552946Y67267895D01*
X45552946Y67267895D02*
X45152946Y67667895D01*
X45152946Y67667895D02*
X45152946Y67234562D01*
X45852946Y67001228D02*
X45852946Y66567895D01*
X45852946Y66567895D02*
X45586280Y66801228D01*
X45586280Y66801228D02*
X45586280Y66701228D01*
X45586280Y66701228D02*
X45552946Y66634562D01*
X45552946Y66634562D02*
X45519613Y66601228D01*
X45519613Y66601228D02*
X45452946Y66567895D01*
X45452946Y66567895D02*
X45286280Y66567895D01*
X45286280Y66567895D02*
X45219613Y66601228D01*
X45219613Y66601228D02*
X45186280Y66634562D01*
X45186280Y66634562D02*
X45152946Y66701228D01*
X45152946Y66701228D02*
X45152946Y66901228D01*
X45152946Y66901228D02*
X45186280Y66967895D01*
X45186280Y66967895D02*
X45219613Y67001228D01*
D11*
X62625312Y30075010D02*
X62549122Y30113105D01*
X62549122Y30113105D02*
X62434836Y30113105D01*
X62434836Y30113105D02*
X62320550Y30075010D01*
X62320550Y30075010D02*
X62244360Y29998820D01*
X62244360Y29998820D02*
X62206265Y29922629D01*
X62206265Y29922629D02*
X62168169Y29770248D01*
X62168169Y29770248D02*
X62168169Y29655962D01*
X62168169Y29655962D02*
X62206265Y29503581D01*
X62206265Y29503581D02*
X62244360Y29427391D01*
X62244360Y29427391D02*
X62320550Y29351200D01*
X62320550Y29351200D02*
X62434836Y29313105D01*
X62434836Y29313105D02*
X62511027Y29313105D01*
X62511027Y29313105D02*
X62625312Y29351200D01*
X62625312Y29351200D02*
X62663408Y29389296D01*
X62663408Y29389296D02*
X62663408Y29655962D01*
X62663408Y29655962D02*
X62511027Y29655962D01*
X62930074Y30113105D02*
X63463408Y30113105D01*
X63463408Y30113105D02*
X63120550Y29313105D01*
X61835312Y60605010D02*
X61759122Y60643105D01*
X61759122Y60643105D02*
X61644836Y60643105D01*
X61644836Y60643105D02*
X61530550Y60605010D01*
X61530550Y60605010D02*
X61454360Y60528820D01*
X61454360Y60528820D02*
X61416265Y60452629D01*
X61416265Y60452629D02*
X61378169Y60300248D01*
X61378169Y60300248D02*
X61378169Y60185962D01*
X61378169Y60185962D02*
X61416265Y60033581D01*
X61416265Y60033581D02*
X61454360Y59957391D01*
X61454360Y59957391D02*
X61530550Y59881200D01*
X61530550Y59881200D02*
X61644836Y59843105D01*
X61644836Y59843105D02*
X61721027Y59843105D01*
X61721027Y59843105D02*
X61835312Y59881200D01*
X61835312Y59881200D02*
X61873408Y59919296D01*
X61873408Y59919296D02*
X61873408Y60185962D01*
X61873408Y60185962D02*
X61721027Y60185962D01*
X62635312Y59843105D02*
X62178169Y59843105D01*
X62406741Y59843105D02*
X62406741Y60643105D01*
X62406741Y60643105D02*
X62330550Y60528820D01*
X62330550Y60528820D02*
X62254360Y60452629D01*
X62254360Y60452629D02*
X62178169Y60414534D01*
X63397217Y59843105D02*
X62940074Y59843105D01*
X63168646Y59843105D02*
X63168646Y60643105D01*
X63168646Y60643105D02*
X63092455Y60528820D01*
X63092455Y60528820D02*
X63016265Y60452629D01*
X63016265Y60452629D02*
X62940074Y60414534D01*
X92545312Y30185010D02*
X92469122Y30223105D01*
X92469122Y30223105D02*
X92354836Y30223105D01*
X92354836Y30223105D02*
X92240550Y30185010D01*
X92240550Y30185010D02*
X92164360Y30108820D01*
X92164360Y30108820D02*
X92126265Y30032629D01*
X92126265Y30032629D02*
X92088169Y29880248D01*
X92088169Y29880248D02*
X92088169Y29765962D01*
X92088169Y29765962D02*
X92126265Y29613581D01*
X92126265Y29613581D02*
X92164360Y29537391D01*
X92164360Y29537391D02*
X92240550Y29461200D01*
X92240550Y29461200D02*
X92354836Y29423105D01*
X92354836Y29423105D02*
X92431027Y29423105D01*
X92431027Y29423105D02*
X92545312Y29461200D01*
X92545312Y29461200D02*
X92583408Y29499296D01*
X92583408Y29499296D02*
X92583408Y29765962D01*
X92583408Y29765962D02*
X92431027Y29765962D01*
X92888169Y30146915D02*
X92926265Y30185010D01*
X92926265Y30185010D02*
X93002455Y30223105D01*
X93002455Y30223105D02*
X93192931Y30223105D01*
X93192931Y30223105D02*
X93269122Y30185010D01*
X93269122Y30185010D02*
X93307217Y30146915D01*
X93307217Y30146915D02*
X93345312Y30070724D01*
X93345312Y30070724D02*
X93345312Y29994534D01*
X93345312Y29994534D02*
X93307217Y29880248D01*
X93307217Y29880248D02*
X92850074Y29423105D01*
X92850074Y29423105D02*
X93345312Y29423105D01*
X94031027Y30223105D02*
X93878646Y30223105D01*
X93878646Y30223105D02*
X93802455Y30185010D01*
X93802455Y30185010D02*
X93764360Y30146915D01*
X93764360Y30146915D02*
X93688170Y30032629D01*
X93688170Y30032629D02*
X93650074Y29880248D01*
X93650074Y29880248D02*
X93650074Y29575486D01*
X93650074Y29575486D02*
X93688170Y29499296D01*
X93688170Y29499296D02*
X93726265Y29461200D01*
X93726265Y29461200D02*
X93802455Y29423105D01*
X93802455Y29423105D02*
X93954836Y29423105D01*
X93954836Y29423105D02*
X94031027Y29461200D01*
X94031027Y29461200D02*
X94069122Y29499296D01*
X94069122Y29499296D02*
X94107217Y29575486D01*
X94107217Y29575486D02*
X94107217Y29765962D01*
X94107217Y29765962D02*
X94069122Y29842153D01*
X94069122Y29842153D02*
X94031027Y29880248D01*
X94031027Y29880248D02*
X93954836Y29918343D01*
X93954836Y29918343D02*
X93802455Y29918343D01*
X93802455Y29918343D02*
X93726265Y29880248D01*
X93726265Y29880248D02*
X93688170Y29842153D01*
X93688170Y29842153D02*
X93650074Y29765962D01*
X46614990Y6205313D02*
X46576895Y6129123D01*
X46576895Y6129123D02*
X46576895Y6014837D01*
X46576895Y6014837D02*
X46614990Y5900551D01*
X46614990Y5900551D02*
X46691180Y5824361D01*
X46691180Y5824361D02*
X46767371Y5786266D01*
X46767371Y5786266D02*
X46919752Y5748170D01*
X46919752Y5748170D02*
X47034038Y5748170D01*
X47034038Y5748170D02*
X47186419Y5786266D01*
X47186419Y5786266D02*
X47262609Y5824361D01*
X47262609Y5824361D02*
X47338800Y5900551D01*
X47338800Y5900551D02*
X47376895Y6014837D01*
X47376895Y6014837D02*
X47376895Y6091028D01*
X47376895Y6091028D02*
X47338800Y6205313D01*
X47338800Y6205313D02*
X47300704Y6243409D01*
X47300704Y6243409D02*
X47034038Y6243409D01*
X47034038Y6243409D02*
X47034038Y6091028D01*
X46843561Y6929123D02*
X47376895Y6929123D01*
X46538800Y6738647D02*
X47110228Y6548170D01*
X47110228Y6548170D02*
X47110228Y7043409D01*
X46653085Y7310075D02*
X46614990Y7348171D01*
X46614990Y7348171D02*
X46576895Y7424361D01*
X46576895Y7424361D02*
X46576895Y7614837D01*
X46576895Y7614837D02*
X46614990Y7691028D01*
X46614990Y7691028D02*
X46653085Y7729123D01*
X46653085Y7729123D02*
X46729276Y7767218D01*
X46729276Y7767218D02*
X46805466Y7767218D01*
X46805466Y7767218D02*
X46919752Y7729123D01*
X46919752Y7729123D02*
X47376895Y7271980D01*
X47376895Y7271980D02*
X47376895Y7767218D01*
X62515312Y42825010D02*
X62439122Y42863105D01*
X62439122Y42863105D02*
X62324836Y42863105D01*
X62324836Y42863105D02*
X62210550Y42825010D01*
X62210550Y42825010D02*
X62134360Y42748820D01*
X62134360Y42748820D02*
X62096265Y42672629D01*
X62096265Y42672629D02*
X62058169Y42520248D01*
X62058169Y42520248D02*
X62058169Y42405962D01*
X62058169Y42405962D02*
X62096265Y42253581D01*
X62096265Y42253581D02*
X62134360Y42177391D01*
X62134360Y42177391D02*
X62210550Y42101200D01*
X62210550Y42101200D02*
X62324836Y42063105D01*
X62324836Y42063105D02*
X62401027Y42063105D01*
X62401027Y42063105D02*
X62515312Y42101200D01*
X62515312Y42101200D02*
X62553408Y42139296D01*
X62553408Y42139296D02*
X62553408Y42405962D01*
X62553408Y42405962D02*
X62401027Y42405962D01*
X62820074Y42863105D02*
X63315312Y42863105D01*
X63315312Y42863105D02*
X63048646Y42558343D01*
X63048646Y42558343D02*
X63162931Y42558343D01*
X63162931Y42558343D02*
X63239122Y42520248D01*
X63239122Y42520248D02*
X63277217Y42482153D01*
X63277217Y42482153D02*
X63315312Y42405962D01*
X63315312Y42405962D02*
X63315312Y42215486D01*
X63315312Y42215486D02*
X63277217Y42139296D01*
X63277217Y42139296D02*
X63239122Y42101200D01*
X63239122Y42101200D02*
X63162931Y42063105D01*
X63162931Y42063105D02*
X62934360Y42063105D01*
X62934360Y42063105D02*
X62858169Y42101200D01*
X62858169Y42101200D02*
X62820074Y42139296D01*
D15*
X73381759Y65898881D02*
X73048426Y66375072D01*
X72810331Y65898881D02*
X72810331Y66898881D01*
X72810331Y66898881D02*
X73191283Y66898881D01*
X73191283Y66898881D02*
X73286521Y66851262D01*
X73286521Y66851262D02*
X73334140Y66803643D01*
X73334140Y66803643D02*
X73381759Y66708405D01*
X73381759Y66708405D02*
X73381759Y66565548D01*
X73381759Y66565548D02*
X73334140Y66470310D01*
X73334140Y66470310D02*
X73286521Y66422691D01*
X73286521Y66422691D02*
X73191283Y66375072D01*
X73191283Y66375072D02*
X72810331Y66375072D01*
X73810331Y66422691D02*
X74143664Y66422691D01*
X74286521Y65898881D02*
X73810331Y65898881D01*
X73810331Y65898881D02*
X73810331Y66898881D01*
X73810331Y66898881D02*
X74286521Y66898881D01*
X74667474Y65946500D02*
X74810331Y65898881D01*
X74810331Y65898881D02*
X75048426Y65898881D01*
X75048426Y65898881D02*
X75143664Y65946500D01*
X75143664Y65946500D02*
X75191283Y65994120D01*
X75191283Y65994120D02*
X75238902Y66089358D01*
X75238902Y66089358D02*
X75238902Y66184596D01*
X75238902Y66184596D02*
X75191283Y66279834D01*
X75191283Y66279834D02*
X75143664Y66327453D01*
X75143664Y66327453D02*
X75048426Y66375072D01*
X75048426Y66375072D02*
X74857950Y66422691D01*
X74857950Y66422691D02*
X74762712Y66470310D01*
X74762712Y66470310D02*
X74715093Y66517929D01*
X74715093Y66517929D02*
X74667474Y66613167D01*
X74667474Y66613167D02*
X74667474Y66708405D01*
X74667474Y66708405D02*
X74715093Y66803643D01*
X74715093Y66803643D02*
X74762712Y66851262D01*
X74762712Y66851262D02*
X74857950Y66898881D01*
X74857950Y66898881D02*
X75096045Y66898881D01*
X75096045Y66898881D02*
X75238902Y66851262D01*
X75667474Y66422691D02*
X76000807Y66422691D01*
X76143664Y65898881D02*
X75667474Y65898881D01*
X75667474Y65898881D02*
X75667474Y66898881D01*
X75667474Y66898881D02*
X76143664Y66898881D01*
X76429379Y66898881D02*
X77000807Y66898881D01*
X76715093Y65898881D02*
X76715093Y66898881D01*
D11*
X92555312Y12405010D02*
X92479122Y12443105D01*
X92479122Y12443105D02*
X92364836Y12443105D01*
X92364836Y12443105D02*
X92250550Y12405010D01*
X92250550Y12405010D02*
X92174360Y12328820D01*
X92174360Y12328820D02*
X92136265Y12252629D01*
X92136265Y12252629D02*
X92098169Y12100248D01*
X92098169Y12100248D02*
X92098169Y11985962D01*
X92098169Y11985962D02*
X92136265Y11833581D01*
X92136265Y11833581D02*
X92174360Y11757391D01*
X92174360Y11757391D02*
X92250550Y11681200D01*
X92250550Y11681200D02*
X92364836Y11643105D01*
X92364836Y11643105D02*
X92441027Y11643105D01*
X92441027Y11643105D02*
X92555312Y11681200D01*
X92555312Y11681200D02*
X92593408Y11719296D01*
X92593408Y11719296D02*
X92593408Y11985962D01*
X92593408Y11985962D02*
X92441027Y11985962D01*
X92898169Y12366915D02*
X92936265Y12405010D01*
X92936265Y12405010D02*
X93012455Y12443105D01*
X93012455Y12443105D02*
X93202931Y12443105D01*
X93202931Y12443105D02*
X93279122Y12405010D01*
X93279122Y12405010D02*
X93317217Y12366915D01*
X93317217Y12366915D02*
X93355312Y12290724D01*
X93355312Y12290724D02*
X93355312Y12214534D01*
X93355312Y12214534D02*
X93317217Y12100248D01*
X93317217Y12100248D02*
X92860074Y11643105D01*
X92860074Y11643105D02*
X93355312Y11643105D01*
X93660074Y12366915D02*
X93698170Y12405010D01*
X93698170Y12405010D02*
X93774360Y12443105D01*
X93774360Y12443105D02*
X93964836Y12443105D01*
X93964836Y12443105D02*
X94041027Y12405010D01*
X94041027Y12405010D02*
X94079122Y12366915D01*
X94079122Y12366915D02*
X94117217Y12290724D01*
X94117217Y12290724D02*
X94117217Y12214534D01*
X94117217Y12214534D02*
X94079122Y12100248D01*
X94079122Y12100248D02*
X93621979Y11643105D01*
X93621979Y11643105D02*
X94117217Y11643105D01*
X61865312Y57975010D02*
X61789122Y58013105D01*
X61789122Y58013105D02*
X61674836Y58013105D01*
X61674836Y58013105D02*
X61560550Y57975010D01*
X61560550Y57975010D02*
X61484360Y57898820D01*
X61484360Y57898820D02*
X61446265Y57822629D01*
X61446265Y57822629D02*
X61408169Y57670248D01*
X61408169Y57670248D02*
X61408169Y57555962D01*
X61408169Y57555962D02*
X61446265Y57403581D01*
X61446265Y57403581D02*
X61484360Y57327391D01*
X61484360Y57327391D02*
X61560550Y57251200D01*
X61560550Y57251200D02*
X61674836Y57213105D01*
X61674836Y57213105D02*
X61751027Y57213105D01*
X61751027Y57213105D02*
X61865312Y57251200D01*
X61865312Y57251200D02*
X61903408Y57289296D01*
X61903408Y57289296D02*
X61903408Y57555962D01*
X61903408Y57555962D02*
X61751027Y57555962D01*
X62665312Y57213105D02*
X62208169Y57213105D01*
X62436741Y57213105D02*
X62436741Y58013105D01*
X62436741Y58013105D02*
X62360550Y57898820D01*
X62360550Y57898820D02*
X62284360Y57822629D01*
X62284360Y57822629D02*
X62208169Y57784534D01*
X62970074Y57936915D02*
X63008170Y57975010D01*
X63008170Y57975010D02*
X63084360Y58013105D01*
X63084360Y58013105D02*
X63274836Y58013105D01*
X63274836Y58013105D02*
X63351027Y57975010D01*
X63351027Y57975010D02*
X63389122Y57936915D01*
X63389122Y57936915D02*
X63427217Y57860724D01*
X63427217Y57860724D02*
X63427217Y57784534D01*
X63427217Y57784534D02*
X63389122Y57670248D01*
X63389122Y57670248D02*
X62931979Y57213105D01*
X62931979Y57213105D02*
X63427217Y57213105D01*
D10*
X20951578Y35889191D02*
X21237292Y34689191D01*
X21237292Y34689191D02*
X21465864Y35546333D01*
X21465864Y35546333D02*
X21694435Y34689191D01*
X21694435Y34689191D02*
X21980150Y35889191D01*
X22894436Y34746333D02*
X22780150Y34689191D01*
X22780150Y34689191D02*
X22551579Y34689191D01*
X22551579Y34689191D02*
X22437293Y34746333D01*
X22437293Y34746333D02*
X22380150Y34860619D01*
X22380150Y34860619D02*
X22380150Y35317762D01*
X22380150Y35317762D02*
X22437293Y35432048D01*
X22437293Y35432048D02*
X22551579Y35489191D01*
X22551579Y35489191D02*
X22780150Y35489191D01*
X22780150Y35489191D02*
X22894436Y35432048D01*
X22894436Y35432048D02*
X22951579Y35317762D01*
X22951579Y35317762D02*
X22951579Y35203476D01*
X22951579Y35203476D02*
X22380150Y35089191D01*
X23408721Y35032048D02*
X23980150Y35032048D01*
X23294435Y34689191D02*
X23694435Y35889191D01*
X23694435Y35889191D02*
X24094435Y34689191D01*
X25008721Y34746333D02*
X24894435Y34689191D01*
X24894435Y34689191D02*
X24665863Y34689191D01*
X24665863Y34689191D02*
X24551578Y34746333D01*
X24551578Y34746333D02*
X24494435Y34803476D01*
X24494435Y34803476D02*
X24437292Y34917762D01*
X24437292Y34917762D02*
X24437292Y35260619D01*
X24437292Y35260619D02*
X24494435Y35374905D01*
X24494435Y35374905D02*
X24551578Y35432048D01*
X24551578Y35432048D02*
X24665863Y35489191D01*
X24665863Y35489191D02*
X24894435Y35489191D01*
X24894435Y35489191D02*
X25008721Y35432048D01*
X25351577Y35489191D02*
X25808720Y35489191D01*
X25523006Y35889191D02*
X25523006Y34860619D01*
X25523006Y34860619D02*
X25580149Y34746333D01*
X25580149Y34746333D02*
X25694434Y34689191D01*
X25694434Y34689191D02*
X25808720Y34689191D01*
X26151577Y34746333D02*
X26323006Y34689191D01*
X26323006Y34689191D02*
X26608720Y34689191D01*
X26608720Y34689191D02*
X26723006Y34746333D01*
X26723006Y34746333D02*
X26780148Y34803476D01*
X26780148Y34803476D02*
X26837291Y34917762D01*
X26837291Y34917762D02*
X26837291Y35032048D01*
X26837291Y35032048D02*
X26780148Y35146333D01*
X26780148Y35146333D02*
X26723006Y35203476D01*
X26723006Y35203476D02*
X26608720Y35260619D01*
X26608720Y35260619D02*
X26380148Y35317762D01*
X26380148Y35317762D02*
X26265863Y35374905D01*
X26265863Y35374905D02*
X26208720Y35432048D01*
X26208720Y35432048D02*
X26151577Y35546333D01*
X26151577Y35546333D02*
X26151577Y35660619D01*
X26151577Y35660619D02*
X26208720Y35774905D01*
X26208720Y35774905D02*
X26265863Y35832048D01*
X26265863Y35832048D02*
X26380148Y35889191D01*
X26380148Y35889191D02*
X26665863Y35889191D01*
X26665863Y35889191D02*
X26837291Y35832048D01*
X27180148Y35489191D02*
X27637291Y35489191D01*
X27351577Y35889191D02*
X27351577Y34860619D01*
X27351577Y34860619D02*
X27408720Y34746333D01*
X27408720Y34746333D02*
X27523005Y34689191D01*
X27523005Y34689191D02*
X27637291Y34689191D01*
X28551577Y35489191D02*
X28551577Y34689191D01*
X28037291Y35489191D02*
X28037291Y34860619D01*
X28037291Y34860619D02*
X28094434Y34746333D01*
X28094434Y34746333D02*
X28208719Y34689191D01*
X28208719Y34689191D02*
X28380148Y34689191D01*
X28380148Y34689191D02*
X28494434Y34746333D01*
X28494434Y34746333D02*
X28551577Y34803476D01*
X29637291Y34689191D02*
X29637291Y35889191D01*
X29637291Y34746333D02*
X29523005Y34689191D01*
X29523005Y34689191D02*
X29294433Y34689191D01*
X29294433Y34689191D02*
X29180148Y34746333D01*
X29180148Y34746333D02*
X29123005Y34803476D01*
X29123005Y34803476D02*
X29065862Y34917762D01*
X29065862Y34917762D02*
X29065862Y35260619D01*
X29065862Y35260619D02*
X29123005Y35374905D01*
X29123005Y35374905D02*
X29180148Y35432048D01*
X29180148Y35432048D02*
X29294433Y35489191D01*
X29294433Y35489191D02*
X29523005Y35489191D01*
X29523005Y35489191D02*
X29637291Y35432048D01*
X30208719Y34689191D02*
X30208719Y35489191D01*
X30208719Y35889191D02*
X30151576Y35832048D01*
X30151576Y35832048D02*
X30208719Y35774905D01*
X30208719Y35774905D02*
X30265862Y35832048D01*
X30265862Y35832048D02*
X30208719Y35889191D01*
X30208719Y35889191D02*
X30208719Y35774905D01*
X30951576Y34689191D02*
X30837291Y34746333D01*
X30837291Y34746333D02*
X30780148Y34803476D01*
X30780148Y34803476D02*
X30723005Y34917762D01*
X30723005Y34917762D02*
X30723005Y35260619D01*
X30723005Y35260619D02*
X30780148Y35374905D01*
X30780148Y35374905D02*
X30837291Y35432048D01*
X30837291Y35432048D02*
X30951576Y35489191D01*
X30951576Y35489191D02*
X31123005Y35489191D01*
X31123005Y35489191D02*
X31237291Y35432048D01*
X31237291Y35432048D02*
X31294434Y35374905D01*
X31294434Y35374905D02*
X31351576Y35260619D01*
X31351576Y35260619D02*
X31351576Y34917762D01*
X31351576Y34917762D02*
X31294434Y34803476D01*
X31294434Y34803476D02*
X31237291Y34746333D01*
X31237291Y34746333D02*
X31123005Y34689191D01*
X31123005Y34689191D02*
X30951576Y34689191D01*
X19923006Y32757258D02*
X19523006Y33328686D01*
X19237292Y32757258D02*
X19237292Y33957258D01*
X19237292Y33957258D02*
X19694435Y33957258D01*
X19694435Y33957258D02*
X19808720Y33900115D01*
X19808720Y33900115D02*
X19865863Y33842972D01*
X19865863Y33842972D02*
X19923006Y33728686D01*
X19923006Y33728686D02*
X19923006Y33557258D01*
X19923006Y33557258D02*
X19865863Y33442972D01*
X19865863Y33442972D02*
X19808720Y33385829D01*
X19808720Y33385829D02*
X19694435Y33328686D01*
X19694435Y33328686D02*
X19237292Y33328686D01*
X20437292Y32757258D02*
X20437292Y33957258D01*
X20437292Y33957258D02*
X20894435Y33957258D01*
X20894435Y33957258D02*
X21008720Y33900115D01*
X21008720Y33900115D02*
X21065863Y33842972D01*
X21065863Y33842972D02*
X21123006Y33728686D01*
X21123006Y33728686D02*
X21123006Y33557258D01*
X21123006Y33557258D02*
X21065863Y33442972D01*
X21065863Y33442972D02*
X21008720Y33385829D01*
X21008720Y33385829D02*
X20894435Y33328686D01*
X20894435Y33328686D02*
X20437292Y33328686D01*
X21580149Y33842972D02*
X21637292Y33900115D01*
X21637292Y33900115D02*
X21751578Y33957258D01*
X21751578Y33957258D02*
X22037292Y33957258D01*
X22037292Y33957258D02*
X22151578Y33900115D01*
X22151578Y33900115D02*
X22208720Y33842972D01*
X22208720Y33842972D02*
X22265863Y33728686D01*
X22265863Y33728686D02*
X22265863Y33614400D01*
X22265863Y33614400D02*
X22208720Y33442972D01*
X22208720Y33442972D02*
X21523006Y32757258D01*
X21523006Y32757258D02*
X22265863Y32757258D01*
X22665863Y33957258D02*
X23408720Y33957258D01*
X23408720Y33957258D02*
X23008720Y33500115D01*
X23008720Y33500115D02*
X23180149Y33500115D01*
X23180149Y33500115D02*
X23294435Y33442972D01*
X23294435Y33442972D02*
X23351577Y33385829D01*
X23351577Y33385829D02*
X23408720Y33271543D01*
X23408720Y33271543D02*
X23408720Y32985829D01*
X23408720Y32985829D02*
X23351577Y32871543D01*
X23351577Y32871543D02*
X23294435Y32814400D01*
X23294435Y32814400D02*
X23180149Y32757258D01*
X23180149Y32757258D02*
X22837292Y32757258D01*
X22837292Y32757258D02*
X22723006Y32814400D01*
X22723006Y32814400D02*
X22665863Y32871543D01*
X24494434Y33957258D02*
X23923006Y33957258D01*
X23923006Y33957258D02*
X23865863Y33385829D01*
X23865863Y33385829D02*
X23923006Y33442972D01*
X23923006Y33442972D02*
X24037292Y33500115D01*
X24037292Y33500115D02*
X24323006Y33500115D01*
X24323006Y33500115D02*
X24437292Y33442972D01*
X24437292Y33442972D02*
X24494434Y33385829D01*
X24494434Y33385829D02*
X24551577Y33271543D01*
X24551577Y33271543D02*
X24551577Y32985829D01*
X24551577Y32985829D02*
X24494434Y32871543D01*
X24494434Y32871543D02*
X24437292Y32814400D01*
X24437292Y32814400D02*
X24323006Y32757258D01*
X24323006Y32757258D02*
X24037292Y32757258D01*
X24037292Y32757258D02*
X23923006Y32814400D01*
X23923006Y32814400D02*
X23865863Y32871543D01*
X25294434Y33957258D02*
X25408720Y33957258D01*
X25408720Y33957258D02*
X25523006Y33900115D01*
X25523006Y33900115D02*
X25580149Y33842972D01*
X25580149Y33842972D02*
X25637291Y33728686D01*
X25637291Y33728686D02*
X25694434Y33500115D01*
X25694434Y33500115D02*
X25694434Y33214400D01*
X25694434Y33214400D02*
X25637291Y32985829D01*
X25637291Y32985829D02*
X25580149Y32871543D01*
X25580149Y32871543D02*
X25523006Y32814400D01*
X25523006Y32814400D02*
X25408720Y32757258D01*
X25408720Y32757258D02*
X25294434Y32757258D01*
X25294434Y32757258D02*
X25180149Y32814400D01*
X25180149Y32814400D02*
X25123006Y32871543D01*
X25123006Y32871543D02*
X25065863Y32985829D01*
X25065863Y32985829D02*
X25008720Y33214400D01*
X25008720Y33214400D02*
X25008720Y33500115D01*
X25008720Y33500115D02*
X25065863Y33728686D01*
X25065863Y33728686D02*
X25123006Y33842972D01*
X25123006Y33842972D02*
X25180149Y33900115D01*
X25180149Y33900115D02*
X25294434Y33957258D01*
X26608720Y33385829D02*
X26780148Y33328686D01*
X26780148Y33328686D02*
X26837291Y33271543D01*
X26837291Y33271543D02*
X26894434Y33157258D01*
X26894434Y33157258D02*
X26894434Y32985829D01*
X26894434Y32985829D02*
X26837291Y32871543D01*
X26837291Y32871543D02*
X26780148Y32814400D01*
X26780148Y32814400D02*
X26665863Y32757258D01*
X26665863Y32757258D02*
X26208720Y32757258D01*
X26208720Y32757258D02*
X26208720Y33957258D01*
X26208720Y33957258D02*
X26608720Y33957258D01*
X26608720Y33957258D02*
X26723006Y33900115D01*
X26723006Y33900115D02*
X26780148Y33842972D01*
X26780148Y33842972D02*
X26837291Y33728686D01*
X26837291Y33728686D02*
X26837291Y33614400D01*
X26837291Y33614400D02*
X26780148Y33500115D01*
X26780148Y33500115D02*
X26723006Y33442972D01*
X26723006Y33442972D02*
X26608720Y33385829D01*
X26608720Y33385829D02*
X26208720Y33385829D01*
X28094434Y32871543D02*
X28037291Y32814400D01*
X28037291Y32814400D02*
X27865863Y32757258D01*
X27865863Y32757258D02*
X27751577Y32757258D01*
X27751577Y32757258D02*
X27580148Y32814400D01*
X27580148Y32814400D02*
X27465863Y32928686D01*
X27465863Y32928686D02*
X27408720Y33042972D01*
X27408720Y33042972D02*
X27351577Y33271543D01*
X27351577Y33271543D02*
X27351577Y33442972D01*
X27351577Y33442972D02*
X27408720Y33671543D01*
X27408720Y33671543D02*
X27465863Y33785829D01*
X27465863Y33785829D02*
X27580148Y33900115D01*
X27580148Y33900115D02*
X27751577Y33957258D01*
X27751577Y33957258D02*
X27865863Y33957258D01*
X27865863Y33957258D02*
X28037291Y33900115D01*
X28037291Y33900115D02*
X28094434Y33842972D01*
X28780148Y32757258D02*
X28665863Y32814400D01*
X28665863Y32814400D02*
X28608720Y32871543D01*
X28608720Y32871543D02*
X28551577Y32985829D01*
X28551577Y32985829D02*
X28551577Y33328686D01*
X28551577Y33328686D02*
X28608720Y33442972D01*
X28608720Y33442972D02*
X28665863Y33500115D01*
X28665863Y33500115D02*
X28780148Y33557258D01*
X28780148Y33557258D02*
X28951577Y33557258D01*
X28951577Y33557258D02*
X29065863Y33500115D01*
X29065863Y33500115D02*
X29123006Y33442972D01*
X29123006Y33442972D02*
X29180148Y33328686D01*
X29180148Y33328686D02*
X29180148Y32985829D01*
X29180148Y32985829D02*
X29123006Y32871543D01*
X29123006Y32871543D02*
X29065863Y32814400D01*
X29065863Y32814400D02*
X28951577Y32757258D01*
X28951577Y32757258D02*
X28780148Y32757258D01*
X29694434Y32757258D02*
X29694434Y33557258D01*
X29694434Y33328686D02*
X29751577Y33442972D01*
X29751577Y33442972D02*
X29808720Y33500115D01*
X29808720Y33500115D02*
X29923005Y33557258D01*
X29923005Y33557258D02*
X30037291Y33557258D01*
X30894434Y32814400D02*
X30780148Y32757258D01*
X30780148Y32757258D02*
X30551577Y32757258D01*
X30551577Y32757258D02*
X30437291Y32814400D01*
X30437291Y32814400D02*
X30380148Y32928686D01*
X30380148Y32928686D02*
X30380148Y33385829D01*
X30380148Y33385829D02*
X30437291Y33500115D01*
X30437291Y33500115D02*
X30551577Y33557258D01*
X30551577Y33557258D02*
X30780148Y33557258D01*
X30780148Y33557258D02*
X30894434Y33500115D01*
X30894434Y33500115D02*
X30951577Y33385829D01*
X30951577Y33385829D02*
X30951577Y33271543D01*
X30951577Y33271543D02*
X30380148Y33157258D01*
X31865862Y33385829D02*
X32037290Y33328686D01*
X32037290Y33328686D02*
X32094433Y33271543D01*
X32094433Y33271543D02*
X32151576Y33157258D01*
X32151576Y33157258D02*
X32151576Y32985829D01*
X32151576Y32985829D02*
X32094433Y32871543D01*
X32094433Y32871543D02*
X32037290Y32814400D01*
X32037290Y32814400D02*
X31923005Y32757258D01*
X31923005Y32757258D02*
X31465862Y32757258D01*
X31465862Y32757258D02*
X31465862Y33957258D01*
X31465862Y33957258D02*
X31865862Y33957258D01*
X31865862Y33957258D02*
X31980148Y33900115D01*
X31980148Y33900115D02*
X32037290Y33842972D01*
X32037290Y33842972D02*
X32094433Y33728686D01*
X32094433Y33728686D02*
X32094433Y33614400D01*
X32094433Y33614400D02*
X32037290Y33500115D01*
X32037290Y33500115D02*
X31980148Y33442972D01*
X31980148Y33442972D02*
X31865862Y33385829D01*
X31865862Y33385829D02*
X31465862Y33385829D01*
X32837290Y32757258D02*
X32723005Y32814400D01*
X32723005Y32814400D02*
X32665862Y32871543D01*
X32665862Y32871543D02*
X32608719Y32985829D01*
X32608719Y32985829D02*
X32608719Y33328686D01*
X32608719Y33328686D02*
X32665862Y33442972D01*
X32665862Y33442972D02*
X32723005Y33500115D01*
X32723005Y33500115D02*
X32837290Y33557258D01*
X32837290Y33557258D02*
X33008719Y33557258D01*
X33008719Y33557258D02*
X33123005Y33500115D01*
X33123005Y33500115D02*
X33180148Y33442972D01*
X33180148Y33442972D02*
X33237290Y33328686D01*
X33237290Y33328686D02*
X33237290Y32985829D01*
X33237290Y32985829D02*
X33180148Y32871543D01*
X33180148Y32871543D02*
X33123005Y32814400D01*
X33123005Y32814400D02*
X33008719Y32757258D01*
X33008719Y32757258D02*
X32837290Y32757258D01*
X34265862Y32757258D02*
X34265862Y33385829D01*
X34265862Y33385829D02*
X34208719Y33500115D01*
X34208719Y33500115D02*
X34094433Y33557258D01*
X34094433Y33557258D02*
X33865862Y33557258D01*
X33865862Y33557258D02*
X33751576Y33500115D01*
X34265862Y32814400D02*
X34151576Y32757258D01*
X34151576Y32757258D02*
X33865862Y32757258D01*
X33865862Y32757258D02*
X33751576Y32814400D01*
X33751576Y32814400D02*
X33694433Y32928686D01*
X33694433Y32928686D02*
X33694433Y33042972D01*
X33694433Y33042972D02*
X33751576Y33157258D01*
X33751576Y33157258D02*
X33865862Y33214400D01*
X33865862Y33214400D02*
X34151576Y33214400D01*
X34151576Y33214400D02*
X34265862Y33271543D01*
X34837290Y32757258D02*
X34837290Y33557258D01*
X34837290Y33328686D02*
X34894433Y33442972D01*
X34894433Y33442972D02*
X34951576Y33500115D01*
X34951576Y33500115D02*
X35065861Y33557258D01*
X35065861Y33557258D02*
X35180147Y33557258D01*
X36094433Y32757258D02*
X36094433Y33957258D01*
X36094433Y32814400D02*
X35980147Y32757258D01*
X35980147Y32757258D02*
X35751575Y32757258D01*
X35751575Y32757258D02*
X35637290Y32814400D01*
X35637290Y32814400D02*
X35580147Y32871543D01*
X35580147Y32871543D02*
X35523004Y32985829D01*
X35523004Y32985829D02*
X35523004Y33328686D01*
X35523004Y33328686D02*
X35580147Y33442972D01*
X35580147Y33442972D02*
X35637290Y33500115D01*
X35637290Y33500115D02*
X35751575Y33557258D01*
X35751575Y33557258D02*
X35980147Y33557258D01*
X35980147Y33557258D02*
X36094433Y33500115D01*
D13*
X23527584Y14902883D02*
X23565680Y14864787D01*
X23565680Y14864787D02*
X23603775Y14750502D01*
X23603775Y14750502D02*
X23603775Y14674311D01*
X23603775Y14674311D02*
X23565680Y14560025D01*
X23565680Y14560025D02*
X23489489Y14483835D01*
X23489489Y14483835D02*
X23413299Y14445740D01*
X23413299Y14445740D02*
X23260918Y14407644D01*
X23260918Y14407644D02*
X23146632Y14407644D01*
X23146632Y14407644D02*
X22994251Y14445740D01*
X22994251Y14445740D02*
X22918060Y14483835D01*
X22918060Y14483835D02*
X22841870Y14560025D01*
X22841870Y14560025D02*
X22803775Y14674311D01*
X22803775Y14674311D02*
X22803775Y14750502D01*
X22803775Y14750502D02*
X22841870Y14864787D01*
X22841870Y14864787D02*
X22879965Y14902883D01*
X23603775Y15245740D02*
X22803775Y15245740D01*
X23603775Y15702883D02*
X23146632Y15360025D01*
X22803775Y15702883D02*
X23260918Y15245740D01*
D11*
X92575312Y37795010D02*
X92499122Y37833105D01*
X92499122Y37833105D02*
X92384836Y37833105D01*
X92384836Y37833105D02*
X92270550Y37795010D01*
X92270550Y37795010D02*
X92194360Y37718820D01*
X92194360Y37718820D02*
X92156265Y37642629D01*
X92156265Y37642629D02*
X92118169Y37490248D01*
X92118169Y37490248D02*
X92118169Y37375962D01*
X92118169Y37375962D02*
X92156265Y37223581D01*
X92156265Y37223581D02*
X92194360Y37147391D01*
X92194360Y37147391D02*
X92270550Y37071200D01*
X92270550Y37071200D02*
X92384836Y37033105D01*
X92384836Y37033105D02*
X92461027Y37033105D01*
X92461027Y37033105D02*
X92575312Y37071200D01*
X92575312Y37071200D02*
X92613408Y37109296D01*
X92613408Y37109296D02*
X92613408Y37375962D01*
X92613408Y37375962D02*
X92461027Y37375962D01*
X92880074Y37833105D02*
X93375312Y37833105D01*
X93375312Y37833105D02*
X93108646Y37528343D01*
X93108646Y37528343D02*
X93222931Y37528343D01*
X93222931Y37528343D02*
X93299122Y37490248D01*
X93299122Y37490248D02*
X93337217Y37452153D01*
X93337217Y37452153D02*
X93375312Y37375962D01*
X93375312Y37375962D02*
X93375312Y37185486D01*
X93375312Y37185486D02*
X93337217Y37109296D01*
X93337217Y37109296D02*
X93299122Y37071200D01*
X93299122Y37071200D02*
X93222931Y37033105D01*
X93222931Y37033105D02*
X92994360Y37033105D01*
X92994360Y37033105D02*
X92918169Y37071200D01*
X92918169Y37071200D02*
X92880074Y37109296D01*
X94137217Y37033105D02*
X93680074Y37033105D01*
X93908646Y37033105D02*
X93908646Y37833105D01*
X93908646Y37833105D02*
X93832455Y37718820D01*
X93832455Y37718820D02*
X93756265Y37642629D01*
X93756265Y37642629D02*
X93680074Y37604534D01*
D13*
X17771870Y14854787D02*
X17733775Y14778597D01*
X17733775Y14778597D02*
X17733775Y14664311D01*
X17733775Y14664311D02*
X17771870Y14550025D01*
X17771870Y14550025D02*
X17848060Y14473835D01*
X17848060Y14473835D02*
X17924251Y14435740D01*
X17924251Y14435740D02*
X18076632Y14397644D01*
X18076632Y14397644D02*
X18190918Y14397644D01*
X18190918Y14397644D02*
X18343299Y14435740D01*
X18343299Y14435740D02*
X18419489Y14473835D01*
X18419489Y14473835D02*
X18495680Y14550025D01*
X18495680Y14550025D02*
X18533775Y14664311D01*
X18533775Y14664311D02*
X18533775Y14740502D01*
X18533775Y14740502D02*
X18495680Y14854787D01*
X18495680Y14854787D02*
X18457584Y14892883D01*
X18457584Y14892883D02*
X18190918Y14892883D01*
X18190918Y14892883D02*
X18190918Y14740502D01*
X18533775Y15235740D02*
X17733775Y15235740D01*
X17733775Y15235740D02*
X18533775Y15692883D01*
X18533775Y15692883D02*
X17733775Y15692883D01*
X18533775Y16073835D02*
X17733775Y16073835D01*
X17733775Y16073835D02*
X17733775Y16264311D01*
X17733775Y16264311D02*
X17771870Y16378597D01*
X17771870Y16378597D02*
X17848060Y16454787D01*
X17848060Y16454787D02*
X17924251Y16492882D01*
X17924251Y16492882D02*
X18076632Y16530978D01*
X18076632Y16530978D02*
X18190918Y16530978D01*
X18190918Y16530978D02*
X18343299Y16492882D01*
X18343299Y16492882D02*
X18419489Y16454787D01*
X18419489Y16454787D02*
X18495680Y16378597D01*
X18495680Y16378597D02*
X18533775Y16264311D01*
X18533775Y16264311D02*
X18533775Y16073835D01*
D11*
X92525312Y17545010D02*
X92449122Y17583105D01*
X92449122Y17583105D02*
X92334836Y17583105D01*
X92334836Y17583105D02*
X92220550Y17545010D01*
X92220550Y17545010D02*
X92144360Y17468820D01*
X92144360Y17468820D02*
X92106265Y17392629D01*
X92106265Y17392629D02*
X92068169Y17240248D01*
X92068169Y17240248D02*
X92068169Y17125962D01*
X92068169Y17125962D02*
X92106265Y16973581D01*
X92106265Y16973581D02*
X92144360Y16897391D01*
X92144360Y16897391D02*
X92220550Y16821200D01*
X92220550Y16821200D02*
X92334836Y16783105D01*
X92334836Y16783105D02*
X92411027Y16783105D01*
X92411027Y16783105D02*
X92525312Y16821200D01*
X92525312Y16821200D02*
X92563408Y16859296D01*
X92563408Y16859296D02*
X92563408Y17125962D01*
X92563408Y17125962D02*
X92411027Y17125962D01*
X93249122Y17316439D02*
X93249122Y16783105D01*
X93058646Y17621200D02*
X92868169Y17049772D01*
X92868169Y17049772D02*
X93363408Y17049772D01*
X93591979Y17583105D02*
X94087217Y17583105D01*
X94087217Y17583105D02*
X93820551Y17278343D01*
X93820551Y17278343D02*
X93934836Y17278343D01*
X93934836Y17278343D02*
X94011027Y17240248D01*
X94011027Y17240248D02*
X94049122Y17202153D01*
X94049122Y17202153D02*
X94087217Y17125962D01*
X94087217Y17125962D02*
X94087217Y16935486D01*
X94087217Y16935486D02*
X94049122Y16859296D01*
X94049122Y16859296D02*
X94011027Y16821200D01*
X94011027Y16821200D02*
X93934836Y16783105D01*
X93934836Y16783105D02*
X93706265Y16783105D01*
X93706265Y16783105D02*
X93630074Y16821200D01*
X93630074Y16821200D02*
X93591979Y16859296D01*
X62015312Y50565010D02*
X61939122Y50603105D01*
X61939122Y50603105D02*
X61824836Y50603105D01*
X61824836Y50603105D02*
X61710550Y50565010D01*
X61710550Y50565010D02*
X61634360Y50488820D01*
X61634360Y50488820D02*
X61596265Y50412629D01*
X61596265Y50412629D02*
X61558169Y50260248D01*
X61558169Y50260248D02*
X61558169Y50145962D01*
X61558169Y50145962D02*
X61596265Y49993581D01*
X61596265Y49993581D02*
X61634360Y49917391D01*
X61634360Y49917391D02*
X61710550Y49841200D01*
X61710550Y49841200D02*
X61824836Y49803105D01*
X61824836Y49803105D02*
X61901027Y49803105D01*
X61901027Y49803105D02*
X62015312Y49841200D01*
X62015312Y49841200D02*
X62053408Y49879296D01*
X62053408Y49879296D02*
X62053408Y50145962D01*
X62053408Y50145962D02*
X61901027Y50145962D01*
X62815312Y49803105D02*
X62358169Y49803105D01*
X62586741Y49803105D02*
X62586741Y50603105D01*
X62586741Y50603105D02*
X62510550Y50488820D01*
X62510550Y50488820D02*
X62434360Y50412629D01*
X62434360Y50412629D02*
X62358169Y50374534D01*
X63539122Y50603105D02*
X63158170Y50603105D01*
X63158170Y50603105D02*
X63120074Y50222153D01*
X63120074Y50222153D02*
X63158170Y50260248D01*
X63158170Y50260248D02*
X63234360Y50298343D01*
X63234360Y50298343D02*
X63424836Y50298343D01*
X63424836Y50298343D02*
X63501027Y50260248D01*
X63501027Y50260248D02*
X63539122Y50222153D01*
X63539122Y50222153D02*
X63577217Y50145962D01*
X63577217Y50145962D02*
X63577217Y49955486D01*
X63577217Y49955486D02*
X63539122Y49879296D01*
X63539122Y49879296D02*
X63501027Y49841200D01*
X63501027Y49841200D02*
X63424836Y49803105D01*
X63424836Y49803105D02*
X63234360Y49803105D01*
X63234360Y49803105D02*
X63158170Y49841200D01*
X63158170Y49841200D02*
X63120074Y49879296D01*
X62125312Y20035010D02*
X62049122Y20073105D01*
X62049122Y20073105D02*
X61934836Y20073105D01*
X61934836Y20073105D02*
X61820550Y20035010D01*
X61820550Y20035010D02*
X61744360Y19958820D01*
X61744360Y19958820D02*
X61706265Y19882629D01*
X61706265Y19882629D02*
X61668169Y19730248D01*
X61668169Y19730248D02*
X61668169Y19615962D01*
X61668169Y19615962D02*
X61706265Y19463581D01*
X61706265Y19463581D02*
X61744360Y19387391D01*
X61744360Y19387391D02*
X61820550Y19311200D01*
X61820550Y19311200D02*
X61934836Y19273105D01*
X61934836Y19273105D02*
X62011027Y19273105D01*
X62011027Y19273105D02*
X62125312Y19311200D01*
X62125312Y19311200D02*
X62163408Y19349296D01*
X62163408Y19349296D02*
X62163408Y19615962D01*
X62163408Y19615962D02*
X62011027Y19615962D01*
X62849122Y19806439D02*
X62849122Y19273105D01*
X62658646Y20111200D02*
X62468169Y19539772D01*
X62468169Y19539772D02*
X62963408Y19539772D01*
X63230074Y19996915D02*
X63268170Y20035010D01*
X63268170Y20035010D02*
X63344360Y20073105D01*
X63344360Y20073105D02*
X63534836Y20073105D01*
X63534836Y20073105D02*
X63611027Y20035010D01*
X63611027Y20035010D02*
X63649122Y19996915D01*
X63649122Y19996915D02*
X63687217Y19920724D01*
X63687217Y19920724D02*
X63687217Y19844534D01*
X63687217Y19844534D02*
X63649122Y19730248D01*
X63649122Y19730248D02*
X63191979Y19273105D01*
X63191979Y19273105D02*
X63687217Y19273105D01*
X65034360Y34988629D02*
X64748646Y34988629D01*
X64748646Y34988629D02*
X64720074Y34702915D01*
X64720074Y34702915D02*
X64748646Y34731486D01*
X64748646Y34731486D02*
X64805789Y34760058D01*
X64805789Y34760058D02*
X64948646Y34760058D01*
X64948646Y34760058D02*
X65005789Y34731486D01*
X65005789Y34731486D02*
X65034360Y34702915D01*
X65034360Y34702915D02*
X65062931Y34645772D01*
X65062931Y34645772D02*
X65062931Y34502915D01*
X65062931Y34502915D02*
X65034360Y34445772D01*
X65034360Y34445772D02*
X65005789Y34417200D01*
X65005789Y34417200D02*
X64948646Y34388629D01*
X64948646Y34388629D02*
X64805789Y34388629D01*
X64805789Y34388629D02*
X64748646Y34417200D01*
X64748646Y34417200D02*
X64720074Y34445772D01*
X65234360Y34988629D02*
X65434360Y34388629D01*
X65434360Y34388629D02*
X65634360Y34988629D01*
X92535312Y55445010D02*
X92459122Y55483105D01*
X92459122Y55483105D02*
X92344836Y55483105D01*
X92344836Y55483105D02*
X92230550Y55445010D01*
X92230550Y55445010D02*
X92154360Y55368820D01*
X92154360Y55368820D02*
X92116265Y55292629D01*
X92116265Y55292629D02*
X92078169Y55140248D01*
X92078169Y55140248D02*
X92078169Y55025962D01*
X92078169Y55025962D02*
X92116265Y54873581D01*
X92116265Y54873581D02*
X92154360Y54797391D01*
X92154360Y54797391D02*
X92230550Y54721200D01*
X92230550Y54721200D02*
X92344836Y54683105D01*
X92344836Y54683105D02*
X92421027Y54683105D01*
X92421027Y54683105D02*
X92535312Y54721200D01*
X92535312Y54721200D02*
X92573408Y54759296D01*
X92573408Y54759296D02*
X92573408Y55025962D01*
X92573408Y55025962D02*
X92421027Y55025962D01*
X93030550Y55140248D02*
X92954360Y55178343D01*
X92954360Y55178343D02*
X92916265Y55216439D01*
X92916265Y55216439D02*
X92878169Y55292629D01*
X92878169Y55292629D02*
X92878169Y55330724D01*
X92878169Y55330724D02*
X92916265Y55406915D01*
X92916265Y55406915D02*
X92954360Y55445010D01*
X92954360Y55445010D02*
X93030550Y55483105D01*
X93030550Y55483105D02*
X93182931Y55483105D01*
X93182931Y55483105D02*
X93259122Y55445010D01*
X93259122Y55445010D02*
X93297217Y55406915D01*
X93297217Y55406915D02*
X93335312Y55330724D01*
X93335312Y55330724D02*
X93335312Y55292629D01*
X93335312Y55292629D02*
X93297217Y55216439D01*
X93297217Y55216439D02*
X93259122Y55178343D01*
X93259122Y55178343D02*
X93182931Y55140248D01*
X93182931Y55140248D02*
X93030550Y55140248D01*
X93030550Y55140248D02*
X92954360Y55102153D01*
X92954360Y55102153D02*
X92916265Y55064058D01*
X92916265Y55064058D02*
X92878169Y54987867D01*
X92878169Y54987867D02*
X92878169Y54835486D01*
X92878169Y54835486D02*
X92916265Y54759296D01*
X92916265Y54759296D02*
X92954360Y54721200D01*
X92954360Y54721200D02*
X93030550Y54683105D01*
X93030550Y54683105D02*
X93182931Y54683105D01*
X93182931Y54683105D02*
X93259122Y54721200D01*
X93259122Y54721200D02*
X93297217Y54759296D01*
X93297217Y54759296D02*
X93335312Y54835486D01*
X93335312Y54835486D02*
X93335312Y54987867D01*
X93335312Y54987867D02*
X93297217Y55064058D01*
X93297217Y55064058D02*
X93259122Y55102153D01*
X93259122Y55102153D02*
X93182931Y55140248D01*
X62485312Y37695010D02*
X62409122Y37733105D01*
X62409122Y37733105D02*
X62294836Y37733105D01*
X62294836Y37733105D02*
X62180550Y37695010D01*
X62180550Y37695010D02*
X62104360Y37618820D01*
X62104360Y37618820D02*
X62066265Y37542629D01*
X62066265Y37542629D02*
X62028169Y37390248D01*
X62028169Y37390248D02*
X62028169Y37275962D01*
X62028169Y37275962D02*
X62066265Y37123581D01*
X62066265Y37123581D02*
X62104360Y37047391D01*
X62104360Y37047391D02*
X62180550Y36971200D01*
X62180550Y36971200D02*
X62294836Y36933105D01*
X62294836Y36933105D02*
X62371027Y36933105D01*
X62371027Y36933105D02*
X62485312Y36971200D01*
X62485312Y36971200D02*
X62523408Y37009296D01*
X62523408Y37009296D02*
X62523408Y37275962D01*
X62523408Y37275962D02*
X62371027Y37275962D01*
X63209122Y37733105D02*
X63056741Y37733105D01*
X63056741Y37733105D02*
X62980550Y37695010D01*
X62980550Y37695010D02*
X62942455Y37656915D01*
X62942455Y37656915D02*
X62866265Y37542629D01*
X62866265Y37542629D02*
X62828169Y37390248D01*
X62828169Y37390248D02*
X62828169Y37085486D01*
X62828169Y37085486D02*
X62866265Y37009296D01*
X62866265Y37009296D02*
X62904360Y36971200D01*
X62904360Y36971200D02*
X62980550Y36933105D01*
X62980550Y36933105D02*
X63132931Y36933105D01*
X63132931Y36933105D02*
X63209122Y36971200D01*
X63209122Y36971200D02*
X63247217Y37009296D01*
X63247217Y37009296D02*
X63285312Y37085486D01*
X63285312Y37085486D02*
X63285312Y37275962D01*
X63285312Y37275962D02*
X63247217Y37352153D01*
X63247217Y37352153D02*
X63209122Y37390248D01*
X63209122Y37390248D02*
X63132931Y37428343D01*
X63132931Y37428343D02*
X62980550Y37428343D01*
X62980550Y37428343D02*
X62904360Y37390248D01*
X62904360Y37390248D02*
X62866265Y37352153D01*
X62866265Y37352153D02*
X62828169Y37275962D01*
D12*
X53389613Y68614562D02*
X53422946Y68681229D01*
X53422946Y68681229D02*
X53422946Y68781229D01*
X53422946Y68781229D02*
X53389613Y68881229D01*
X53389613Y68881229D02*
X53322946Y68947895D01*
X53322946Y68947895D02*
X53256280Y68981229D01*
X53256280Y68981229D02*
X53122946Y69014562D01*
X53122946Y69014562D02*
X53022946Y69014562D01*
X53022946Y69014562D02*
X52889613Y68981229D01*
X52889613Y68981229D02*
X52822946Y68947895D01*
X52822946Y68947895D02*
X52756280Y68881229D01*
X52756280Y68881229D02*
X52722946Y68781229D01*
X52722946Y68781229D02*
X52722946Y68714562D01*
X52722946Y68714562D02*
X52756280Y68614562D01*
X52756280Y68614562D02*
X52789613Y68581229D01*
X52789613Y68581229D02*
X53022946Y68581229D01*
X53022946Y68581229D02*
X53022946Y68714562D01*
X52722946Y68281229D02*
X53422946Y68281229D01*
X53422946Y68281229D02*
X53422946Y68014562D01*
X53422946Y68014562D02*
X53389613Y67947895D01*
X53389613Y67947895D02*
X53356280Y67914562D01*
X53356280Y67914562D02*
X53289613Y67881229D01*
X53289613Y67881229D02*
X53189613Y67881229D01*
X53189613Y67881229D02*
X53122946Y67914562D01*
X53122946Y67914562D02*
X53089613Y67947895D01*
X53089613Y67947895D02*
X53056280Y68014562D01*
X53056280Y68014562D02*
X53056280Y68281229D01*
X53189613Y67281229D02*
X52722946Y67281229D01*
X53456280Y67447895D02*
X52956280Y67614562D01*
X52956280Y67614562D02*
X52956280Y67181229D01*
X53422946Y66581228D02*
X53422946Y66914562D01*
X53422946Y66914562D02*
X53089613Y66947895D01*
X53089613Y66947895D02*
X53122946Y66914562D01*
X53122946Y66914562D02*
X53156280Y66847895D01*
X53156280Y66847895D02*
X53156280Y66681228D01*
X53156280Y66681228D02*
X53122946Y66614562D01*
X53122946Y66614562D02*
X53089613Y66581228D01*
X53089613Y66581228D02*
X53022946Y66547895D01*
X53022946Y66547895D02*
X52856280Y66547895D01*
X52856280Y66547895D02*
X52789613Y66581228D01*
X52789613Y66581228D02*
X52756280Y66614562D01*
X52756280Y66614562D02*
X52722946Y66681228D01*
X52722946Y66681228D02*
X52722946Y66847895D01*
X52722946Y66847895D02*
X52756280Y66914562D01*
X52756280Y66914562D02*
X52789613Y66947895D01*
D11*
X62155312Y17465010D02*
X62079122Y17503105D01*
X62079122Y17503105D02*
X61964836Y17503105D01*
X61964836Y17503105D02*
X61850550Y17465010D01*
X61850550Y17465010D02*
X61774360Y17388820D01*
X61774360Y17388820D02*
X61736265Y17312629D01*
X61736265Y17312629D02*
X61698169Y17160248D01*
X61698169Y17160248D02*
X61698169Y17045962D01*
X61698169Y17045962D02*
X61736265Y16893581D01*
X61736265Y16893581D02*
X61774360Y16817391D01*
X61774360Y16817391D02*
X61850550Y16741200D01*
X61850550Y16741200D02*
X61964836Y16703105D01*
X61964836Y16703105D02*
X62041027Y16703105D01*
X62041027Y16703105D02*
X62155312Y16741200D01*
X62155312Y16741200D02*
X62193408Y16779296D01*
X62193408Y16779296D02*
X62193408Y17045962D01*
X62193408Y17045962D02*
X62041027Y17045962D01*
X62879122Y17236439D02*
X62879122Y16703105D01*
X62688646Y17541200D02*
X62498169Y16969772D01*
X62498169Y16969772D02*
X62993408Y16969772D01*
X63717217Y16703105D02*
X63260074Y16703105D01*
X63488646Y16703105D02*
X63488646Y17503105D01*
X63488646Y17503105D02*
X63412455Y17388820D01*
X63412455Y17388820D02*
X63336265Y17312629D01*
X63336265Y17312629D02*
X63260074Y17274534D01*
X62085312Y47825010D02*
X62009122Y47863105D01*
X62009122Y47863105D02*
X61894836Y47863105D01*
X61894836Y47863105D02*
X61780550Y47825010D01*
X61780550Y47825010D02*
X61704360Y47748820D01*
X61704360Y47748820D02*
X61666265Y47672629D01*
X61666265Y47672629D02*
X61628169Y47520248D01*
X61628169Y47520248D02*
X61628169Y47405962D01*
X61628169Y47405962D02*
X61666265Y47253581D01*
X61666265Y47253581D02*
X61704360Y47177391D01*
X61704360Y47177391D02*
X61780550Y47101200D01*
X61780550Y47101200D02*
X61894836Y47063105D01*
X61894836Y47063105D02*
X61971027Y47063105D01*
X61971027Y47063105D02*
X62085312Y47101200D01*
X62085312Y47101200D02*
X62123408Y47139296D01*
X62123408Y47139296D02*
X62123408Y47405962D01*
X62123408Y47405962D02*
X61971027Y47405962D01*
X62428169Y47786915D02*
X62466265Y47825010D01*
X62466265Y47825010D02*
X62542455Y47863105D01*
X62542455Y47863105D02*
X62732931Y47863105D01*
X62732931Y47863105D02*
X62809122Y47825010D01*
X62809122Y47825010D02*
X62847217Y47786915D01*
X62847217Y47786915D02*
X62885312Y47710724D01*
X62885312Y47710724D02*
X62885312Y47634534D01*
X62885312Y47634534D02*
X62847217Y47520248D01*
X62847217Y47520248D02*
X62390074Y47063105D01*
X62390074Y47063105D02*
X62885312Y47063105D01*
X63380551Y47863105D02*
X63456741Y47863105D01*
X63456741Y47863105D02*
X63532932Y47825010D01*
X63532932Y47825010D02*
X63571027Y47786915D01*
X63571027Y47786915D02*
X63609122Y47710724D01*
X63609122Y47710724D02*
X63647217Y47558343D01*
X63647217Y47558343D02*
X63647217Y47367867D01*
X63647217Y47367867D02*
X63609122Y47215486D01*
X63609122Y47215486D02*
X63571027Y47139296D01*
X63571027Y47139296D02*
X63532932Y47101200D01*
X63532932Y47101200D02*
X63456741Y47063105D01*
X63456741Y47063105D02*
X63380551Y47063105D01*
X63380551Y47063105D02*
X63304360Y47101200D01*
X63304360Y47101200D02*
X63266265Y47139296D01*
X63266265Y47139296D02*
X63228170Y47215486D01*
X63228170Y47215486D02*
X63190074Y47367867D01*
X63190074Y47367867D02*
X63190074Y47558343D01*
X63190074Y47558343D02*
X63228170Y47710724D01*
X63228170Y47710724D02*
X63266265Y47786915D01*
X63266265Y47786915D02*
X63304360Y47825010D01*
X63304360Y47825010D02*
X63380551Y47863105D01*
X62705312Y24915010D02*
X62629122Y24953105D01*
X62629122Y24953105D02*
X62514836Y24953105D01*
X62514836Y24953105D02*
X62400550Y24915010D01*
X62400550Y24915010D02*
X62324360Y24838820D01*
X62324360Y24838820D02*
X62286265Y24762629D01*
X62286265Y24762629D02*
X62248169Y24610248D01*
X62248169Y24610248D02*
X62248169Y24495962D01*
X62248169Y24495962D02*
X62286265Y24343581D01*
X62286265Y24343581D02*
X62324360Y24267391D01*
X62324360Y24267391D02*
X62400550Y24191200D01*
X62400550Y24191200D02*
X62514836Y24153105D01*
X62514836Y24153105D02*
X62591027Y24153105D01*
X62591027Y24153105D02*
X62705312Y24191200D01*
X62705312Y24191200D02*
X62743408Y24229296D01*
X62743408Y24229296D02*
X62743408Y24495962D01*
X62743408Y24495962D02*
X62591027Y24495962D01*
X63505312Y24153105D02*
X63048169Y24153105D01*
X63276741Y24153105D02*
X63276741Y24953105D01*
X63276741Y24953105D02*
X63200550Y24838820D01*
X63200550Y24838820D02*
X63124360Y24762629D01*
X63124360Y24762629D02*
X63048169Y24724534D01*
X41484990Y6225313D02*
X41446895Y6149123D01*
X41446895Y6149123D02*
X41446895Y6034837D01*
X41446895Y6034837D02*
X41484990Y5920551D01*
X41484990Y5920551D02*
X41561180Y5844361D01*
X41561180Y5844361D02*
X41637371Y5806266D01*
X41637371Y5806266D02*
X41789752Y5768170D01*
X41789752Y5768170D02*
X41904038Y5768170D01*
X41904038Y5768170D02*
X42056419Y5806266D01*
X42056419Y5806266D02*
X42132609Y5844361D01*
X42132609Y5844361D02*
X42208800Y5920551D01*
X42208800Y5920551D02*
X42246895Y6034837D01*
X42246895Y6034837D02*
X42246895Y6111028D01*
X42246895Y6111028D02*
X42208800Y6225313D01*
X42208800Y6225313D02*
X42170704Y6263409D01*
X42170704Y6263409D02*
X41904038Y6263409D01*
X41904038Y6263409D02*
X41904038Y6111028D01*
X41713561Y6949123D02*
X42246895Y6949123D01*
X41408800Y6758647D02*
X41980228Y6568170D01*
X41980228Y6568170D02*
X41980228Y7063409D01*
X41446895Y7520552D02*
X41446895Y7596742D01*
X41446895Y7596742D02*
X41484990Y7672933D01*
X41484990Y7672933D02*
X41523085Y7711028D01*
X41523085Y7711028D02*
X41599276Y7749123D01*
X41599276Y7749123D02*
X41751657Y7787218D01*
X41751657Y7787218D02*
X41942133Y7787218D01*
X41942133Y7787218D02*
X42094514Y7749123D01*
X42094514Y7749123D02*
X42170704Y7711028D01*
X42170704Y7711028D02*
X42208800Y7672933D01*
X42208800Y7672933D02*
X42246895Y7596742D01*
X42246895Y7596742D02*
X42246895Y7520552D01*
X42246895Y7520552D02*
X42208800Y7444361D01*
X42208800Y7444361D02*
X42170704Y7406266D01*
X42170704Y7406266D02*
X42094514Y7368171D01*
X42094514Y7368171D02*
X41942133Y7330075D01*
X41942133Y7330075D02*
X41751657Y7330075D01*
X41751657Y7330075D02*
X41599276Y7368171D01*
X41599276Y7368171D02*
X41523085Y7406266D01*
X41523085Y7406266D02*
X41484990Y7444361D01*
X41484990Y7444361D02*
X41446895Y7520552D01*
X49154990Y6205313D02*
X49116895Y6129123D01*
X49116895Y6129123D02*
X49116895Y6014837D01*
X49116895Y6014837D02*
X49154990Y5900551D01*
X49154990Y5900551D02*
X49231180Y5824361D01*
X49231180Y5824361D02*
X49307371Y5786266D01*
X49307371Y5786266D02*
X49459752Y5748170D01*
X49459752Y5748170D02*
X49574038Y5748170D01*
X49574038Y5748170D02*
X49726419Y5786266D01*
X49726419Y5786266D02*
X49802609Y5824361D01*
X49802609Y5824361D02*
X49878800Y5900551D01*
X49878800Y5900551D02*
X49916895Y6014837D01*
X49916895Y6014837D02*
X49916895Y6091028D01*
X49916895Y6091028D02*
X49878800Y6205313D01*
X49878800Y6205313D02*
X49840704Y6243409D01*
X49840704Y6243409D02*
X49574038Y6243409D01*
X49574038Y6243409D02*
X49574038Y6091028D01*
X49383561Y6929123D02*
X49916895Y6929123D01*
X49078800Y6738647D02*
X49650228Y6548170D01*
X49650228Y6548170D02*
X49650228Y7043409D01*
X49116895Y7271980D02*
X49116895Y7767218D01*
X49116895Y7767218D02*
X49421657Y7500552D01*
X49421657Y7500552D02*
X49421657Y7614837D01*
X49421657Y7614837D02*
X49459752Y7691028D01*
X49459752Y7691028D02*
X49497847Y7729123D01*
X49497847Y7729123D02*
X49574038Y7767218D01*
X49574038Y7767218D02*
X49764514Y7767218D01*
X49764514Y7767218D02*
X49840704Y7729123D01*
X49840704Y7729123D02*
X49878800Y7691028D01*
X49878800Y7691028D02*
X49916895Y7614837D01*
X49916895Y7614837D02*
X49916895Y7386266D01*
X49916895Y7386266D02*
X49878800Y7310075D01*
X49878800Y7310075D02*
X49840704Y7271980D01*
X92535312Y52895010D02*
X92459122Y52933105D01*
X92459122Y52933105D02*
X92344836Y52933105D01*
X92344836Y52933105D02*
X92230550Y52895010D01*
X92230550Y52895010D02*
X92154360Y52818820D01*
X92154360Y52818820D02*
X92116265Y52742629D01*
X92116265Y52742629D02*
X92078169Y52590248D01*
X92078169Y52590248D02*
X92078169Y52475962D01*
X92078169Y52475962D02*
X92116265Y52323581D01*
X92116265Y52323581D02*
X92154360Y52247391D01*
X92154360Y52247391D02*
X92230550Y52171200D01*
X92230550Y52171200D02*
X92344836Y52133105D01*
X92344836Y52133105D02*
X92421027Y52133105D01*
X92421027Y52133105D02*
X92535312Y52171200D01*
X92535312Y52171200D02*
X92573408Y52209296D01*
X92573408Y52209296D02*
X92573408Y52475962D01*
X92573408Y52475962D02*
X92421027Y52475962D01*
X92840074Y52933105D02*
X93335312Y52933105D01*
X93335312Y52933105D02*
X93068646Y52628343D01*
X93068646Y52628343D02*
X93182931Y52628343D01*
X93182931Y52628343D02*
X93259122Y52590248D01*
X93259122Y52590248D02*
X93297217Y52552153D01*
X93297217Y52552153D02*
X93335312Y52475962D01*
X93335312Y52475962D02*
X93335312Y52285486D01*
X93335312Y52285486D02*
X93297217Y52209296D01*
X93297217Y52209296D02*
X93259122Y52171200D01*
X93259122Y52171200D02*
X93182931Y52133105D01*
X93182931Y52133105D02*
X92954360Y52133105D01*
X92954360Y52133105D02*
X92878169Y52171200D01*
X92878169Y52171200D02*
X92840074Y52209296D01*
X93601979Y52933105D02*
X94135313Y52933105D01*
X94135313Y52933105D02*
X93792455Y52133105D01*
X32778646Y71078629D02*
X32778646Y71678629D01*
X33121503Y71078629D02*
X32864360Y71421486D01*
X33121503Y71678629D02*
X32778646Y71335772D01*
X92585312Y32755010D02*
X92509122Y32793105D01*
X92509122Y32793105D02*
X92394836Y32793105D01*
X92394836Y32793105D02*
X92280550Y32755010D01*
X92280550Y32755010D02*
X92204360Y32678820D01*
X92204360Y32678820D02*
X92166265Y32602629D01*
X92166265Y32602629D02*
X92128169Y32450248D01*
X92128169Y32450248D02*
X92128169Y32335962D01*
X92128169Y32335962D02*
X92166265Y32183581D01*
X92166265Y32183581D02*
X92204360Y32107391D01*
X92204360Y32107391D02*
X92280550Y32031200D01*
X92280550Y32031200D02*
X92394836Y31993105D01*
X92394836Y31993105D02*
X92471027Y31993105D01*
X92471027Y31993105D02*
X92585312Y32031200D01*
X92585312Y32031200D02*
X92623408Y32069296D01*
X92623408Y32069296D02*
X92623408Y32335962D01*
X92623408Y32335962D02*
X92471027Y32335962D01*
X92966265Y31993105D02*
X92966265Y32793105D01*
X92966265Y32793105D02*
X93423408Y31993105D01*
X93423408Y31993105D02*
X93423408Y32793105D01*
X93804360Y31993105D02*
X93804360Y32793105D01*
X93804360Y32793105D02*
X93994836Y32793105D01*
X93994836Y32793105D02*
X94109122Y32755010D01*
X94109122Y32755010D02*
X94185312Y32678820D01*
X94185312Y32678820D02*
X94223407Y32602629D01*
X94223407Y32602629D02*
X94261503Y32450248D01*
X94261503Y32450248D02*
X94261503Y32335962D01*
X94261503Y32335962D02*
X94223407Y32183581D01*
X94223407Y32183581D02*
X94185312Y32107391D01*
X94185312Y32107391D02*
X94109122Y32031200D01*
X94109122Y32031200D02*
X93994836Y31993105D01*
X93994836Y31993105D02*
X93804360Y31993105D01*
X75043884Y37797581D02*
X75043884Y38797581D01*
X75043884Y38797581D02*
X75377217Y38083296D01*
X75377217Y38083296D02*
X75710550Y38797581D01*
X75710550Y38797581D02*
X75710550Y37797581D01*
X76186741Y38321391D02*
X76520074Y38321391D01*
X76662931Y37797581D02*
X76186741Y37797581D01*
X76186741Y37797581D02*
X76186741Y38797581D01*
X76186741Y38797581D02*
X76662931Y38797581D01*
X76996265Y38797581D02*
X77662931Y38797581D01*
X77662931Y38797581D02*
X76996265Y37797581D01*
X76996265Y37797581D02*
X77662931Y37797581D01*
X79377217Y37892820D02*
X79329598Y37845200D01*
X79329598Y37845200D02*
X79186741Y37797581D01*
X79186741Y37797581D02*
X79091503Y37797581D01*
X79091503Y37797581D02*
X78948646Y37845200D01*
X78948646Y37845200D02*
X78853408Y37940439D01*
X78853408Y37940439D02*
X78805789Y38035677D01*
X78805789Y38035677D02*
X78758170Y38226153D01*
X78758170Y38226153D02*
X78758170Y38369010D01*
X78758170Y38369010D02*
X78805789Y38559486D01*
X78805789Y38559486D02*
X78853408Y38654724D01*
X78853408Y38654724D02*
X78948646Y38749962D01*
X78948646Y38749962D02*
X79091503Y38797581D01*
X79091503Y38797581D02*
X79186741Y38797581D01*
X79186741Y38797581D02*
X79329598Y38749962D01*
X79329598Y38749962D02*
X79377217Y38702343D01*
X79758170Y38083296D02*
X80234360Y38083296D01*
X79662932Y37797581D02*
X79996265Y38797581D01*
X79996265Y38797581D02*
X80329598Y37797581D01*
X81234360Y37797581D02*
X80901027Y38273772D01*
X80662932Y37797581D02*
X80662932Y38797581D01*
X80662932Y38797581D02*
X81043884Y38797581D01*
X81043884Y38797581D02*
X81139122Y38749962D01*
X81139122Y38749962D02*
X81186741Y38702343D01*
X81186741Y38702343D02*
X81234360Y38607105D01*
X81234360Y38607105D02*
X81234360Y38464248D01*
X81234360Y38464248D02*
X81186741Y38369010D01*
X81186741Y38369010D02*
X81139122Y38321391D01*
X81139122Y38321391D02*
X81043884Y38273772D01*
X81043884Y38273772D02*
X80662932Y38273772D01*
X81662932Y37797581D02*
X81662932Y38797581D01*
X81662932Y38797581D02*
X81901027Y38797581D01*
X81901027Y38797581D02*
X82043884Y38749962D01*
X82043884Y38749962D02*
X82139122Y38654724D01*
X82139122Y38654724D02*
X82186741Y38559486D01*
X82186741Y38559486D02*
X82234360Y38369010D01*
X82234360Y38369010D02*
X82234360Y38226153D01*
X82234360Y38226153D02*
X82186741Y38035677D01*
X82186741Y38035677D02*
X82139122Y37940439D01*
X82139122Y37940439D02*
X82043884Y37845200D01*
X82043884Y37845200D02*
X81901027Y37797581D01*
X81901027Y37797581D02*
X81662932Y37797581D01*
D12*
X48309613Y68654562D02*
X48342946Y68721229D01*
X48342946Y68721229D02*
X48342946Y68821229D01*
X48342946Y68821229D02*
X48309613Y68921229D01*
X48309613Y68921229D02*
X48242946Y68987895D01*
X48242946Y68987895D02*
X48176280Y69021229D01*
X48176280Y69021229D02*
X48042946Y69054562D01*
X48042946Y69054562D02*
X47942946Y69054562D01*
X47942946Y69054562D02*
X47809613Y69021229D01*
X47809613Y69021229D02*
X47742946Y68987895D01*
X47742946Y68987895D02*
X47676280Y68921229D01*
X47676280Y68921229D02*
X47642946Y68821229D01*
X47642946Y68821229D02*
X47642946Y68754562D01*
X47642946Y68754562D02*
X47676280Y68654562D01*
X47676280Y68654562D02*
X47709613Y68621229D01*
X47709613Y68621229D02*
X47942946Y68621229D01*
X47942946Y68621229D02*
X47942946Y68754562D01*
X47642946Y68321229D02*
X48342946Y68321229D01*
X48342946Y68321229D02*
X48342946Y68054562D01*
X48342946Y68054562D02*
X48309613Y67987895D01*
X48309613Y67987895D02*
X48276280Y67954562D01*
X48276280Y67954562D02*
X48209613Y67921229D01*
X48209613Y67921229D02*
X48109613Y67921229D01*
X48109613Y67921229D02*
X48042946Y67954562D01*
X48042946Y67954562D02*
X48009613Y67987895D01*
X48009613Y67987895D02*
X47976280Y68054562D01*
X47976280Y68054562D02*
X47976280Y68321229D01*
X48276280Y67654562D02*
X48309613Y67621229D01*
X48309613Y67621229D02*
X48342946Y67554562D01*
X48342946Y67554562D02*
X48342946Y67387895D01*
X48342946Y67387895D02*
X48309613Y67321229D01*
X48309613Y67321229D02*
X48276280Y67287895D01*
X48276280Y67287895D02*
X48209613Y67254562D01*
X48209613Y67254562D02*
X48142946Y67254562D01*
X48142946Y67254562D02*
X48042946Y67287895D01*
X48042946Y67287895D02*
X47642946Y67687895D01*
X47642946Y67687895D02*
X47642946Y67254562D01*
X48342946Y66621228D02*
X48342946Y66954562D01*
X48342946Y66954562D02*
X48009613Y66987895D01*
X48009613Y66987895D02*
X48042946Y66954562D01*
X48042946Y66954562D02*
X48076280Y66887895D01*
X48076280Y66887895D02*
X48076280Y66721228D01*
X48076280Y66721228D02*
X48042946Y66654562D01*
X48042946Y66654562D02*
X48009613Y66621228D01*
X48009613Y66621228D02*
X47942946Y66587895D01*
X47942946Y66587895D02*
X47776280Y66587895D01*
X47776280Y66587895D02*
X47709613Y66621228D01*
X47709613Y66621228D02*
X47676280Y66654562D01*
X47676280Y66654562D02*
X47642946Y66721228D01*
X47642946Y66721228D02*
X47642946Y66887895D01*
X47642946Y66887895D02*
X47676280Y66954562D01*
X47676280Y66954562D02*
X47709613Y66987895D01*
D11*
X61935312Y53095010D02*
X61859122Y53133105D01*
X61859122Y53133105D02*
X61744836Y53133105D01*
X61744836Y53133105D02*
X61630550Y53095010D01*
X61630550Y53095010D02*
X61554360Y53018820D01*
X61554360Y53018820D02*
X61516265Y52942629D01*
X61516265Y52942629D02*
X61478169Y52790248D01*
X61478169Y52790248D02*
X61478169Y52675962D01*
X61478169Y52675962D02*
X61516265Y52523581D01*
X61516265Y52523581D02*
X61554360Y52447391D01*
X61554360Y52447391D02*
X61630550Y52371200D01*
X61630550Y52371200D02*
X61744836Y52333105D01*
X61744836Y52333105D02*
X61821027Y52333105D01*
X61821027Y52333105D02*
X61935312Y52371200D01*
X61935312Y52371200D02*
X61973408Y52409296D01*
X61973408Y52409296D02*
X61973408Y52675962D01*
X61973408Y52675962D02*
X61821027Y52675962D01*
X62735312Y52333105D02*
X62278169Y52333105D01*
X62506741Y52333105D02*
X62506741Y53133105D01*
X62506741Y53133105D02*
X62430550Y53018820D01*
X62430550Y53018820D02*
X62354360Y52942629D01*
X62354360Y52942629D02*
X62278169Y52904534D01*
X63421027Y52866439D02*
X63421027Y52333105D01*
X63230551Y53171200D02*
X63040074Y52599772D01*
X63040074Y52599772D02*
X63535313Y52599772D01*
X92535312Y47945010D02*
X92459122Y47983105D01*
X92459122Y47983105D02*
X92344836Y47983105D01*
X92344836Y47983105D02*
X92230550Y47945010D01*
X92230550Y47945010D02*
X92154360Y47868820D01*
X92154360Y47868820D02*
X92116265Y47792629D01*
X92116265Y47792629D02*
X92078169Y47640248D01*
X92078169Y47640248D02*
X92078169Y47525962D01*
X92078169Y47525962D02*
X92116265Y47373581D01*
X92116265Y47373581D02*
X92154360Y47297391D01*
X92154360Y47297391D02*
X92230550Y47221200D01*
X92230550Y47221200D02*
X92344836Y47183105D01*
X92344836Y47183105D02*
X92421027Y47183105D01*
X92421027Y47183105D02*
X92535312Y47221200D01*
X92535312Y47221200D02*
X92573408Y47259296D01*
X92573408Y47259296D02*
X92573408Y47525962D01*
X92573408Y47525962D02*
X92421027Y47525962D01*
X92840074Y47983105D02*
X93335312Y47983105D01*
X93335312Y47983105D02*
X93068646Y47678343D01*
X93068646Y47678343D02*
X93182931Y47678343D01*
X93182931Y47678343D02*
X93259122Y47640248D01*
X93259122Y47640248D02*
X93297217Y47602153D01*
X93297217Y47602153D02*
X93335312Y47525962D01*
X93335312Y47525962D02*
X93335312Y47335486D01*
X93335312Y47335486D02*
X93297217Y47259296D01*
X93297217Y47259296D02*
X93259122Y47221200D01*
X93259122Y47221200D02*
X93182931Y47183105D01*
X93182931Y47183105D02*
X92954360Y47183105D01*
X92954360Y47183105D02*
X92878169Y47221200D01*
X92878169Y47221200D02*
X92840074Y47259296D01*
X94059122Y47983105D02*
X93678170Y47983105D01*
X93678170Y47983105D02*
X93640074Y47602153D01*
X93640074Y47602153D02*
X93678170Y47640248D01*
X93678170Y47640248D02*
X93754360Y47678343D01*
X93754360Y47678343D02*
X93944836Y47678343D01*
X93944836Y47678343D02*
X94021027Y47640248D01*
X94021027Y47640248D02*
X94059122Y47602153D01*
X94059122Y47602153D02*
X94097217Y47525962D01*
X94097217Y47525962D02*
X94097217Y47335486D01*
X94097217Y47335486D02*
X94059122Y47259296D01*
X94059122Y47259296D02*
X94021027Y47221200D01*
X94021027Y47221200D02*
X93944836Y47183105D01*
X93944836Y47183105D02*
X93754360Y47183105D01*
X93754360Y47183105D02*
X93678170Y47221200D01*
X93678170Y47221200D02*
X93640074Y47259296D01*
X92545312Y40325010D02*
X92469122Y40363105D01*
X92469122Y40363105D02*
X92354836Y40363105D01*
X92354836Y40363105D02*
X92240550Y40325010D01*
X92240550Y40325010D02*
X92164360Y40248820D01*
X92164360Y40248820D02*
X92126265Y40172629D01*
X92126265Y40172629D02*
X92088169Y40020248D01*
X92088169Y40020248D02*
X92088169Y39905962D01*
X92088169Y39905962D02*
X92126265Y39753581D01*
X92126265Y39753581D02*
X92164360Y39677391D01*
X92164360Y39677391D02*
X92240550Y39601200D01*
X92240550Y39601200D02*
X92354836Y39563105D01*
X92354836Y39563105D02*
X92431027Y39563105D01*
X92431027Y39563105D02*
X92545312Y39601200D01*
X92545312Y39601200D02*
X92583408Y39639296D01*
X92583408Y39639296D02*
X92583408Y39905962D01*
X92583408Y39905962D02*
X92431027Y39905962D01*
X92850074Y40363105D02*
X93345312Y40363105D01*
X93345312Y40363105D02*
X93078646Y40058343D01*
X93078646Y40058343D02*
X93192931Y40058343D01*
X93192931Y40058343D02*
X93269122Y40020248D01*
X93269122Y40020248D02*
X93307217Y39982153D01*
X93307217Y39982153D02*
X93345312Y39905962D01*
X93345312Y39905962D02*
X93345312Y39715486D01*
X93345312Y39715486D02*
X93307217Y39639296D01*
X93307217Y39639296D02*
X93269122Y39601200D01*
X93269122Y39601200D02*
X93192931Y39563105D01*
X93192931Y39563105D02*
X92964360Y39563105D01*
X92964360Y39563105D02*
X92888169Y39601200D01*
X92888169Y39601200D02*
X92850074Y39639296D01*
X93650074Y40286915D02*
X93688170Y40325010D01*
X93688170Y40325010D02*
X93764360Y40363105D01*
X93764360Y40363105D02*
X93954836Y40363105D01*
X93954836Y40363105D02*
X94031027Y40325010D01*
X94031027Y40325010D02*
X94069122Y40286915D01*
X94069122Y40286915D02*
X94107217Y40210724D01*
X94107217Y40210724D02*
X94107217Y40134534D01*
X94107217Y40134534D02*
X94069122Y40020248D01*
X94069122Y40020248D02*
X93611979Y39563105D01*
X93611979Y39563105D02*
X94107217Y39563105D01*
D13*
X21053775Y14455740D02*
X20253775Y14455740D01*
X20253775Y14455740D02*
X20825203Y14722406D01*
X20825203Y14722406D02*
X20253775Y14989073D01*
X20253775Y14989073D02*
X21053775Y14989073D01*
X21053775Y15370026D02*
X20253775Y15370026D01*
X21015680Y15712882D02*
X21053775Y15827168D01*
X21053775Y15827168D02*
X21053775Y16017644D01*
X21053775Y16017644D02*
X21015680Y16093835D01*
X21015680Y16093835D02*
X20977584Y16131930D01*
X20977584Y16131930D02*
X20901394Y16170025D01*
X20901394Y16170025D02*
X20825203Y16170025D01*
X20825203Y16170025D02*
X20749013Y16131930D01*
X20749013Y16131930D02*
X20710918Y16093835D01*
X20710918Y16093835D02*
X20672822Y16017644D01*
X20672822Y16017644D02*
X20634727Y15865263D01*
X20634727Y15865263D02*
X20596632Y15789073D01*
X20596632Y15789073D02*
X20558537Y15750978D01*
X20558537Y15750978D02*
X20482346Y15712882D01*
X20482346Y15712882D02*
X20406156Y15712882D01*
X20406156Y15712882D02*
X20329965Y15750978D01*
X20329965Y15750978D02*
X20291870Y15789073D01*
X20291870Y15789073D02*
X20253775Y15865263D01*
X20253775Y15865263D02*
X20253775Y16055740D01*
X20253775Y16055740D02*
X20291870Y16170025D01*
X20253775Y16665264D02*
X20253775Y16817645D01*
X20253775Y16817645D02*
X20291870Y16893835D01*
X20291870Y16893835D02*
X20368060Y16970026D01*
X20368060Y16970026D02*
X20520441Y17008121D01*
X20520441Y17008121D02*
X20787108Y17008121D01*
X20787108Y17008121D02*
X20939489Y16970026D01*
X20939489Y16970026D02*
X21015680Y16893835D01*
X21015680Y16893835D02*
X21053775Y16817645D01*
X21053775Y16817645D02*
X21053775Y16665264D01*
X21053775Y16665264D02*
X21015680Y16589073D01*
X21015680Y16589073D02*
X20939489Y16512883D01*
X20939489Y16512883D02*
X20787108Y16474787D01*
X20787108Y16474787D02*
X20520441Y16474787D01*
X20520441Y16474787D02*
X20368060Y16512883D01*
X20368060Y16512883D02*
X20291870Y16589073D01*
X20291870Y16589073D02*
X20253775Y16665264D01*
D11*
X92475312Y50435010D02*
X92399122Y50473105D01*
X92399122Y50473105D02*
X92284836Y50473105D01*
X92284836Y50473105D02*
X92170550Y50435010D01*
X92170550Y50435010D02*
X92094360Y50358820D01*
X92094360Y50358820D02*
X92056265Y50282629D01*
X92056265Y50282629D02*
X92018169Y50130248D01*
X92018169Y50130248D02*
X92018169Y50015962D01*
X92018169Y50015962D02*
X92056265Y49863581D01*
X92056265Y49863581D02*
X92094360Y49787391D01*
X92094360Y49787391D02*
X92170550Y49711200D01*
X92170550Y49711200D02*
X92284836Y49673105D01*
X92284836Y49673105D02*
X92361027Y49673105D01*
X92361027Y49673105D02*
X92475312Y49711200D01*
X92475312Y49711200D02*
X92513408Y49749296D01*
X92513408Y49749296D02*
X92513408Y50015962D01*
X92513408Y50015962D02*
X92361027Y50015962D01*
X92780074Y50473105D02*
X93275312Y50473105D01*
X93275312Y50473105D02*
X93008646Y50168343D01*
X93008646Y50168343D02*
X93122931Y50168343D01*
X93122931Y50168343D02*
X93199122Y50130248D01*
X93199122Y50130248D02*
X93237217Y50092153D01*
X93237217Y50092153D02*
X93275312Y50015962D01*
X93275312Y50015962D02*
X93275312Y49825486D01*
X93275312Y49825486D02*
X93237217Y49749296D01*
X93237217Y49749296D02*
X93199122Y49711200D01*
X93199122Y49711200D02*
X93122931Y49673105D01*
X93122931Y49673105D02*
X92894360Y49673105D01*
X92894360Y49673105D02*
X92818169Y49711200D01*
X92818169Y49711200D02*
X92780074Y49749296D01*
X93961027Y50473105D02*
X93808646Y50473105D01*
X93808646Y50473105D02*
X93732455Y50435010D01*
X93732455Y50435010D02*
X93694360Y50396915D01*
X93694360Y50396915D02*
X93618170Y50282629D01*
X93618170Y50282629D02*
X93580074Y50130248D01*
X93580074Y50130248D02*
X93580074Y49825486D01*
X93580074Y49825486D02*
X93618170Y49749296D01*
X93618170Y49749296D02*
X93656265Y49711200D01*
X93656265Y49711200D02*
X93732455Y49673105D01*
X93732455Y49673105D02*
X93884836Y49673105D01*
X93884836Y49673105D02*
X93961027Y49711200D01*
X93961027Y49711200D02*
X93999122Y49749296D01*
X93999122Y49749296D02*
X94037217Y49825486D01*
X94037217Y49825486D02*
X94037217Y50015962D01*
X94037217Y50015962D02*
X93999122Y50092153D01*
X93999122Y50092153D02*
X93961027Y50130248D01*
X93961027Y50130248D02*
X93884836Y50168343D01*
X93884836Y50168343D02*
X93732455Y50168343D01*
X93732455Y50168343D02*
X93656265Y50130248D01*
X93656265Y50130248D02*
X93618170Y50092153D01*
X93618170Y50092153D02*
X93580074Y50015962D01*
D16*
X62058712Y74243322D02*
X61647997Y74957608D01*
X61201569Y74243322D02*
X61389069Y75743322D01*
X61389069Y75743322D02*
X61960497Y75743322D01*
X61960497Y75743322D02*
X62094426Y75671893D01*
X62094426Y75671893D02*
X62156926Y75600465D01*
X62156926Y75600465D02*
X62210497Y75457608D01*
X62210497Y75457608D02*
X62183712Y75243322D01*
X62183712Y75243322D02*
X62094426Y75100465D01*
X62094426Y75100465D02*
X62014069Y75029036D01*
X62014069Y75029036D02*
X61862283Y74957608D01*
X61862283Y74957608D02*
X61290855Y74957608D01*
X62701569Y74243322D02*
X62889069Y75743322D01*
X62889069Y75743322D02*
X63460497Y75743322D01*
X63460497Y75743322D02*
X63594426Y75671893D01*
X63594426Y75671893D02*
X63656926Y75600465D01*
X63656926Y75600465D02*
X63710497Y75457608D01*
X63710497Y75457608D02*
X63683712Y75243322D01*
X63683712Y75243322D02*
X63594426Y75100465D01*
X63594426Y75100465D02*
X63514069Y75029036D01*
X63514069Y75029036D02*
X63362283Y74957608D01*
X63362283Y74957608D02*
X62790855Y74957608D01*
X64299783Y75600465D02*
X64380140Y75671893D01*
X64380140Y75671893D02*
X64531926Y75743322D01*
X64531926Y75743322D02*
X64889069Y75743322D01*
X64889069Y75743322D02*
X65022997Y75671893D01*
X65022997Y75671893D02*
X65085497Y75600465D01*
X65085497Y75600465D02*
X65139069Y75457608D01*
X65139069Y75457608D02*
X65121212Y75314750D01*
X65121212Y75314750D02*
X65022997Y75100465D01*
X65022997Y75100465D02*
X64058712Y74243322D01*
X64058712Y74243322D02*
X64987283Y74243322D01*
X65674783Y75743322D02*
X66603354Y75743322D01*
X66603354Y75743322D02*
X66031926Y75171893D01*
X66031926Y75171893D02*
X66246211Y75171893D01*
X66246211Y75171893D02*
X66380140Y75100465D01*
X66380140Y75100465D02*
X66442640Y75029036D01*
X66442640Y75029036D02*
X66496211Y74886179D01*
X66496211Y74886179D02*
X66451568Y74529036D01*
X66451568Y74529036D02*
X66362283Y74386179D01*
X66362283Y74386179D02*
X66281926Y74314750D01*
X66281926Y74314750D02*
X66130140Y74243322D01*
X66130140Y74243322D02*
X65701568Y74243322D01*
X65701568Y74243322D02*
X65567640Y74314750D01*
X65567640Y74314750D02*
X65505140Y74386179D01*
X67960497Y75743322D02*
X67246211Y75743322D01*
X67246211Y75743322D02*
X67085497Y75029036D01*
X67085497Y75029036D02*
X67165854Y75100465D01*
X67165854Y75100465D02*
X67317639Y75171893D01*
X67317639Y75171893D02*
X67674782Y75171893D01*
X67674782Y75171893D02*
X67808711Y75100465D01*
X67808711Y75100465D02*
X67871211Y75029036D01*
X67871211Y75029036D02*
X67924782Y74886179D01*
X67924782Y74886179D02*
X67880139Y74529036D01*
X67880139Y74529036D02*
X67790854Y74386179D01*
X67790854Y74386179D02*
X67710497Y74314750D01*
X67710497Y74314750D02*
X67558711Y74243322D01*
X67558711Y74243322D02*
X67201568Y74243322D01*
X67201568Y74243322D02*
X67067639Y74314750D01*
X67067639Y74314750D02*
X67005139Y74386179D01*
X68960496Y75743322D02*
X69103353Y75743322D01*
X69103353Y75743322D02*
X69237282Y75671893D01*
X69237282Y75671893D02*
X69299782Y75600465D01*
X69299782Y75600465D02*
X69353353Y75457608D01*
X69353353Y75457608D02*
X69389068Y75171893D01*
X69389068Y75171893D02*
X69344425Y74814750D01*
X69344425Y74814750D02*
X69237282Y74529036D01*
X69237282Y74529036D02*
X69147996Y74386179D01*
X69147996Y74386179D02*
X69067639Y74314750D01*
X69067639Y74314750D02*
X68915853Y74243322D01*
X68915853Y74243322D02*
X68772996Y74243322D01*
X68772996Y74243322D02*
X68639068Y74314750D01*
X68639068Y74314750D02*
X68576568Y74386179D01*
X68576568Y74386179D02*
X68522996Y74529036D01*
X68522996Y74529036D02*
X68487282Y74814750D01*
X68487282Y74814750D02*
X68531925Y75171893D01*
X68531925Y75171893D02*
X68639068Y75457608D01*
X68639068Y75457608D02*
X68728353Y75600465D01*
X68728353Y75600465D02*
X68808710Y75671893D01*
X68808710Y75671893D02*
X68960496Y75743322D01*
X70514067Y75029036D02*
X70719424Y74957608D01*
X70719424Y74957608D02*
X70781924Y74886179D01*
X70781924Y74886179D02*
X70835496Y74743322D01*
X70835496Y74743322D02*
X70808710Y74529036D01*
X70808710Y74529036D02*
X70719424Y74386179D01*
X70719424Y74386179D02*
X70639067Y74314750D01*
X70639067Y74314750D02*
X70487281Y74243322D01*
X70487281Y74243322D02*
X69915853Y74243322D01*
X69915853Y74243322D02*
X70103353Y75743322D01*
X70103353Y75743322D02*
X70603353Y75743322D01*
X70603353Y75743322D02*
X70737281Y75671893D01*
X70737281Y75671893D02*
X70799781Y75600465D01*
X70799781Y75600465D02*
X70853353Y75457608D01*
X70853353Y75457608D02*
X70835496Y75314750D01*
X70835496Y75314750D02*
X70746210Y75171893D01*
X70746210Y75171893D02*
X70665853Y75100465D01*
X70665853Y75100465D02*
X70514067Y75029036D01*
X70514067Y75029036D02*
X70014067Y75029036D01*
X72656924Y75029036D02*
X73156924Y75029036D01*
X73272996Y74243322D02*
X72558710Y74243322D01*
X72558710Y74243322D02*
X72746210Y75743322D01*
X72746210Y75743322D02*
X73460496Y75743322D01*
X73915853Y74243322D02*
X74103353Y75743322D01*
X74103353Y75743322D02*
X74469424Y74671893D01*
X74469424Y74671893D02*
X75103353Y75743322D01*
X75103353Y75743322D02*
X74915853Y74243322D01*
X75817639Y75743322D02*
X75665853Y74529036D01*
X75665853Y74529036D02*
X75719425Y74386179D01*
X75719425Y74386179D02*
X75781925Y74314750D01*
X75781925Y74314750D02*
X75915853Y74243322D01*
X75915853Y74243322D02*
X76201567Y74243322D01*
X76201567Y74243322D02*
X76353353Y74314750D01*
X76353353Y74314750D02*
X76433710Y74386179D01*
X76433710Y74386179D02*
X76522996Y74529036D01*
X76522996Y74529036D02*
X76674782Y75743322D01*
X79201568Y74243322D02*
X78790853Y74957608D01*
X78344425Y74243322D02*
X78531925Y75743322D01*
X78531925Y75743322D02*
X79103353Y75743322D01*
X79103353Y75743322D02*
X79237282Y75671893D01*
X79237282Y75671893D02*
X79299782Y75600465D01*
X79299782Y75600465D02*
X79353353Y75457608D01*
X79353353Y75457608D02*
X79326568Y75243322D01*
X79326568Y75243322D02*
X79237282Y75100465D01*
X79237282Y75100465D02*
X79156925Y75029036D01*
X79156925Y75029036D02*
X79005139Y74957608D01*
X79005139Y74957608D02*
X78433711Y74957608D01*
X80424782Y74314750D02*
X80272996Y74243322D01*
X80272996Y74243322D02*
X79987282Y74243322D01*
X79987282Y74243322D02*
X79853353Y74314750D01*
X79853353Y74314750D02*
X79799782Y74457608D01*
X79799782Y74457608D02*
X79871211Y75029036D01*
X79871211Y75029036D02*
X79960496Y75171893D01*
X79960496Y75171893D02*
X80112282Y75243322D01*
X80112282Y75243322D02*
X80397996Y75243322D01*
X80397996Y75243322D02*
X80531925Y75171893D01*
X80531925Y75171893D02*
X80585496Y75029036D01*
X80585496Y75029036D02*
X80567639Y74886179D01*
X80567639Y74886179D02*
X79835496Y74743322D01*
X81112282Y75243322D02*
X81344425Y74243322D01*
X81344425Y74243322D02*
X81826567Y75243322D01*
X83889067Y75743322D02*
X84031924Y75743322D01*
X84031924Y75743322D02*
X84165853Y75671893D01*
X84165853Y75671893D02*
X84228353Y75600465D01*
X84228353Y75600465D02*
X84281924Y75457608D01*
X84281924Y75457608D02*
X84317639Y75171893D01*
X84317639Y75171893D02*
X84272996Y74814750D01*
X84272996Y74814750D02*
X84165853Y74529036D01*
X84165853Y74529036D02*
X84076567Y74386179D01*
X84076567Y74386179D02*
X83996210Y74314750D01*
X83996210Y74314750D02*
X83844424Y74243322D01*
X83844424Y74243322D02*
X83701567Y74243322D01*
X83701567Y74243322D02*
X83567639Y74314750D01*
X83567639Y74314750D02*
X83505139Y74386179D01*
X83505139Y74386179D02*
X83451567Y74529036D01*
X83451567Y74529036D02*
X83415853Y74814750D01*
X83415853Y74814750D02*
X83460496Y75171893D01*
X83460496Y75171893D02*
X83567639Y75457608D01*
X83567639Y75457608D02*
X83656924Y75600465D01*
X83656924Y75600465D02*
X83737281Y75671893D01*
X83737281Y75671893D02*
X83889067Y75743322D01*
X84862281Y74386179D02*
X84924781Y74314750D01*
X84924781Y74314750D02*
X84844424Y74243322D01*
X84844424Y74243322D02*
X84781924Y74314750D01*
X84781924Y74314750D02*
X84862281Y74386179D01*
X84862281Y74386179D02*
X84844424Y74243322D01*
X85656924Y75600465D02*
X85737281Y75671893D01*
X85737281Y75671893D02*
X85889067Y75743322D01*
X85889067Y75743322D02*
X86246210Y75743322D01*
X86246210Y75743322D02*
X86380138Y75671893D01*
X86380138Y75671893D02*
X86442638Y75600465D01*
X86442638Y75600465D02*
X86496210Y75457608D01*
X86496210Y75457608D02*
X86478353Y75314750D01*
X86478353Y75314750D02*
X86380138Y75100465D01*
X86380138Y75100465D02*
X85415853Y74243322D01*
X85415853Y74243322D02*
X86344424Y74243322D01*
D11*
X11051503Y5171060D02*
X11151503Y5971060D01*
X11394360Y5171060D02*
X11446741Y5590108D01*
X11446741Y5590108D02*
X11418169Y5666298D01*
X11418169Y5666298D02*
X11346741Y5704394D01*
X11346741Y5704394D02*
X11232455Y5704394D01*
X11232455Y5704394D02*
X11151503Y5666298D01*
X11151503Y5666298D02*
X11108646Y5628203D01*
X11727694Y5704394D02*
X12032456Y5704394D01*
X11875313Y5971060D02*
X11789599Y5285346D01*
X11789599Y5285346D02*
X11818170Y5209155D01*
X11818170Y5209155D02*
X11889599Y5171060D01*
X11889599Y5171060D02*
X11965789Y5171060D01*
X12184837Y5704394D02*
X12489599Y5704394D01*
X12332456Y5971060D02*
X12246742Y5285346D01*
X12246742Y5285346D02*
X12275313Y5209155D01*
X12275313Y5209155D02*
X12346742Y5171060D01*
X12346742Y5171060D02*
X12422932Y5171060D01*
X12756265Y5704394D02*
X12656265Y4904394D01*
X12751504Y5666298D02*
X12832456Y5704394D01*
X12832456Y5704394D02*
X12984837Y5704394D01*
X12984837Y5704394D02*
X13056265Y5666298D01*
X13056265Y5666298D02*
X13089599Y5628203D01*
X13089599Y5628203D02*
X13118170Y5552013D01*
X13118170Y5552013D02*
X13089599Y5323441D01*
X13089599Y5323441D02*
X13041980Y5247251D01*
X13041980Y5247251D02*
X12999123Y5209155D01*
X12999123Y5209155D02*
X12918170Y5171060D01*
X12918170Y5171060D02*
X12765789Y5171060D01*
X12765789Y5171060D02*
X12694361Y5209155D01*
X13380075Y5209155D02*
X13451504Y5171060D01*
X13451504Y5171060D02*
X13603885Y5171060D01*
X13603885Y5171060D02*
X13684837Y5209155D01*
X13684837Y5209155D02*
X13732456Y5285346D01*
X13732456Y5285346D02*
X13737218Y5323441D01*
X13737218Y5323441D02*
X13708647Y5399632D01*
X13708647Y5399632D02*
X13637218Y5437727D01*
X13637218Y5437727D02*
X13522933Y5437727D01*
X13522933Y5437727D02*
X13451504Y5475822D01*
X13451504Y5475822D02*
X13422933Y5552013D01*
X13422933Y5552013D02*
X13427695Y5590108D01*
X13427695Y5590108D02*
X13475314Y5666298D01*
X13475314Y5666298D02*
X13556266Y5704394D01*
X13556266Y5704394D02*
X13670552Y5704394D01*
X13670552Y5704394D02*
X13741980Y5666298D01*
X14070552Y5247251D02*
X14103885Y5209155D01*
X14103885Y5209155D02*
X14061028Y5171060D01*
X14061028Y5171060D02*
X14027694Y5209155D01*
X14027694Y5209155D02*
X14070552Y5247251D01*
X14070552Y5247251D02*
X14061028Y5171060D01*
X14122933Y5666298D02*
X14156266Y5628203D01*
X14156266Y5628203D02*
X14113409Y5590108D01*
X14113409Y5590108D02*
X14080075Y5628203D01*
X14080075Y5628203D02*
X14122933Y5666298D01*
X14122933Y5666298D02*
X14113409Y5590108D01*
X15118170Y6009155D02*
X14303885Y4980584D01*
X15956265Y6009155D02*
X15141980Y4980584D01*
X16041979Y5171060D02*
X16527694Y5704394D01*
X16108646Y5704394D02*
X16461027Y5171060D01*
X16775313Y5247251D02*
X16808646Y5209155D01*
X16808646Y5209155D02*
X16765789Y5171060D01*
X16765789Y5171060D02*
X16732455Y5209155D01*
X16732455Y5209155D02*
X16775313Y5247251D01*
X16775313Y5247251D02*
X16765789Y5171060D01*
X17494360Y5209155D02*
X17413407Y5171060D01*
X17413407Y5171060D02*
X17261027Y5171060D01*
X17261027Y5171060D02*
X17189598Y5209155D01*
X17189598Y5209155D02*
X17156265Y5247251D01*
X17156265Y5247251D02*
X17127693Y5323441D01*
X17127693Y5323441D02*
X17156265Y5552013D01*
X17156265Y5552013D02*
X17203884Y5628203D01*
X17203884Y5628203D02*
X17246741Y5666298D01*
X17246741Y5666298D02*
X17327693Y5704394D01*
X17327693Y5704394D02*
X17480074Y5704394D01*
X17480074Y5704394D02*
X17551503Y5666298D01*
X17946741Y5171060D02*
X17875312Y5209155D01*
X17875312Y5209155D02*
X17841979Y5247251D01*
X17841979Y5247251D02*
X17813407Y5323441D01*
X17813407Y5323441D02*
X17841979Y5552013D01*
X17841979Y5552013D02*
X17889598Y5628203D01*
X17889598Y5628203D02*
X17932455Y5666298D01*
X17932455Y5666298D02*
X18013407Y5704394D01*
X18013407Y5704394D02*
X18127693Y5704394D01*
X18127693Y5704394D02*
X18199121Y5666298D01*
X18199121Y5666298D02*
X18232455Y5628203D01*
X18232455Y5628203D02*
X18261026Y5552013D01*
X18261026Y5552013D02*
X18232455Y5323441D01*
X18232455Y5323441D02*
X18184836Y5247251D01*
X18184836Y5247251D02*
X18141979Y5209155D01*
X18141979Y5209155D02*
X18061026Y5171060D01*
X18061026Y5171060D02*
X17946741Y5171060D01*
X18556265Y5171060D02*
X18622931Y5704394D01*
X18613408Y5628203D02*
X18656265Y5666298D01*
X18656265Y5666298D02*
X18737217Y5704394D01*
X18737217Y5704394D02*
X18851503Y5704394D01*
X18851503Y5704394D02*
X18922931Y5666298D01*
X18922931Y5666298D02*
X18951503Y5590108D01*
X18951503Y5590108D02*
X18899122Y5171060D01*
X18951503Y5590108D02*
X18999122Y5666298D01*
X18999122Y5666298D02*
X19080074Y5704394D01*
X19080074Y5704394D02*
X19194360Y5704394D01*
X19194360Y5704394D02*
X19265789Y5666298D01*
X19265789Y5666298D02*
X19294360Y5590108D01*
X19294360Y5590108D02*
X19241979Y5171060D01*
X20299122Y6009155D02*
X19484837Y4980584D01*
X20803884Y5171060D02*
X20856265Y5590108D01*
X20856265Y5590108D02*
X20827693Y5666298D01*
X20827693Y5666298D02*
X20756265Y5704394D01*
X20756265Y5704394D02*
X20603884Y5704394D01*
X20603884Y5704394D02*
X20522932Y5666298D01*
X20808646Y5209155D02*
X20727693Y5171060D01*
X20727693Y5171060D02*
X20537217Y5171060D01*
X20537217Y5171060D02*
X20465789Y5209155D01*
X20465789Y5209155D02*
X20437217Y5285346D01*
X20437217Y5285346D02*
X20446741Y5361536D01*
X20446741Y5361536D02*
X20494360Y5437727D01*
X20494360Y5437727D02*
X20575313Y5475822D01*
X20575313Y5475822D02*
X20765789Y5475822D01*
X20765789Y5475822D02*
X20846741Y5513917D01*
X21184837Y5171060D02*
X21284837Y5971060D01*
X21299123Y5475822D02*
X21489599Y5171060D01*
X21556265Y5704394D02*
X21213408Y5399632D01*
X21832456Y5171060D02*
X21899122Y5704394D01*
X21932456Y5971060D02*
X21889599Y5932965D01*
X21889599Y5932965D02*
X21922932Y5894870D01*
X21922932Y5894870D02*
X21965789Y5932965D01*
X21965789Y5932965D02*
X21932456Y5971060D01*
X21932456Y5971060D02*
X21922932Y5894870D01*
X22213408Y5171060D02*
X22313408Y5971060D01*
X22556265Y5171060D02*
X22608646Y5590108D01*
X22608646Y5590108D02*
X22580074Y5666298D01*
X22580074Y5666298D02*
X22508646Y5704394D01*
X22508646Y5704394D02*
X22394360Y5704394D01*
X22394360Y5704394D02*
X22313408Y5666298D01*
X22313408Y5666298D02*
X22270551Y5628203D01*
X22737218Y5094870D02*
X23346742Y5094870D01*
X23513408Y5209155D02*
X23584837Y5171060D01*
X23584837Y5171060D02*
X23737218Y5171060D01*
X23737218Y5171060D02*
X23818170Y5209155D01*
X23818170Y5209155D02*
X23865789Y5285346D01*
X23865789Y5285346D02*
X23870551Y5323441D01*
X23870551Y5323441D02*
X23841980Y5399632D01*
X23841980Y5399632D02*
X23770551Y5437727D01*
X23770551Y5437727D02*
X23656266Y5437727D01*
X23656266Y5437727D02*
X23584837Y5475822D01*
X23584837Y5475822D02*
X23556266Y5552013D01*
X23556266Y5552013D02*
X23561028Y5590108D01*
X23561028Y5590108D02*
X23608647Y5666298D01*
X23608647Y5666298D02*
X23689599Y5704394D01*
X23689599Y5704394D02*
X23803885Y5704394D01*
X23803885Y5704394D02*
X23875313Y5666298D01*
X24537218Y5171060D02*
X24589599Y5590108D01*
X24589599Y5590108D02*
X24561027Y5666298D01*
X24561027Y5666298D02*
X24489599Y5704394D01*
X24489599Y5704394D02*
X24337218Y5704394D01*
X24337218Y5704394D02*
X24256266Y5666298D01*
X24541980Y5209155D02*
X24461027Y5171060D01*
X24461027Y5171060D02*
X24270551Y5171060D01*
X24270551Y5171060D02*
X24199123Y5209155D01*
X24199123Y5209155D02*
X24170551Y5285346D01*
X24170551Y5285346D02*
X24180075Y5361536D01*
X24180075Y5361536D02*
X24227694Y5437727D01*
X24227694Y5437727D02*
X24308647Y5475822D01*
X24308647Y5475822D02*
X24499123Y5475822D01*
X24499123Y5475822D02*
X24580075Y5513917D01*
X24984837Y5704394D02*
X24918171Y5171060D01*
X24975314Y5628203D02*
X25018171Y5666298D01*
X25018171Y5666298D02*
X25099123Y5704394D01*
X25099123Y5704394D02*
X25213409Y5704394D01*
X25213409Y5704394D02*
X25284837Y5666298D01*
X25284837Y5666298D02*
X25313409Y5590108D01*
X25313409Y5590108D02*
X25261028Y5171060D01*
X11051503Y3883105D02*
X11151503Y4683105D01*
X11394360Y3883105D02*
X11446741Y4302153D01*
X11446741Y4302153D02*
X11418169Y4378343D01*
X11418169Y4378343D02*
X11346741Y4416439D01*
X11346741Y4416439D02*
X11232455Y4416439D01*
X11232455Y4416439D02*
X11151503Y4378343D01*
X11151503Y4378343D02*
X11108646Y4340248D01*
X11727694Y4416439D02*
X12032456Y4416439D01*
X11875313Y4683105D02*
X11789599Y3997391D01*
X11789599Y3997391D02*
X11818170Y3921200D01*
X11818170Y3921200D02*
X11889599Y3883105D01*
X11889599Y3883105D02*
X11965789Y3883105D01*
X12184837Y4416439D02*
X12489599Y4416439D01*
X12332456Y4683105D02*
X12246742Y3997391D01*
X12246742Y3997391D02*
X12275313Y3921200D01*
X12275313Y3921200D02*
X12346742Y3883105D01*
X12346742Y3883105D02*
X12422932Y3883105D01*
X12756265Y4416439D02*
X12656265Y3616439D01*
X12751504Y4378343D02*
X12832456Y4416439D01*
X12832456Y4416439D02*
X12984837Y4416439D01*
X12984837Y4416439D02*
X13056265Y4378343D01*
X13056265Y4378343D02*
X13089599Y4340248D01*
X13089599Y4340248D02*
X13118170Y4264058D01*
X13118170Y4264058D02*
X13089599Y4035486D01*
X13089599Y4035486D02*
X13041980Y3959296D01*
X13041980Y3959296D02*
X12999123Y3921200D01*
X12999123Y3921200D02*
X12918170Y3883105D01*
X12918170Y3883105D02*
X12765789Y3883105D01*
X12765789Y3883105D02*
X12694361Y3921200D01*
X13380075Y3921200D02*
X13451504Y3883105D01*
X13451504Y3883105D02*
X13603885Y3883105D01*
X13603885Y3883105D02*
X13684837Y3921200D01*
X13684837Y3921200D02*
X13732456Y3997391D01*
X13732456Y3997391D02*
X13737218Y4035486D01*
X13737218Y4035486D02*
X13708647Y4111677D01*
X13708647Y4111677D02*
X13637218Y4149772D01*
X13637218Y4149772D02*
X13522933Y4149772D01*
X13522933Y4149772D02*
X13451504Y4187867D01*
X13451504Y4187867D02*
X13422933Y4264058D01*
X13422933Y4264058D02*
X13427695Y4302153D01*
X13427695Y4302153D02*
X13475314Y4378343D01*
X13475314Y4378343D02*
X13556266Y4416439D01*
X13556266Y4416439D02*
X13670552Y4416439D01*
X13670552Y4416439D02*
X13741980Y4378343D01*
X14070552Y3959296D02*
X14103885Y3921200D01*
X14103885Y3921200D02*
X14061028Y3883105D01*
X14061028Y3883105D02*
X14027694Y3921200D01*
X14027694Y3921200D02*
X14070552Y3959296D01*
X14070552Y3959296D02*
X14061028Y3883105D01*
X14122933Y4378343D02*
X14156266Y4340248D01*
X14156266Y4340248D02*
X14113409Y4302153D01*
X14113409Y4302153D02*
X14080075Y4340248D01*
X14080075Y4340248D02*
X14122933Y4378343D01*
X14122933Y4378343D02*
X14113409Y4302153D01*
X15118170Y4721200D02*
X14303885Y3692629D01*
X15956265Y4721200D02*
X15141980Y3692629D01*
X16527694Y4416439D02*
X16446741Y3768820D01*
X16446741Y3768820D02*
X16399122Y3692629D01*
X16399122Y3692629D02*
X16356265Y3654534D01*
X16356265Y3654534D02*
X16275313Y3616439D01*
X16275313Y3616439D02*
X16161027Y3616439D01*
X16161027Y3616439D02*
X16089598Y3654534D01*
X16465789Y3921200D02*
X16384836Y3883105D01*
X16384836Y3883105D02*
X16232456Y3883105D01*
X16232456Y3883105D02*
X16161027Y3921200D01*
X16161027Y3921200D02*
X16127694Y3959296D01*
X16127694Y3959296D02*
X16099122Y4035486D01*
X16099122Y4035486D02*
X16127694Y4264058D01*
X16127694Y4264058D02*
X16175313Y4340248D01*
X16175313Y4340248D02*
X16218170Y4378343D01*
X16218170Y4378343D02*
X16299122Y4416439D01*
X16299122Y4416439D02*
X16451503Y4416439D01*
X16451503Y4416439D02*
X16522932Y4378343D01*
X16841980Y3883105D02*
X16908646Y4416439D01*
X16941980Y4683105D02*
X16899123Y4645010D01*
X16899123Y4645010D02*
X16932456Y4606915D01*
X16932456Y4606915D02*
X16975313Y4645010D01*
X16975313Y4645010D02*
X16941980Y4683105D01*
X16941980Y4683105D02*
X16932456Y4606915D01*
X17175313Y4416439D02*
X17480075Y4416439D01*
X17322932Y4683105D02*
X17237218Y3997391D01*
X17237218Y3997391D02*
X17265789Y3921200D01*
X17265789Y3921200D02*
X17337218Y3883105D01*
X17337218Y3883105D02*
X17413408Y3883105D01*
X17680075Y3883105D02*
X17780075Y4683105D01*
X18022932Y3883105D02*
X18075313Y4302153D01*
X18075313Y4302153D02*
X18046741Y4378343D01*
X18046741Y4378343D02*
X17975313Y4416439D01*
X17975313Y4416439D02*
X17861027Y4416439D01*
X17861027Y4416439D02*
X17780075Y4378343D01*
X17780075Y4378343D02*
X17737218Y4340248D01*
X18813409Y4416439D02*
X18746742Y3883105D01*
X18470551Y4416439D02*
X18418171Y3997391D01*
X18418171Y3997391D02*
X18446742Y3921200D01*
X18446742Y3921200D02*
X18518171Y3883105D01*
X18518171Y3883105D02*
X18632456Y3883105D01*
X18632456Y3883105D02*
X18713409Y3921200D01*
X18713409Y3921200D02*
X18756266Y3959296D01*
X19127695Y3883105D02*
X19227695Y4683105D01*
X19189600Y4378343D02*
X19270552Y4416439D01*
X19270552Y4416439D02*
X19422933Y4416439D01*
X19422933Y4416439D02*
X19494361Y4378343D01*
X19494361Y4378343D02*
X19527695Y4340248D01*
X19527695Y4340248D02*
X19556266Y4264058D01*
X19556266Y4264058D02*
X19527695Y4035486D01*
X19527695Y4035486D02*
X19480076Y3959296D01*
X19480076Y3959296D02*
X19437219Y3921200D01*
X19437219Y3921200D02*
X19356266Y3883105D01*
X19356266Y3883105D02*
X19203885Y3883105D01*
X19203885Y3883105D02*
X19132457Y3921200D01*
X19861029Y3959296D02*
X19894362Y3921200D01*
X19894362Y3921200D02*
X19851505Y3883105D01*
X19851505Y3883105D02*
X19818171Y3921200D01*
X19818171Y3921200D02*
X19861029Y3959296D01*
X19861029Y3959296D02*
X19851505Y3883105D01*
X20580076Y3921200D02*
X20499123Y3883105D01*
X20499123Y3883105D02*
X20346743Y3883105D01*
X20346743Y3883105D02*
X20275314Y3921200D01*
X20275314Y3921200D02*
X20241981Y3959296D01*
X20241981Y3959296D02*
X20213409Y4035486D01*
X20213409Y4035486D02*
X20241981Y4264058D01*
X20241981Y4264058D02*
X20289600Y4340248D01*
X20289600Y4340248D02*
X20332457Y4378343D01*
X20332457Y4378343D02*
X20413409Y4416439D01*
X20413409Y4416439D02*
X20565790Y4416439D01*
X20565790Y4416439D02*
X20637219Y4378343D01*
X21032457Y3883105D02*
X20961028Y3921200D01*
X20961028Y3921200D02*
X20927695Y3959296D01*
X20927695Y3959296D02*
X20899123Y4035486D01*
X20899123Y4035486D02*
X20927695Y4264058D01*
X20927695Y4264058D02*
X20975314Y4340248D01*
X20975314Y4340248D02*
X21018171Y4378343D01*
X21018171Y4378343D02*
X21099123Y4416439D01*
X21099123Y4416439D02*
X21213409Y4416439D01*
X21213409Y4416439D02*
X21284837Y4378343D01*
X21284837Y4378343D02*
X21318171Y4340248D01*
X21318171Y4340248D02*
X21346742Y4264058D01*
X21346742Y4264058D02*
X21318171Y4035486D01*
X21318171Y4035486D02*
X21270552Y3959296D01*
X21270552Y3959296D02*
X21227695Y3921200D01*
X21227695Y3921200D02*
X21146742Y3883105D01*
X21146742Y3883105D02*
X21032457Y3883105D01*
X21641981Y3883105D02*
X21708647Y4416439D01*
X21699124Y4340248D02*
X21741981Y4378343D01*
X21741981Y4378343D02*
X21822933Y4416439D01*
X21822933Y4416439D02*
X21937219Y4416439D01*
X21937219Y4416439D02*
X22008647Y4378343D01*
X22008647Y4378343D02*
X22037219Y4302153D01*
X22037219Y4302153D02*
X21984838Y3883105D01*
X22037219Y4302153D02*
X22084838Y4378343D01*
X22084838Y4378343D02*
X22165790Y4416439D01*
X22165790Y4416439D02*
X22280076Y4416439D01*
X22280076Y4416439D02*
X22351505Y4378343D01*
X22351505Y4378343D02*
X22380076Y4302153D01*
X22380076Y4302153D02*
X22327695Y3883105D01*
X23384838Y4721200D02*
X22570553Y3692629D01*
X23889600Y3883105D02*
X23941981Y4302153D01*
X23941981Y4302153D02*
X23913409Y4378343D01*
X23913409Y4378343D02*
X23841981Y4416439D01*
X23841981Y4416439D02*
X23689600Y4416439D01*
X23689600Y4416439D02*
X23608648Y4378343D01*
X23894362Y3921200D02*
X23813409Y3883105D01*
X23813409Y3883105D02*
X23622933Y3883105D01*
X23622933Y3883105D02*
X23551505Y3921200D01*
X23551505Y3921200D02*
X23522933Y3997391D01*
X23522933Y3997391D02*
X23532457Y4073581D01*
X23532457Y4073581D02*
X23580076Y4149772D01*
X23580076Y4149772D02*
X23661029Y4187867D01*
X23661029Y4187867D02*
X23851505Y4187867D01*
X23851505Y4187867D02*
X23932457Y4225962D01*
X24270553Y3883105D02*
X24370553Y4683105D01*
X24384839Y4187867D02*
X24575315Y3883105D01*
X24641981Y4416439D02*
X24299124Y4111677D01*
X24918172Y3883105D02*
X24984838Y4416439D01*
X25018172Y4683105D02*
X24975315Y4645010D01*
X24975315Y4645010D02*
X25008648Y4606915D01*
X25008648Y4606915D02*
X25051505Y4645010D01*
X25051505Y4645010D02*
X25018172Y4683105D01*
X25018172Y4683105D02*
X25008648Y4606915D01*
X25299124Y3883105D02*
X25399124Y4683105D01*
X25641981Y3883105D02*
X25694362Y4302153D01*
X25694362Y4302153D02*
X25665790Y4378343D01*
X25665790Y4378343D02*
X25594362Y4416439D01*
X25594362Y4416439D02*
X25480076Y4416439D01*
X25480076Y4416439D02*
X25399124Y4378343D01*
X25399124Y4378343D02*
X25356267Y4340248D01*
X26061029Y4187867D02*
X26670553Y4187867D01*
X26980076Y3921200D02*
X27051505Y3883105D01*
X27051505Y3883105D02*
X27203886Y3883105D01*
X27203886Y3883105D02*
X27284838Y3921200D01*
X27284838Y3921200D02*
X27332457Y3997391D01*
X27332457Y3997391D02*
X27337219Y4035486D01*
X27337219Y4035486D02*
X27308648Y4111677D01*
X27308648Y4111677D02*
X27237219Y4149772D01*
X27237219Y4149772D02*
X27122934Y4149772D01*
X27122934Y4149772D02*
X27051505Y4187867D01*
X27051505Y4187867D02*
X27022934Y4264058D01*
X27022934Y4264058D02*
X27027696Y4302153D01*
X27027696Y4302153D02*
X27075315Y4378343D01*
X27075315Y4378343D02*
X27156267Y4416439D01*
X27156267Y4416439D02*
X27270553Y4416439D01*
X27270553Y4416439D02*
X27341981Y4378343D01*
X28003886Y3883105D02*
X28056267Y4302153D01*
X28056267Y4302153D02*
X28027695Y4378343D01*
X28027695Y4378343D02*
X27956267Y4416439D01*
X27956267Y4416439D02*
X27803886Y4416439D01*
X27803886Y4416439D02*
X27722934Y4378343D01*
X28008648Y3921200D02*
X27927695Y3883105D01*
X27927695Y3883105D02*
X27737219Y3883105D01*
X27737219Y3883105D02*
X27665791Y3921200D01*
X27665791Y3921200D02*
X27637219Y3997391D01*
X27637219Y3997391D02*
X27646743Y4073581D01*
X27646743Y4073581D02*
X27694362Y4149772D01*
X27694362Y4149772D02*
X27775315Y4187867D01*
X27775315Y4187867D02*
X27965791Y4187867D01*
X27965791Y4187867D02*
X28046743Y4225962D01*
X28451505Y4416439D02*
X28384839Y3883105D01*
X28441982Y4340248D02*
X28484839Y4378343D01*
X28484839Y4378343D02*
X28565791Y4416439D01*
X28565791Y4416439D02*
X28680077Y4416439D01*
X28680077Y4416439D02*
X28751505Y4378343D01*
X28751505Y4378343D02*
X28780077Y4302153D01*
X28780077Y4302153D02*
X28727696Y3883105D01*
D14*
X34961905Y73995181D02*
X34961905Y74995181D01*
X34961905Y74995181D02*
X35200000Y74995181D01*
X35200000Y74995181D02*
X35342857Y74947562D01*
X35342857Y74947562D02*
X35438095Y74852324D01*
X35438095Y74852324D02*
X35485714Y74757086D01*
X35485714Y74757086D02*
X35533333Y74566610D01*
X35533333Y74566610D02*
X35533333Y74423753D01*
X35533333Y74423753D02*
X35485714Y74233277D01*
X35485714Y74233277D02*
X35438095Y74138039D01*
X35438095Y74138039D02*
X35342857Y74042800D01*
X35342857Y74042800D02*
X35200000Y73995181D01*
X35200000Y73995181D02*
X34961905Y73995181D01*
X36485714Y73995181D02*
X35914286Y73995181D01*
X36200000Y73995181D02*
X36200000Y74995181D01*
X36200000Y74995181D02*
X36104762Y74852324D01*
X36104762Y74852324D02*
X36009524Y74757086D01*
X36009524Y74757086D02*
X35914286Y74709467D01*
X67296666Y63015181D02*
X67296666Y62300896D01*
X67296666Y62300896D02*
X67249047Y62158039D01*
X67249047Y62158039D02*
X67153809Y62062800D01*
X67153809Y62062800D02*
X67010952Y62015181D01*
X67010952Y62015181D02*
X66915714Y62015181D01*
X67677619Y63015181D02*
X68296666Y63015181D01*
X68296666Y63015181D02*
X67963333Y62634229D01*
X67963333Y62634229D02*
X68106190Y62634229D01*
X68106190Y62634229D02*
X68201428Y62586610D01*
X68201428Y62586610D02*
X68249047Y62538991D01*
X68249047Y62538991D02*
X68296666Y62443753D01*
X68296666Y62443753D02*
X68296666Y62205658D01*
X68296666Y62205658D02*
X68249047Y62110420D01*
X68249047Y62110420D02*
X68201428Y62062800D01*
X68201428Y62062800D02*
X68106190Y62015181D01*
X68106190Y62015181D02*
X67820476Y62015181D01*
X67820476Y62015181D02*
X67725238Y62062800D01*
X67725238Y62062800D02*
X67677619Y62110420D01*
X60090000Y33237372D02*
X60061428Y33208800D01*
X60061428Y33208800D02*
X59975714Y33180229D01*
X59975714Y33180229D02*
X59918571Y33180229D01*
X59918571Y33180229D02*
X59832857Y33208800D01*
X59832857Y33208800D02*
X59775714Y33265943D01*
X59775714Y33265943D02*
X59747143Y33323086D01*
X59747143Y33323086D02*
X59718571Y33437372D01*
X59718571Y33437372D02*
X59718571Y33523086D01*
X59718571Y33523086D02*
X59747143Y33637372D01*
X59747143Y33637372D02*
X59775714Y33694515D01*
X59775714Y33694515D02*
X59832857Y33751658D01*
X59832857Y33751658D02*
X59918571Y33780229D01*
X59918571Y33780229D02*
X59975714Y33780229D01*
X59975714Y33780229D02*
X60061428Y33751658D01*
X60061428Y33751658D02*
X60090000Y33723086D01*
X60318571Y33723086D02*
X60347143Y33751658D01*
X60347143Y33751658D02*
X60404286Y33780229D01*
X60404286Y33780229D02*
X60547143Y33780229D01*
X60547143Y33780229D02*
X60604286Y33751658D01*
X60604286Y33751658D02*
X60632857Y33723086D01*
X60632857Y33723086D02*
X60661428Y33665943D01*
X60661428Y33665943D02*
X60661428Y33608800D01*
X60661428Y33608800D02*
X60632857Y33523086D01*
X60632857Y33523086D02*
X60290000Y33180229D01*
X60290000Y33180229D02*
X60661428Y33180229D01*
X59071428Y32780229D02*
X59128571Y32780229D01*
X59128571Y32780229D02*
X59185714Y32751658D01*
X59185714Y32751658D02*
X59214286Y32723086D01*
X59214286Y32723086D02*
X59242857Y32665943D01*
X59242857Y32665943D02*
X59271428Y32551658D01*
X59271428Y32551658D02*
X59271428Y32408800D01*
X59271428Y32408800D02*
X59242857Y32294515D01*
X59242857Y32294515D02*
X59214286Y32237372D01*
X59214286Y32237372D02*
X59185714Y32208800D01*
X59185714Y32208800D02*
X59128571Y32180229D01*
X59128571Y32180229D02*
X59071428Y32180229D01*
X59071428Y32180229D02*
X59014286Y32208800D01*
X59014286Y32208800D02*
X58985714Y32237372D01*
X58985714Y32237372D02*
X58957143Y32294515D01*
X58957143Y32294515D02*
X58928571Y32408800D01*
X58928571Y32408800D02*
X58928571Y32551658D01*
X58928571Y32551658D02*
X58957143Y32665943D01*
X58957143Y32665943D02*
X58985714Y32723086D01*
X58985714Y32723086D02*
X59014286Y32751658D01*
X59014286Y32751658D02*
X59071428Y32780229D01*
X59528572Y32237372D02*
X59557143Y32208800D01*
X59557143Y32208800D02*
X59528572Y32180229D01*
X59528572Y32180229D02*
X59500000Y32208800D01*
X59500000Y32208800D02*
X59528572Y32237372D01*
X59528572Y32237372D02*
X59528572Y32180229D01*
X60128571Y32180229D02*
X59785714Y32180229D01*
X59957143Y32180229D02*
X59957143Y32780229D01*
X59957143Y32780229D02*
X59900000Y32694515D01*
X59900000Y32694515D02*
X59842857Y32637372D01*
X59842857Y32637372D02*
X59785714Y32608800D01*
X60385715Y32580229D02*
X60385715Y31980229D01*
X60671429Y32265943D02*
X60700000Y32208800D01*
X60700000Y32208800D02*
X60757143Y32180229D01*
X60385715Y32265943D02*
X60414286Y32208800D01*
X60414286Y32208800D02*
X60471429Y32180229D01*
X60471429Y32180229D02*
X60585715Y32180229D01*
X60585715Y32180229D02*
X60642858Y32208800D01*
X60642858Y32208800D02*
X60671429Y32265943D01*
X60671429Y32265943D02*
X60671429Y32580229D01*
X61214286Y32494515D02*
X61014286Y32494515D01*
X61014286Y32180229D02*
X61014286Y32780229D01*
X61014286Y32780229D02*
X61300000Y32780229D01*
X33376666Y12555181D02*
X33376666Y11840896D01*
X33376666Y11840896D02*
X33329047Y11698039D01*
X33329047Y11698039D02*
X33233809Y11602800D01*
X33233809Y11602800D02*
X33090952Y11555181D01*
X33090952Y11555181D02*
X32995714Y11555181D01*
X34329047Y12555181D02*
X33852857Y12555181D01*
X33852857Y12555181D02*
X33805238Y12078991D01*
X33805238Y12078991D02*
X33852857Y12126610D01*
X33852857Y12126610D02*
X33948095Y12174229D01*
X33948095Y12174229D02*
X34186190Y12174229D01*
X34186190Y12174229D02*
X34281428Y12126610D01*
X34281428Y12126610D02*
X34329047Y12078991D01*
X34329047Y12078991D02*
X34376666Y11983753D01*
X34376666Y11983753D02*
X34376666Y11745658D01*
X34376666Y11745658D02*
X34329047Y11650420D01*
X34329047Y11650420D02*
X34281428Y11602800D01*
X34281428Y11602800D02*
X34186190Y11555181D01*
X34186190Y11555181D02*
X33948095Y11555181D01*
X33948095Y11555181D02*
X33852857Y11602800D01*
X33852857Y11602800D02*
X33805238Y11650420D01*
X41502295Y13773334D02*
X42073723Y13773334D01*
X42073723Y13773334D02*
X42188009Y13735239D01*
X42188009Y13735239D02*
X42264200Y13659048D01*
X42264200Y13659048D02*
X42302295Y13544763D01*
X42302295Y13544763D02*
X42302295Y13468572D01*
X42302295Y14154287D02*
X41502295Y14154287D01*
X41502295Y14154287D02*
X41502295Y14459049D01*
X41502295Y14459049D02*
X41540390Y14535239D01*
X41540390Y14535239D02*
X41578485Y14573334D01*
X41578485Y14573334D02*
X41654676Y14611430D01*
X41654676Y14611430D02*
X41768961Y14611430D01*
X41768961Y14611430D02*
X41845152Y14573334D01*
X41845152Y14573334D02*
X41883247Y14535239D01*
X41883247Y14535239D02*
X41921342Y14459049D01*
X41921342Y14459049D02*
X41921342Y14154287D01*
X42302295Y15373334D02*
X42302295Y14916191D01*
X42302295Y15144763D02*
X41502295Y15144763D01*
X41502295Y15144763D02*
X41616580Y15068572D01*
X41616580Y15068572D02*
X41692771Y14992382D01*
X41692771Y14992382D02*
X41730866Y14916191D01*
X6983333Y62540420D02*
X6935714Y62492800D01*
X6935714Y62492800D02*
X6792857Y62445181D01*
X6792857Y62445181D02*
X6697619Y62445181D01*
X6697619Y62445181D02*
X6554762Y62492800D01*
X6554762Y62492800D02*
X6459524Y62588039D01*
X6459524Y62588039D02*
X6411905Y62683277D01*
X6411905Y62683277D02*
X6364286Y62873753D01*
X6364286Y62873753D02*
X6364286Y63016610D01*
X6364286Y63016610D02*
X6411905Y63207086D01*
X6411905Y63207086D02*
X6459524Y63302324D01*
X6459524Y63302324D02*
X6554762Y63397562D01*
X6554762Y63397562D02*
X6697619Y63445181D01*
X6697619Y63445181D02*
X6792857Y63445181D01*
X6792857Y63445181D02*
X6935714Y63397562D01*
X6935714Y63397562D02*
X6983333Y63349943D01*
X7935714Y62445181D02*
X7364286Y62445181D01*
X7650000Y62445181D02*
X7650000Y63445181D01*
X7650000Y63445181D02*
X7554762Y63302324D01*
X7554762Y63302324D02*
X7459524Y63207086D01*
X7459524Y63207086D02*
X7364286Y63159467D01*
X2665714Y61335181D02*
X2760952Y61335181D01*
X2760952Y61335181D02*
X2856190Y61287562D01*
X2856190Y61287562D02*
X2903809Y61239943D01*
X2903809Y61239943D02*
X2951428Y61144705D01*
X2951428Y61144705D02*
X2999047Y60954229D01*
X2999047Y60954229D02*
X2999047Y60716134D01*
X2999047Y60716134D02*
X2951428Y60525658D01*
X2951428Y60525658D02*
X2903809Y60430420D01*
X2903809Y60430420D02*
X2856190Y60382800D01*
X2856190Y60382800D02*
X2760952Y60335181D01*
X2760952Y60335181D02*
X2665714Y60335181D01*
X2665714Y60335181D02*
X2570476Y60382800D01*
X2570476Y60382800D02*
X2522857Y60430420D01*
X2522857Y60430420D02*
X2475238Y60525658D01*
X2475238Y60525658D02*
X2427619Y60716134D01*
X2427619Y60716134D02*
X2427619Y60954229D01*
X2427619Y60954229D02*
X2475238Y61144705D01*
X2475238Y61144705D02*
X2522857Y61239943D01*
X2522857Y61239943D02*
X2570476Y61287562D01*
X2570476Y61287562D02*
X2665714Y61335181D01*
X3427619Y60430420D02*
X3475238Y60382800D01*
X3475238Y60382800D02*
X3427619Y60335181D01*
X3427619Y60335181D02*
X3380000Y60382800D01*
X3380000Y60382800D02*
X3427619Y60430420D01*
X3427619Y60430420D02*
X3427619Y60335181D01*
X4427618Y60335181D02*
X3856190Y60335181D01*
X4141904Y60335181D02*
X4141904Y61335181D01*
X4141904Y61335181D02*
X4046666Y61192324D01*
X4046666Y61192324D02*
X3951428Y61097086D01*
X3951428Y61097086D02*
X3856190Y61049467D01*
X4856190Y61001848D02*
X4856190Y60001848D01*
X5332380Y60478039D02*
X5379999Y60382800D01*
X5379999Y60382800D02*
X5475237Y60335181D01*
X4856190Y60478039D02*
X4903809Y60382800D01*
X4903809Y60382800D02*
X4999047Y60335181D01*
X4999047Y60335181D02*
X5189523Y60335181D01*
X5189523Y60335181D02*
X5284761Y60382800D01*
X5284761Y60382800D02*
X5332380Y60478039D01*
X5332380Y60478039D02*
X5332380Y61001848D01*
X6237142Y60858991D02*
X5903809Y60858991D01*
X5903809Y60335181D02*
X5903809Y61335181D01*
X5903809Y61335181D02*
X6379999Y61335181D01*
X34523333Y23125181D02*
X34190000Y23601372D01*
X33951905Y23125181D02*
X33951905Y24125181D01*
X33951905Y24125181D02*
X34332857Y24125181D01*
X34332857Y24125181D02*
X34428095Y24077562D01*
X34428095Y24077562D02*
X34475714Y24029943D01*
X34475714Y24029943D02*
X34523333Y23934705D01*
X34523333Y23934705D02*
X34523333Y23791848D01*
X34523333Y23791848D02*
X34475714Y23696610D01*
X34475714Y23696610D02*
X34428095Y23648991D01*
X34428095Y23648991D02*
X34332857Y23601372D01*
X34332857Y23601372D02*
X33951905Y23601372D01*
X34904286Y24029943D02*
X34951905Y24077562D01*
X34951905Y24077562D02*
X35047143Y24125181D01*
X35047143Y24125181D02*
X35285238Y24125181D01*
X35285238Y24125181D02*
X35380476Y24077562D01*
X35380476Y24077562D02*
X35428095Y24029943D01*
X35428095Y24029943D02*
X35475714Y23934705D01*
X35475714Y23934705D02*
X35475714Y23839467D01*
X35475714Y23839467D02*
X35428095Y23696610D01*
X35428095Y23696610D02*
X34856667Y23125181D01*
X34856667Y23125181D02*
X35475714Y23125181D01*
X32951905Y19385181D02*
X33047143Y19385181D01*
X33047143Y19385181D02*
X33142381Y19337562D01*
X33142381Y19337562D02*
X33190000Y19289943D01*
X33190000Y19289943D02*
X33237619Y19194705D01*
X33237619Y19194705D02*
X33285238Y19004229D01*
X33285238Y19004229D02*
X33285238Y18766134D01*
X33285238Y18766134D02*
X33237619Y18575658D01*
X33237619Y18575658D02*
X33190000Y18480420D01*
X33190000Y18480420D02*
X33142381Y18432800D01*
X33142381Y18432800D02*
X33047143Y18385181D01*
X33047143Y18385181D02*
X32951905Y18385181D01*
X32951905Y18385181D02*
X32856667Y18432800D01*
X32856667Y18432800D02*
X32809048Y18480420D01*
X32809048Y18480420D02*
X32761429Y18575658D01*
X32761429Y18575658D02*
X32713810Y18766134D01*
X32713810Y18766134D02*
X32713810Y19004229D01*
X32713810Y19004229D02*
X32761429Y19194705D01*
X32761429Y19194705D02*
X32809048Y19289943D01*
X32809048Y19289943D02*
X32856667Y19337562D01*
X32856667Y19337562D02*
X32951905Y19385181D01*
X33713810Y18480420D02*
X33761429Y18432800D01*
X33761429Y18432800D02*
X33713810Y18385181D01*
X33713810Y18385181D02*
X33666191Y18432800D01*
X33666191Y18432800D02*
X33713810Y18480420D01*
X33713810Y18480420D02*
X33713810Y18385181D01*
X34618571Y19051848D02*
X34618571Y18385181D01*
X34380476Y19432800D02*
X34142381Y18718515D01*
X34142381Y18718515D02*
X34761428Y18718515D01*
X35047143Y19385181D02*
X35713809Y19385181D01*
X35713809Y19385181D02*
X35285238Y18385181D01*
X36094762Y18385181D02*
X36094762Y19385181D01*
X36666190Y18385181D02*
X36237619Y18956610D01*
X36666190Y19385181D02*
X36094762Y18813753D01*
X42826666Y71585181D02*
X42826666Y70870896D01*
X42826666Y70870896D02*
X42779047Y70728039D01*
X42779047Y70728039D02*
X42683809Y70632800D01*
X42683809Y70632800D02*
X42540952Y70585181D01*
X42540952Y70585181D02*
X42445714Y70585181D01*
X43731428Y71585181D02*
X43540952Y71585181D01*
X43540952Y71585181D02*
X43445714Y71537562D01*
X43445714Y71537562D02*
X43398095Y71489943D01*
X43398095Y71489943D02*
X43302857Y71347086D01*
X43302857Y71347086D02*
X43255238Y71156610D01*
X43255238Y71156610D02*
X43255238Y70775658D01*
X43255238Y70775658D02*
X43302857Y70680420D01*
X43302857Y70680420D02*
X43350476Y70632800D01*
X43350476Y70632800D02*
X43445714Y70585181D01*
X43445714Y70585181D02*
X43636190Y70585181D01*
X43636190Y70585181D02*
X43731428Y70632800D01*
X43731428Y70632800D02*
X43779047Y70680420D01*
X43779047Y70680420D02*
X43826666Y70775658D01*
X43826666Y70775658D02*
X43826666Y71013753D01*
X43826666Y71013753D02*
X43779047Y71108991D01*
X43779047Y71108991D02*
X43731428Y71156610D01*
X43731428Y71156610D02*
X43636190Y71204229D01*
X43636190Y71204229D02*
X43445714Y71204229D01*
X43445714Y71204229D02*
X43350476Y71156610D01*
X43350476Y71156610D02*
X43302857Y71108991D01*
X43302857Y71108991D02*
X43255238Y71013753D01*
X44132295Y13853334D02*
X44703723Y13853334D01*
X44703723Y13853334D02*
X44818009Y13815239D01*
X44818009Y13815239D02*
X44894200Y13739048D01*
X44894200Y13739048D02*
X44932295Y13624763D01*
X44932295Y13624763D02*
X44932295Y13548572D01*
X44932295Y14234287D02*
X44132295Y14234287D01*
X44132295Y14234287D02*
X44132295Y14539049D01*
X44132295Y14539049D02*
X44170390Y14615239D01*
X44170390Y14615239D02*
X44208485Y14653334D01*
X44208485Y14653334D02*
X44284676Y14691430D01*
X44284676Y14691430D02*
X44398961Y14691430D01*
X44398961Y14691430D02*
X44475152Y14653334D01*
X44475152Y14653334D02*
X44513247Y14615239D01*
X44513247Y14615239D02*
X44551342Y14539049D01*
X44551342Y14539049D02*
X44551342Y14234287D01*
X44208485Y14996191D02*
X44170390Y15034287D01*
X44170390Y15034287D02*
X44132295Y15110477D01*
X44132295Y15110477D02*
X44132295Y15300953D01*
X44132295Y15300953D02*
X44170390Y15377144D01*
X44170390Y15377144D02*
X44208485Y15415239D01*
X44208485Y15415239D02*
X44284676Y15453334D01*
X44284676Y15453334D02*
X44360866Y15453334D01*
X44360866Y15453334D02*
X44475152Y15415239D01*
X44475152Y15415239D02*
X44932295Y14958096D01*
X44932295Y14958096D02*
X44932295Y15453334D01*
D17*
X65932380Y68376158D02*
X66113809Y68315682D01*
X66113809Y68315682D02*
X66416190Y68315682D01*
X66416190Y68315682D02*
X66537142Y68376158D01*
X66537142Y68376158D02*
X66597618Y68436635D01*
X66597618Y68436635D02*
X66658095Y68557587D01*
X66658095Y68557587D02*
X66658095Y68678539D01*
X66658095Y68678539D02*
X66597618Y68799492D01*
X66597618Y68799492D02*
X66537142Y68859968D01*
X66537142Y68859968D02*
X66416190Y68920444D01*
X66416190Y68920444D02*
X66174285Y68980920D01*
X66174285Y68980920D02*
X66053333Y69041397D01*
X66053333Y69041397D02*
X65992856Y69101873D01*
X65992856Y69101873D02*
X65932380Y69222825D01*
X65932380Y69222825D02*
X65932380Y69343778D01*
X65932380Y69343778D02*
X65992856Y69464730D01*
X65992856Y69464730D02*
X66053333Y69525206D01*
X66053333Y69525206D02*
X66174285Y69585682D01*
X66174285Y69585682D02*
X66476666Y69585682D01*
X66476666Y69585682D02*
X66658095Y69525206D01*
X67867619Y68315682D02*
X67141904Y68315682D01*
X67504761Y68315682D02*
X67504761Y69585682D01*
X67504761Y69585682D02*
X67383809Y69404254D01*
X67383809Y69404254D02*
X67262857Y69283301D01*
X67262857Y69283301D02*
X67141904Y69222825D01*
D14*
X46622295Y13943334D02*
X47193723Y13943334D01*
X47193723Y13943334D02*
X47308009Y13905239D01*
X47308009Y13905239D02*
X47384200Y13829048D01*
X47384200Y13829048D02*
X47422295Y13714763D01*
X47422295Y13714763D02*
X47422295Y13638572D01*
X47422295Y14324287D02*
X46622295Y14324287D01*
X46622295Y14324287D02*
X46622295Y14629049D01*
X46622295Y14629049D02*
X46660390Y14705239D01*
X46660390Y14705239D02*
X46698485Y14743334D01*
X46698485Y14743334D02*
X46774676Y14781430D01*
X46774676Y14781430D02*
X46888961Y14781430D01*
X46888961Y14781430D02*
X46965152Y14743334D01*
X46965152Y14743334D02*
X47003247Y14705239D01*
X47003247Y14705239D02*
X47041342Y14629049D01*
X47041342Y14629049D02*
X47041342Y14324287D01*
X46622295Y15048096D02*
X46622295Y15543334D01*
X46622295Y15543334D02*
X46927057Y15276668D01*
X46927057Y15276668D02*
X46927057Y15390953D01*
X46927057Y15390953D02*
X46965152Y15467144D01*
X46965152Y15467144D02*
X47003247Y15505239D01*
X47003247Y15505239D02*
X47079438Y15543334D01*
X47079438Y15543334D02*
X47269914Y15543334D01*
X47269914Y15543334D02*
X47346104Y15505239D01*
X47346104Y15505239D02*
X47384200Y15467144D01*
X47384200Y15467144D02*
X47422295Y15390953D01*
X47422295Y15390953D02*
X47422295Y15162382D01*
X47422295Y15162382D02*
X47384200Y15086191D01*
X47384200Y15086191D02*
X47346104Y15048096D01*
X49132295Y13923334D02*
X49703723Y13923334D01*
X49703723Y13923334D02*
X49818009Y13885239D01*
X49818009Y13885239D02*
X49894200Y13809048D01*
X49894200Y13809048D02*
X49932295Y13694763D01*
X49932295Y13694763D02*
X49932295Y13618572D01*
X49932295Y14304287D02*
X49132295Y14304287D01*
X49132295Y14304287D02*
X49132295Y14609049D01*
X49132295Y14609049D02*
X49170390Y14685239D01*
X49170390Y14685239D02*
X49208485Y14723334D01*
X49208485Y14723334D02*
X49284676Y14761430D01*
X49284676Y14761430D02*
X49398961Y14761430D01*
X49398961Y14761430D02*
X49475152Y14723334D01*
X49475152Y14723334D02*
X49513247Y14685239D01*
X49513247Y14685239D02*
X49551342Y14609049D01*
X49551342Y14609049D02*
X49551342Y14304287D01*
X49398961Y15447144D02*
X49932295Y15447144D01*
X49094200Y15256668D02*
X49665628Y15066191D01*
X49665628Y15066191D02*
X49665628Y15561430D01*
X36481905Y8965181D02*
X36481905Y9965181D01*
X36481905Y9965181D02*
X36720000Y9965181D01*
X36720000Y9965181D02*
X36862857Y9917562D01*
X36862857Y9917562D02*
X36958095Y9822324D01*
X36958095Y9822324D02*
X37005714Y9727086D01*
X37005714Y9727086D02*
X37053333Y9536610D01*
X37053333Y9536610D02*
X37053333Y9393753D01*
X37053333Y9393753D02*
X37005714Y9203277D01*
X37005714Y9203277D02*
X36958095Y9108039D01*
X36958095Y9108039D02*
X36862857Y9012800D01*
X36862857Y9012800D02*
X36720000Y8965181D01*
X36720000Y8965181D02*
X36481905Y8965181D01*
X37434286Y9869943D02*
X37481905Y9917562D01*
X37481905Y9917562D02*
X37577143Y9965181D01*
X37577143Y9965181D02*
X37815238Y9965181D01*
X37815238Y9965181D02*
X37910476Y9917562D01*
X37910476Y9917562D02*
X37958095Y9869943D01*
X37958095Y9869943D02*
X38005714Y9774705D01*
X38005714Y9774705D02*
X38005714Y9679467D01*
X38005714Y9679467D02*
X37958095Y9536610D01*
X37958095Y9536610D02*
X37386667Y8965181D01*
X37386667Y8965181D02*
X38005714Y8965181D01*
X39826666Y56505181D02*
X39826666Y55790896D01*
X39826666Y55790896D02*
X39779047Y55648039D01*
X39779047Y55648039D02*
X39683809Y55552800D01*
X39683809Y55552800D02*
X39540952Y55505181D01*
X39540952Y55505181D02*
X39445714Y55505181D01*
X40255238Y56409943D02*
X40302857Y56457562D01*
X40302857Y56457562D02*
X40398095Y56505181D01*
X40398095Y56505181D02*
X40636190Y56505181D01*
X40636190Y56505181D02*
X40731428Y56457562D01*
X40731428Y56457562D02*
X40779047Y56409943D01*
X40779047Y56409943D02*
X40826666Y56314705D01*
X40826666Y56314705D02*
X40826666Y56219467D01*
X40826666Y56219467D02*
X40779047Y56076610D01*
X40779047Y56076610D02*
X40207619Y55505181D01*
X40207619Y55505181D02*
X40826666Y55505181D01*
X87616666Y63015181D02*
X87616666Y62300896D01*
X87616666Y62300896D02*
X87569047Y62158039D01*
X87569047Y62158039D02*
X87473809Y62062800D01*
X87473809Y62062800D02*
X87330952Y62015181D01*
X87330952Y62015181D02*
X87235714Y62015181D01*
X88521428Y62681848D02*
X88521428Y62015181D01*
X88283333Y63062800D02*
X88045238Y62348515D01*
X88045238Y62348515D02*
X88664285Y62348515D01*
X12606666Y56505181D02*
X12606666Y55790896D01*
X12606666Y55790896D02*
X12559047Y55648039D01*
X12559047Y55648039D02*
X12463809Y55552800D01*
X12463809Y55552800D02*
X12320952Y55505181D01*
X12320952Y55505181D02*
X12225714Y55505181D01*
X13606666Y55505181D02*
X13035238Y55505181D01*
X13320952Y55505181D02*
X13320952Y56505181D01*
X13320952Y56505181D02*
X13225714Y56362324D01*
X13225714Y56362324D02*
X13130476Y56267086D01*
X13130476Y56267086D02*
X13035238Y56219467D01*
X26893333Y74650420D02*
X26845714Y74602800D01*
X26845714Y74602800D02*
X26702857Y74555181D01*
X26702857Y74555181D02*
X26607619Y74555181D01*
X26607619Y74555181D02*
X26464762Y74602800D01*
X26464762Y74602800D02*
X26369524Y74698039D01*
X26369524Y74698039D02*
X26321905Y74793277D01*
X26321905Y74793277D02*
X26274286Y74983753D01*
X26274286Y74983753D02*
X26274286Y75126610D01*
X26274286Y75126610D02*
X26321905Y75317086D01*
X26321905Y75317086D02*
X26369524Y75412324D01*
X26369524Y75412324D02*
X26464762Y75507562D01*
X26464762Y75507562D02*
X26607619Y75555181D01*
X26607619Y75555181D02*
X26702857Y75555181D01*
X26702857Y75555181D02*
X26845714Y75507562D01*
X26845714Y75507562D02*
X26893333Y75459943D01*
X27226667Y75555181D02*
X27845714Y75555181D01*
X27845714Y75555181D02*
X27512381Y75174229D01*
X27512381Y75174229D02*
X27655238Y75174229D01*
X27655238Y75174229D02*
X27750476Y75126610D01*
X27750476Y75126610D02*
X27798095Y75078991D01*
X27798095Y75078991D02*
X27845714Y74983753D01*
X27845714Y74983753D02*
X27845714Y74745658D01*
X27845714Y74745658D02*
X27798095Y74650420D01*
X27798095Y74650420D02*
X27750476Y74602800D01*
X27750476Y74602800D02*
X27655238Y74555181D01*
X27655238Y74555181D02*
X27369524Y74555181D01*
X27369524Y74555181D02*
X27274286Y74602800D01*
X27274286Y74602800D02*
X27226667Y74650420D01*
X25917142Y67055181D02*
X25345714Y67055181D01*
X25631428Y67055181D02*
X25631428Y68055181D01*
X25631428Y68055181D02*
X25536190Y67912324D01*
X25536190Y67912324D02*
X25440952Y67817086D01*
X25440952Y67817086D02*
X25345714Y67769467D01*
X26536190Y68055181D02*
X26631428Y68055181D01*
X26631428Y68055181D02*
X26726666Y68007562D01*
X26726666Y68007562D02*
X26774285Y67959943D01*
X26774285Y67959943D02*
X26821904Y67864705D01*
X26821904Y67864705D02*
X26869523Y67674229D01*
X26869523Y67674229D02*
X26869523Y67436134D01*
X26869523Y67436134D02*
X26821904Y67245658D01*
X26821904Y67245658D02*
X26774285Y67150420D01*
X26774285Y67150420D02*
X26726666Y67102800D01*
X26726666Y67102800D02*
X26631428Y67055181D01*
X26631428Y67055181D02*
X26536190Y67055181D01*
X26536190Y67055181D02*
X26440952Y67102800D01*
X26440952Y67102800D02*
X26393333Y67150420D01*
X26393333Y67150420D02*
X26345714Y67245658D01*
X26345714Y67245658D02*
X26298095Y67436134D01*
X26298095Y67436134D02*
X26298095Y67674229D01*
X26298095Y67674229D02*
X26345714Y67864705D01*
X26345714Y67864705D02*
X26393333Y67959943D01*
X26393333Y67959943D02*
X26440952Y68007562D01*
X26440952Y68007562D02*
X26536190Y68055181D01*
X27298095Y67721848D02*
X27298095Y66721848D01*
X27774285Y67198039D02*
X27821904Y67102800D01*
X27821904Y67102800D02*
X27917142Y67055181D01*
X27298095Y67198039D02*
X27345714Y67102800D01*
X27345714Y67102800D02*
X27440952Y67055181D01*
X27440952Y67055181D02*
X27631428Y67055181D01*
X27631428Y67055181D02*
X27726666Y67102800D01*
X27726666Y67102800D02*
X27774285Y67198039D01*
X27774285Y67198039D02*
X27774285Y67721848D01*
X28679047Y67578991D02*
X28345714Y67578991D01*
X28345714Y67055181D02*
X28345714Y68055181D01*
X28345714Y68055181D02*
X28821904Y68055181D01*
X9816667Y70312800D02*
X9959524Y70265181D01*
X9959524Y70265181D02*
X10197619Y70265181D01*
X10197619Y70265181D02*
X10292857Y70312800D01*
X10292857Y70312800D02*
X10340476Y70360420D01*
X10340476Y70360420D02*
X10388095Y70455658D01*
X10388095Y70455658D02*
X10388095Y70550896D01*
X10388095Y70550896D02*
X10340476Y70646134D01*
X10340476Y70646134D02*
X10292857Y70693753D01*
X10292857Y70693753D02*
X10197619Y70741372D01*
X10197619Y70741372D02*
X10007143Y70788991D01*
X10007143Y70788991D02*
X9911905Y70836610D01*
X9911905Y70836610D02*
X9864286Y70884229D01*
X9864286Y70884229D02*
X9816667Y70979467D01*
X9816667Y70979467D02*
X9816667Y71074705D01*
X9816667Y71074705D02*
X9864286Y71169943D01*
X9864286Y71169943D02*
X9911905Y71217562D01*
X9911905Y71217562D02*
X10007143Y71265181D01*
X10007143Y71265181D02*
X10245238Y71265181D01*
X10245238Y71265181D02*
X10388095Y71217562D01*
X10721429Y71265181D02*
X10959524Y70265181D01*
X10959524Y70265181D02*
X11150000Y70979467D01*
X11150000Y70979467D02*
X11340476Y70265181D01*
X11340476Y70265181D02*
X11578572Y71265181D01*
X12483333Y70265181D02*
X11911905Y70265181D01*
X12197619Y70265181D02*
X12197619Y71265181D01*
X12197619Y71265181D02*
X12102381Y71122324D01*
X12102381Y71122324D02*
X12007143Y71027086D01*
X12007143Y71027086D02*
X11911905Y70979467D01*
X36073333Y66955181D02*
X35740000Y67431372D01*
X35501905Y66955181D02*
X35501905Y67955181D01*
X35501905Y67955181D02*
X35882857Y67955181D01*
X35882857Y67955181D02*
X35978095Y67907562D01*
X35978095Y67907562D02*
X36025714Y67859943D01*
X36025714Y67859943D02*
X36073333Y67764705D01*
X36073333Y67764705D02*
X36073333Y67621848D01*
X36073333Y67621848D02*
X36025714Y67526610D01*
X36025714Y67526610D02*
X35978095Y67478991D01*
X35978095Y67478991D02*
X35882857Y67431372D01*
X35882857Y67431372D02*
X35501905Y67431372D01*
X37025714Y66955181D02*
X36454286Y66955181D01*
X36740000Y66955181D02*
X36740000Y67955181D01*
X36740000Y67955181D02*
X36644762Y67812324D01*
X36644762Y67812324D02*
X36549524Y67717086D01*
X36549524Y67717086D02*
X36454286Y67669467D01*
X35311428Y62215181D02*
X34740000Y62215181D01*
X35025714Y62215181D02*
X35025714Y63215181D01*
X35025714Y63215181D02*
X34930476Y63072324D01*
X34930476Y63072324D02*
X34835238Y62977086D01*
X34835238Y62977086D02*
X34740000Y62929467D01*
X35740000Y62310420D02*
X35787619Y62262800D01*
X35787619Y62262800D02*
X35740000Y62215181D01*
X35740000Y62215181D02*
X35692381Y62262800D01*
X35692381Y62262800D02*
X35740000Y62310420D01*
X35740000Y62310420D02*
X35740000Y62215181D01*
X36692380Y63215181D02*
X36216190Y63215181D01*
X36216190Y63215181D02*
X36168571Y62738991D01*
X36168571Y62738991D02*
X36216190Y62786610D01*
X36216190Y62786610D02*
X36311428Y62834229D01*
X36311428Y62834229D02*
X36549523Y62834229D01*
X36549523Y62834229D02*
X36644761Y62786610D01*
X36644761Y62786610D02*
X36692380Y62738991D01*
X36692380Y62738991D02*
X36739999Y62643753D01*
X36739999Y62643753D02*
X36739999Y62405658D01*
X36739999Y62405658D02*
X36692380Y62310420D01*
X36692380Y62310420D02*
X36644761Y62262800D01*
X36644761Y62262800D02*
X36549523Y62215181D01*
X36549523Y62215181D02*
X36311428Y62215181D01*
X36311428Y62215181D02*
X36216190Y62262800D01*
X36216190Y62262800D02*
X36168571Y62310420D01*
X37168571Y62215181D02*
X37168571Y63215181D01*
X37739999Y62215181D02*
X37311428Y62786610D01*
X37739999Y63215181D02*
X37168571Y62643753D01*
D18*
X34140000Y72726000D02*
X34140000Y72570000D01*
X34140000Y70410000D02*
X34140000Y70254000D01*
X34140000Y72725516D02*
G75*
G02*
X37371437Y72570000I1560000J-1235516D01*
G01*
X34659039Y72570000D02*
G75*
G02*
X36740961Y72570000I1040961J-1080000D01*
G01*
X36740961Y70410000D02*
G75*
G02*
X34659039Y70410000I-1040961J1080000D01*
G01*
X37371437Y70410000D02*
G75*
G02*
X34140000Y70254484I-1671437J1080000D01*
G01*
X66250000Y61470000D02*
X67630000Y61470000D01*
X66250000Y60090000D02*
X66250000Y61470000D01*
X66250000Y58820000D02*
X66250000Y10450000D01*
X66250000Y58820000D02*
X69010000Y58820000D01*
X66250000Y10450000D02*
X69010000Y10450000D01*
X69010000Y58820000D02*
X69010000Y10450000D01*
X61870000Y32665000D02*
X61870000Y34195000D01*
X63710000Y34195000D02*
X63710000Y32665000D01*
X16790000Y10750000D02*
X16790000Y12130000D01*
X18170000Y10750000D02*
X16790000Y10750000D01*
X19440000Y13510000D02*
X32250000Y13510000D01*
X19440000Y10750000D02*
X19440000Y13510000D01*
X19440000Y10750000D02*
X32250000Y10750000D01*
X32250000Y10750000D02*
X32250000Y13510000D01*
D14*
X41050000Y12420000D02*
X41550000Y12920000D01*
X41050000Y8820000D02*
X41050000Y12420000D01*
X41550000Y12920000D02*
X42350000Y12920000D01*
X41550000Y8320000D02*
X41050000Y8820000D01*
X42350000Y12920000D02*
X42850000Y12420000D01*
X42350000Y8320000D02*
X41550000Y8320000D01*
X42850000Y12420000D02*
X42850000Y8820000D01*
X42850000Y8820000D02*
X42350000Y8320000D01*
D18*
X8085000Y61780000D02*
X9615000Y61780000D01*
X9615000Y59940000D02*
X8085000Y59940000D01*
X31420000Y22580000D02*
X37960000Y22580000D01*
X31420000Y22250000D02*
X31420000Y22580000D01*
X31420000Y20170000D02*
X31420000Y19840000D01*
X31420000Y19840000D02*
X37960000Y19840000D01*
X37960000Y22580000D02*
X37960000Y22250000D01*
X37960000Y19840000D02*
X37960000Y20170000D01*
X44160000Y69660000D02*
X44160000Y71040000D01*
X45540000Y69660000D02*
X44160000Y69660000D01*
X46810000Y72420000D02*
X59620000Y72420000D01*
X46810000Y69660000D02*
X46810000Y72420000D01*
X46810000Y69660000D02*
X59620000Y69660000D01*
X59620000Y69660000D02*
X59620000Y72420000D01*
D14*
X43590000Y12420000D02*
X44090000Y12920000D01*
X43590000Y8820000D02*
X43590000Y12420000D01*
X44090000Y12920000D02*
X44890000Y12920000D01*
X44090000Y8320000D02*
X43590000Y8820000D01*
X44890000Y12920000D02*
X45390000Y12420000D01*
X44890000Y8320000D02*
X44090000Y8320000D01*
X45390000Y12420000D02*
X45390000Y8820000D01*
X45390000Y8820000D02*
X44890000Y8320000D01*
D11*
X62400000Y71140000D02*
X62400000Y71140000D01*
X62500000Y71140000D02*
X62500000Y71140000D01*
D10*
X63900000Y67890000D02*
X63900000Y69890000D01*
X64900000Y71890000D02*
X68900000Y71890000D01*
X64900000Y65890000D02*
X68900000Y65890000D01*
X69900000Y69890000D02*
X69900000Y67890000D01*
D11*
X62400000Y71140000D02*
G75*
G02*
X62500000Y71140000I50000J0D01*
G01*
X62500000Y71140000D02*
G75*
G02*
X62400000Y71140000I-50000J0D01*
G01*
D14*
X46130000Y12420000D02*
X46630000Y12920000D01*
X46130000Y8820000D02*
X46130000Y12420000D01*
X46630000Y12920000D02*
X47430000Y12920000D01*
X46630000Y8320000D02*
X46130000Y8820000D01*
X47430000Y12920000D02*
X47930000Y12420000D01*
X47430000Y8320000D02*
X46630000Y8320000D01*
X47930000Y12420000D02*
X47930000Y8820000D01*
X47930000Y8820000D02*
X47430000Y8320000D01*
X48670000Y12430000D02*
X49170000Y12930000D01*
X48670000Y8830000D02*
X48670000Y12430000D01*
X49170000Y12930000D02*
X49970000Y12930000D01*
X49170000Y8330000D02*
X48670000Y8830000D01*
X49970000Y12930000D02*
X50470000Y12430000D01*
X49970000Y8330000D02*
X49170000Y8330000D01*
X50470000Y12430000D02*
X50470000Y8830000D01*
X50470000Y8830000D02*
X49970000Y8330000D01*
D18*
X35660000Y7696000D02*
X35660000Y7540000D01*
X35660000Y5380000D02*
X35660000Y5224000D01*
X35660000Y7695516D02*
G75*
G02*
X38891437Y7540000I1560000J-1235516D01*
G01*
X36179039Y7540000D02*
G75*
G02*
X38260961Y7540000I1040961J-1080000D01*
G01*
X38260961Y5380000D02*
G75*
G02*
X36179039Y5380000I-1040961J1080000D01*
G01*
X38891437Y5380000D02*
G75*
G02*
X35660000Y5224484I-1671437J1080000D01*
G01*
X41850000Y57210000D02*
X41850000Y18990000D01*
X41850000Y57210000D02*
X44450000Y57210000D01*
X41850000Y18990000D02*
X47050000Y18990000D01*
X44450000Y57210000D02*
X44450000Y54610000D01*
X44450000Y54610000D02*
X47050000Y54610000D01*
X45720000Y57210000D02*
X47050000Y57210000D01*
X47050000Y57210000D02*
X47050000Y55880000D01*
X47050000Y54610000D02*
X47050000Y18990000D01*
X86570000Y61470000D02*
X87950000Y61470000D01*
X86570000Y60090000D02*
X86570000Y61470000D01*
X86570000Y58820000D02*
X86570000Y10450000D01*
X86570000Y58820000D02*
X89330000Y58820000D01*
X86570000Y10450000D02*
X89330000Y10450000D01*
X89330000Y58820000D02*
X89330000Y10450000D01*
X6290000Y57210000D02*
X6290000Y18990000D01*
X6290000Y57210000D02*
X8890000Y57210000D01*
X6290000Y18990000D02*
X11490000Y18990000D01*
X8890000Y57210000D02*
X8890000Y54610000D01*
X8890000Y54610000D02*
X11490000Y54610000D01*
X10160000Y57210000D02*
X11490000Y57210000D01*
X11490000Y57210000D02*
X11490000Y55880000D01*
X11490000Y54610000D02*
X11490000Y18990000D01*
X24255225Y72735000D02*
X24755225Y72735000D01*
X24505225Y72985000D02*
X24505225Y72485000D01*
X29680000Y71260000D02*
G75*
G02*
X24440000Y71260000I-2620000J0D01*
G01*
X24440000Y71260000D02*
G75*
G02*
X29680000Y71260000I2620000J0D01*
G01*
X13070000Y75330000D02*
X17270000Y75330000D01*
X13070000Y74130000D02*
X13070000Y75330000D01*
X13070000Y66480000D02*
X13070000Y66130000D01*
X13070000Y66130000D02*
X17270000Y66130000D01*
X17270000Y75330000D02*
X17270000Y74130000D01*
X17270000Y66130000D02*
X17270000Y67330000D01*
X13070000Y66750000D02*
X12590000Y67230000D01*
X13070000Y67230000D01*
X13070000Y66750000D01*
G36*
X13070000Y66750000D02*
G01*
X12590000Y67230000D01*
X13070000Y67230000D01*
X13070000Y66750000D01*
G37*
X32970000Y66410000D02*
X39510000Y66410000D01*
X32970000Y66080000D02*
X32970000Y66410000D01*
X32970000Y64000000D02*
X32970000Y63670000D01*
X32970000Y63670000D02*
X39510000Y63670000D01*
X39510000Y66410000D02*
X39510000Y66080000D01*
X39510000Y63670000D02*
X39510000Y64000000D01*
M02*
