%TF.GenerationSoftware,KiCad,Pcbnew,9.0.7*%
%TF.CreationDate,2026-02-27T07:51:05+09:00*%
%TF.ProjectId,rp2350b,72703233-3530-4622-9e6b-696361645f70,Rev 0.2*%
%TF.SameCoordinates,PX3683140PY676d0d0*%
%TF.FileFunction,Soldermask,Top*%
%TF.FilePolarity,Negative*%
%FSLAX46Y46*%
G04 Gerber Fmt 4.6, Leading zero omitted, Abs format (unit mm)*
G04 Created by KiCad (PCBNEW 9.0.7) date 2026-02-27 07:51:05*
%MOMM*%
%LPD*%
G01*
G04 APERTURE LIST*
G04 Aperture macros list*
%AMRoundRect*
0 Rectangle with rounded corners*
0 $1 Rounding radius*
0 $2 $3 $4 $5 $6 $7 $8 $9 X,Y pos of 4 corners*
0 Add a 4 corners polygon primitive as box body*
4,1,4,$2,$3,$4,$5,$6,$7,$8,$9,$2,$3,0*
0 Add four circle primitives for the rounded corners*
1,1,$1+$1,$2,$3*
1,1,$1+$1,$4,$5*
1,1,$1+$1,$6,$7*
1,1,$1+$1,$8,$9*
0 Add four rect primitives between the rounded corners*
20,1,$1+$1,$2,$3,$4,$5,0*
20,1,$1+$1,$4,$5,$6,$7,0*
20,1,$1+$1,$6,$7,$8,$9,0*
20,1,$1+$1,$8,$9,$2,$3,0*%
G04 Aperture macros list end*
%ADD10R,1.800000X1.800000*%
%ADD11C,1.800000*%
%ADD12R,1.700000X1.700000*%
%ADD13C,1.700000*%
%ADD14C,1.600000*%
%ADD15C,1.400000*%
%ADD16R,1.500000X1.500000*%
%ADD17C,1.500000*%
%ADD18C,3.200000*%
%ADD19RoundRect,0.250000X-0.550000X-0.550000X0.550000X-0.550000X0.550000X0.550000X-0.550000X0.550000X0*%
%ADD20RoundRect,0.250000X0.450000X-0.450000X0.450000X0.450000X-0.450000X0.450000X-0.450000X-0.450000X0*%
%ADD21C,0.605000*%
G04 APERTURE END LIST*
D10*
X34430000Y71490000D03*
D11*
X36970000Y71490000D03*
D12*
X67630000Y60090000D03*
D13*
X67630000Y57550000D03*
X67630000Y55010000D03*
X67630000Y52470000D03*
X67630000Y49930000D03*
X67630000Y47390000D03*
X67630000Y44850000D03*
X67630000Y42310000D03*
X67630000Y39770000D03*
X67630000Y37230000D03*
X67630000Y34690000D03*
X67630000Y32150000D03*
X67630000Y29610000D03*
X67630000Y27070000D03*
X67630000Y24530000D03*
X67630000Y21990000D03*
X67630000Y19450000D03*
X67630000Y16910000D03*
X67630000Y14370000D03*
X67630000Y11830000D03*
D14*
X62790000Y34680000D03*
X62790000Y32180000D03*
D12*
X18170000Y12130000D03*
D13*
X20710000Y12130000D03*
X23250000Y12130000D03*
X25790000Y12130000D03*
X28330000Y12130000D03*
X30870000Y12130000D03*
D15*
X41950000Y11890000D03*
X41950000Y9350000D03*
D14*
X7600000Y60860000D03*
X10100000Y60860000D03*
X30880000Y21210000D03*
X38500000Y21210000D03*
D12*
X45540000Y71040000D03*
D13*
X48080000Y71040000D03*
X50620000Y71040000D03*
X53160000Y71040000D03*
X55700000Y71040000D03*
X58240000Y71040000D03*
D15*
X44490000Y11890000D03*
X44490000Y9350000D03*
D16*
X63650000Y71140000D03*
D17*
X70150000Y71140000D03*
X63650000Y66640000D03*
X70150000Y66640000D03*
D18*
X5000000Y72000000D03*
D15*
X47030000Y11890000D03*
X47030000Y9350000D03*
X49570000Y11900000D03*
X49570000Y9360000D03*
D10*
X35950000Y6460000D03*
D11*
X38490000Y6460000D03*
D12*
X45720000Y55880000D03*
D13*
X43180000Y55880000D03*
X45720000Y53340000D03*
X43180000Y53340000D03*
X45720000Y50800000D03*
X43180000Y50800000D03*
X45720000Y48260000D03*
X43180000Y48260000D03*
X45720000Y45720000D03*
X43180000Y45720000D03*
X45720000Y43180000D03*
X43180000Y43180000D03*
X45720000Y40640000D03*
X43180000Y40640000D03*
X45720000Y38100000D03*
X43180000Y38100000D03*
X45720000Y35560000D03*
X43180000Y35560000D03*
X45720000Y33020000D03*
X43180000Y33020000D03*
X45720000Y30480000D03*
X43180000Y30480000D03*
X45720000Y27940000D03*
X43180000Y27940000D03*
X45720000Y25400000D03*
X43180000Y25400000D03*
X45720000Y22860000D03*
X43180000Y22860000D03*
X45720000Y20320000D03*
X43180000Y20320000D03*
D12*
X87950000Y60090000D03*
D13*
X87950000Y57550000D03*
X87950000Y55010000D03*
X87950000Y52470000D03*
X87950000Y49930000D03*
X87950000Y47390000D03*
X87950000Y44850000D03*
X87950000Y42310000D03*
X87950000Y39770000D03*
X87950000Y37230000D03*
X87950000Y34690000D03*
X87950000Y32150000D03*
X87950000Y29610000D03*
X87950000Y27070000D03*
X87950000Y24530000D03*
X87950000Y21990000D03*
X87950000Y19450000D03*
X87950000Y16910000D03*
X87950000Y14370000D03*
X87950000Y11830000D03*
D18*
X94000000Y5000000D03*
X5000000Y5000000D03*
D12*
X10160000Y55880000D03*
D13*
X7620000Y55880000D03*
X10160000Y53340000D03*
X7620000Y53340000D03*
X10160000Y50800000D03*
X7620000Y50800000D03*
X10160000Y48260000D03*
X7620000Y48260000D03*
X10160000Y45720000D03*
X7620000Y45720000D03*
X10160000Y43180000D03*
X7620000Y43180000D03*
X10160000Y40640000D03*
X7620000Y40640000D03*
X10160000Y38100000D03*
X7620000Y38100000D03*
X10160000Y35560000D03*
X7620000Y35560000D03*
X10160000Y33020000D03*
X7620000Y33020000D03*
X10160000Y30480000D03*
X7620000Y30480000D03*
X10160000Y27940000D03*
X7620000Y27940000D03*
X10160000Y25400000D03*
X7620000Y25400000D03*
X10160000Y22860000D03*
X7620000Y22860000D03*
X10160000Y20320000D03*
X7620000Y20320000D03*
D19*
X25810000Y71260000D03*
D14*
X28310000Y71260000D03*
D20*
X13520000Y68230000D03*
D15*
X13520000Y70730000D03*
X13520000Y73230000D03*
X16820000Y73230000D03*
X16820000Y70730000D03*
X16820000Y68230000D03*
D14*
X32430000Y65040000D03*
X40050000Y65040000D03*
D18*
X94000000Y72000000D03*
D21*
X33190000Y40270000D03*
X76830000Y19370000D03*
X51900000Y74890000D03*
X57000000Y55200000D03*
X27970000Y37010000D03*
X83640000Y69610000D03*
X15760000Y19860000D03*
X81040000Y4010000D03*
X56350000Y19310000D03*
X75210000Y54340000D03*
X83620000Y47310000D03*
X95930000Y42630000D03*
X76690000Y15200000D03*
X28290000Y48240000D03*
X77100000Y10700000D03*
X11450000Y9410000D03*
X3620000Y36210000D03*
X37340000Y24240000D03*
X77460000Y60540000D03*
X75670000Y41270000D03*
X76340000Y21900000D03*
X55030000Y3400000D03*
X83860000Y50150000D03*
X76030000Y47370000D03*
X4040000Y65290000D03*
X40070000Y71490000D03*
X22060000Y38840000D03*
X22060000Y43180000D03*
X14090000Y49560000D03*
X58180000Y24530000D03*
X14090000Y29260000D03*
X58180000Y29260000D03*
X58990000Y47390000D03*
X58990000Y39530000D03*
X39740000Y39540000D03*
X39730000Y25400000D03*
X65040000Y62530000D03*
X19410000Y62530000D03*
X65040000Y57550000D03*
X19410000Y35560000D03*
X37390000Y32850000D03*
X37390000Y51930000D03*
X38270000Y31780000D03*
X38370000Y49700000D03*
X9100000Y15200000D03*
X36590000Y52340000D03*
X59020000Y52550000D03*
X59260000Y55010000D03*
X36590000Y34990000D03*
X15680000Y33750000D03*
X15680000Y48240000D03*
X61890000Y10470000D03*
X61890000Y18570000D03*
X53160000Y29940000D03*
X14970000Y34360000D03*
X53170000Y34360000D03*
X15130000Y39520000D03*
X52170000Y21990000D03*
X52170000Y35570000D03*
X60110000Y16890000D03*
X60110000Y11050000D03*
X20040000Y61220000D03*
X20040000Y36640000D03*
X10160000Y14660000D03*
X61090000Y11830000D03*
X61090000Y14660000D03*
X12340000Y26770000D03*
X12330000Y50800000D03*
X82290000Y21990000D03*
X58960000Y36990000D03*
X58960000Y28470000D03*
X82310000Y28350000D03*
X54750000Y46310000D03*
X54750000Y34520000D03*
X16330000Y61970000D03*
X16330000Y38100000D03*
X54200000Y48690000D03*
X54200000Y33200000D03*
X80750000Y58440000D03*
X80770000Y55010000D03*
X15050000Y40640000D03*
X15050000Y60060000D03*
X84220000Y44840000D03*
X84220000Y31340000D03*
X40360000Y18350000D03*
X11420000Y15731100D03*
X70690000Y15730000D03*
X70720000Y11830000D03*
X84210000Y8280000D03*
X81660000Y33590000D03*
X55580000Y33590000D03*
X55540000Y31570000D03*
X81650000Y42310000D03*
X85140000Y27570000D03*
X16860000Y63100000D03*
X62650000Y59328700D03*
X62610000Y63100000D03*
X16920000Y38830000D03*
X80750000Y52480000D03*
X80740000Y35910000D03*
X82310000Y39760000D03*
X57370000Y30370000D03*
X57370000Y27930000D03*
X82310000Y30780000D03*
X83300000Y34690000D03*
X83300000Y25770000D03*
X83290000Y20560000D03*
X50760000Y24220000D03*
X50770000Y13080000D03*
X85160000Y9620000D03*
X28330000Y23130000D03*
X12400000Y23130000D03*
X23250000Y27940000D03*
X20710000Y30480000D03*
X32450002Y50810000D03*
X25790000Y24020000D03*
X58240000Y49370000D03*
X49560000Y21440000D03*
X13200000Y60570000D03*
X13200000Y18940000D03*
X45540000Y60650000D03*
X53180400Y46799600D03*
X55700000Y45720000D03*
X50770000Y43180000D03*
X48000000Y17110000D03*
X48000000Y38100000D03*
X41970000Y17110000D03*
X48830000Y40640000D03*
X49250000Y16280000D03*
X44990000Y16280000D03*
X48590000Y65770000D03*
X48590000Y48260000D03*
X17560000Y53340000D03*
X22180000Y70730000D03*
X22180000Y58350000D03*
X60379999Y58349999D03*
X60390000Y34680000D03*
M02*
